<?xml version="1.0" encoding="UTF-8" standalone="no"?>
<!-- Creator: CorelDRAW X8 -->

<svg
   xmlns:dc="http://purl.org/dc/elements/1.1/"
   xmlns:cc="http://creativecommons.org/ns#"
   xmlns:rdf="http://www.w3.org/1999/02/22-rdf-syntax-ns#"
   xmlns:svg="http://www.w3.org/2000/svg"
   xmlns="http://www.w3.org/2000/svg"
   xmlns:xlink="http://www.w3.org/1999/xlink"
   xmlns:sodipodi="http://sodipodi.sourceforge.net/DTD/sodipodi-0.dtd"
   xmlns:inkscape="http://www.inkscape.org/namespaces/inkscape"
   xml:space="preserve"
   width="77.06308mm"
   height="77.063065mm"
   version="1.1"
   style="clip-rule:evenodd;fill-rule:evenodd;image-rendering:optimizeQuality;shape-rendering:geometricPrecision;text-rendering:geometricPrecision"
   viewBox="0 0 1282020.5 1282023.2"
   id="svg2"
   inkscape:version="0.91 r13725"
   sodipodi:docname="car_rpm_scale.svg"><metadata
     id="metadata949"><rdf:RDF><cc:Work
         rdf:about=""><dc:format>image/svg+xml</dc:format><dc:type
           rdf:resource="http://purl.org/dc/dcmitype/StillImage" /><dc:title></dc:title></cc:Work></rdf:RDF></metadata><sodipodi:namedview
     pagecolor="#ffffff"
     bordercolor="#666666"
     borderopacity="1"
     objecttolerance="10"
     gridtolerance="10"
     guidetolerance="10"
     inkscape:pageopacity="0"
     inkscape:pageshadow="2"
     inkscape:window-width="1280"
     inkscape:window-height="979"
     id="namedview947"
     showgrid="false"
     inkscape:zoom="1.9397454"
     inkscape:cx="158.7458"
     inkscape:cy="163.47172"
     inkscape:window-x="1466"
     inkscape:window-y="2"
     inkscape:window-maximized="0"
     inkscape:current-layer="svg2"
     fit-margin-top="0"
     fit-margin-left="0"
     fit-margin-right="0"
     fit-margin-bottom="0" /><defs
     id="defs4"><style
       type="text/css"
       id="style6"><![CDATA[
    .fil23 {fill:none}
    .fil0 {fill:black}
    .fil22 {fill:black}
    .fil11 {fill:#00A0E3}
    .fil16 {fill:#00A0E3}
    .fil7 {fill:#9D9E9E}
    .fil9 {fill:#FEFEFE}
    .fil18 {fill:#FEFEFE;fill-rule:nonzero}
    .fil19 {fill:#9D9E9E;fill-rule:nonzero}
    .fil5 {fill:#FEFEFE;fill-rule:nonzero}
    .fil10 {fill:red;fill-rule:nonzero}
    .fil13 {fill:red;fill-rule:nonzero}
    .fil14 {fill:white;fill-rule:nonzero}
    .fil8 {fill:url(#id0)}
    .fil15 {fill:url(#id1)}
    .fil17 {fill:url(#id2)}
    .fil6 {fill:url(#id3)}
    .fil12 {fill:url(#id4)}
    .fil21 {fill:url(#id5)}
    .fil20 {fill:url(#id6)}
    .fil3 {fill:url(#id7)}
    .fil2 {fill:url(#id8)}
    .fil4 {fill:url(#id9)}
    .fil1 {fill:url(#id10)}
   ]]></style><linearGradient
       id="id0"
       gradientUnits="userSpaceOnUse"
       x1="1030640"
       y1="1094090"
       x2="821532"
       y2="736752"><stop
         offset="0"
         style="stop-opacity:1; stop-color:#1C1B17"
         id="stop9" /><stop
         offset="0.529412"
         style="stop-opacity:1; stop-color:#434242"
         id="stop11" /><stop
         offset="1"
         style="stop-opacity:1; stop-color:#1C1B17"
         id="stop13" /></linearGradient><linearGradient
       id="id1"
       gradientUnits="userSpaceOnUse"
       xlink:href="#id0"
       x1="3261210"
       y1="1094090"
       x2="3052100"
       y2="736752"
       gradientTransform="translate(-2522490.5,-267913.36)" /><linearGradient
       id="id2"
       gradientUnits="userSpaceOnUse"
       xlink:href="#id0"
       x1="3524330"
       y1="1592490"
       x2="2752340"
       y2="273220"
       gradientTransform="translate(-2522490.5,-267913.36)" /><linearGradient
       id="id3"
       gradientUnits="objectBoundingBox"
       x1="0.61107498"
       y1="0"
       x2="0.61107498"
       y2="0.94135904"><stop
         offset="0"
         style="stop-opacity:1; stop-color:#00A0E3"
         id="stop18" /><stop
         offset="1"
         style="stop-opacity:1; stop-color:black"
         id="stop20" /></linearGradient><linearGradient
       id="id4"
       gradientUnits="userSpaceOnUse"
       xlink:href="#id0"
       x1="1293760"
       y1="1592480"
       x2="521771"
       y2="273220" /><linearGradient
       id="id5"
       gradientUnits="userSpaceOnUse"
       x1="2090880"
       y1="645894"
       x2="2343020"
       y2="363752"><stop
         offset="0"
         style="stop-opacity:1; stop-color:#FFEE00"
         id="stop24" /><stop
         offset="1"
         style="stop-opacity:1; stop-color:black"
         id="stop26" /></linearGradient><linearGradient
       id="id6"
       gradientUnits="userSpaceOnUse"
       xlink:href="#id5"
       x1="2021190"
       y1="645896"
       x2="1769050"
       y2="363754" /><linearGradient
       id="id7"
       gradientUnits="userSpaceOnUse"
       x1="2090880"
       y1="1256390"
       x2="2343020"
       y2="1538530"><stop
         offset="0"
         style="stop-opacity:1; stop-color:red"
         id="stop30" /><stop
         offset="1"
         style="stop-opacity:1; stop-color:black"
         id="stop32" /></linearGradient><linearGradient
       id="id8"
       gradientUnits="userSpaceOnUse"
       xlink:href="#id7"
       x1="2021190"
       y1="1256390"
       x2="1769050"
       y2="1538530" /><radialGradient
       id="id9"
       gradientUnits="userSpaceOnUse"
       gradientTransform="matrix(1.13982,-0.0277996,0.0277996,1.13983,-155715,-101155)"
       cx="932935"
       cy="908924"
       r="633314"
       fx="932935"
       fy="908924"><stop
         offset="0"
         style="stop-opacity:1; stop-color:black"
         id="stop36" /><stop
         offset="0.670588"
         style="stop-opacity:1; stop-color:black"
         id="stop38" /><stop
         offset="1"
         style="stop-opacity:1; stop-color:#00A0E3"
         id="stop40" /></radialGradient><radialGradient
       id="id10"
       gradientUnits="userSpaceOnUse"
       gradientTransform="matrix(1.13982,-0.0277996,0.0277996,1.13983,-2868021,-194379)"
       xlink:href="#id9"
       cx="3163500"
       cy="908926"
       r="633314"
       fx="3163500"
       fy="908926" /><linearGradient
       id="id0-5"
       gradientUnits="userSpaceOnUse"
       x1="79084.102"
       y1="115915"
       x2="67443.102"
       y2="-18480.199"
       gradientTransform="matrix(7.0495335,0,0,7.0495335,1995504.6,2276777.5)"><stop
         offset="0"
         style="stop-opacity:1; stop-color:#FFEE00"
         id="stop9-4" /><stop
         offset="1"
         style="stop-opacity:1; stop-color:black"
         id="stop11-0" /></linearGradient><linearGradient
       id="id0-1"
       gradientUnits="userSpaceOnUse"
       x1="188342"
       y1="271404"
       x2="161233"
       y2="-45430.301"
       gradientTransform="matrix(2.2018915,0,0,2.2018915,1623834.1,255089.38)"><stop
         offset="0"
         style="stop-opacity:1; stop-color:#00A0E3"
         id="stop9-0" /><stop
         offset="1"
         style="stop-opacity:1; stop-color:black"
         id="stop11-9" /></linearGradient><linearGradient
       gradientTransform="matrix(2.1821573,0,0,2.1821573,1627037.6,247969.95)"
       id="id0-4"
       gradientUnits="userSpaceOnUse"
       x1="188673"
       y1="276543"
       x2="160901"
       y2="-44088.699"><stop
         offset="0"
         style="stop-opacity:1; stop-color:#FFEE00"
         id="stop9-7" /><stop
         offset="1"
         style="stop-opacity:1; stop-color:black"
         id="stop11-8" /></linearGradient><linearGradient
       gradientTransform="matrix(3.6129096,0,0,3.6129096,1831067.8,1270976.8)"
       id="id0-8"
       gradientUnits="userSpaceOnUse"
       x1="83317.703"
       y1="182544"
       x2="83317.703"
       y2="249145"><stop
         offset="0"
         style="stop-opacity:1; stop-color:red"
         id="stop9-3" /><stop
         offset="1"
         style="stop-opacity:1; stop-color:black"
         id="stop11-3" /></linearGradient></defs><path
     style="fill:#ff0000;fill-rule:nonzero"
     inkscape:connector-curvature="0"
     id="path362"
     d="m 1065964.5,1039401.6 40955,38497 -2346,2485 -40931,-38479 c 784,-828 1544,-1672 2322,-2503 z"
     class="fil13" /><path
     style="fill:#ff0000;fill-rule:nonzero"
     inkscape:connector-curvature="0"
     id="path364"
     d="m 1077512.5,1026714.6 42070,37275 -2271,2552 -42047,-37255 c 760,-853 1494,-1719 2248,-2572 z"
     class="fil13" /><path
     style="fill:#ff0000;fill-rule:nonzero"
     inkscape:connector-curvature="0"
     id="path366"
     d="m 1088679.5,1013691.6 43149,36021 -2193,2618 -43127,-36002 c 734,-875 1443,-1760 2171,-2637 z"
     class="fil13" /><path
     style="fill:#ff0000;fill-rule:nonzero"
     inkscape:connector-curvature="0"
     id="path368"
     d="m 1099461.5,1000346.6 44190,34734 -2116,2682 -44167,-34716 c 707,-895 1389,-1802 2093,-2700 z"
     class="fil13" /><path
     style="fill:#ff0000;fill-rule:nonzero"
     inkscape:connector-curvature="0"
     id="path370"
     d="m 1109844.5,986691.64 45195,33416.96 -2037,2743 -45171,-33399.96 c 682,-917 1337,-1843 2013,-2760 z"
     class="fil13" /><path
     style="fill:#ff0000;fill-rule:nonzero"
     inkscape:connector-curvature="0"
     id="path372"
     d="m 1119820.5,972734.64 46158,32071.96 -1953,2802 -46136,-32055.96 c 655,-935 1282,-1880 1931,-2818 z"
     class="fil13" /><path
     style="fill:#ff0000;fill-rule:nonzero"
     inkscape:connector-curvature="0"
     id="path374"
     d="m 1129381.5,958490.64 47083,30698 -1870,2858 -47060,-30681 c 627,-955 1226,-1919 1847,-2875 z"
     class="fil13" /><path
     style="fill:#ff0000;fill-rule:nonzero"
     inkscape:connector-curvature="0"
     id="path376"
     d="m 1138519.5,943972.64 47967,29297 -1787,2913 -47942,-29284 c 598,-973 1168,-1953 1762,-2926 z"
     class="fil13" /><path
     style="fill:#ff0000;fill-rule:nonzero"
     inkscape:connector-curvature="0"
     id="path378"
     d="m 1147225.5,929189.64 48808,27873 -1699,2963 -48785,-27860 c 569,-988 1112,-1986 1676,-2976 z"
     class="fil13" /><path
     style="fill:#ff0000;fill-rule:nonzero"
     inkscape:connector-curvature="0"
     id="path380"
     d="m 1155491.5,914157.64 49609,26424 -1612,3011 -49582,-26411 c 539,-1005 1051,-2018 1585,-3024 z"
     class="fil13" /><path
     style="fill:#ff0000;fill-rule:nonzero"
     inkscape:connector-curvature="0"
     id="path382"
     d="m 1163312.5,898888.64 50365,24952 -1522,3058 -50339,-24939 c 509,-1021 992,-2048 1496,-3071 z"
     class="fil13" /><path
     style="fill:#ff0000;fill-rule:nonzero"
     inkscape:connector-curvature="0"
     id="path384"
     d="m 1170680.5,883395.64 51077,23458 -1430,3101 -51053,-23445 c 481,-1036 932,-2078 1406,-3114 z"
     class="fil13" /><path
     style="fill:#ff0000;fill-rule:nonzero"
     inkscape:connector-curvature="0"
     id="path386"
     d="m 1177589.5,867692.64 51746,21943 -1339,3143 -51722,-21933 c 450,-1050 871,-2103 1315,-3153 z"
     class="fil13" /><path
     style="fill:#ff0000;fill-rule:nonzero"
     inkscape:connector-curvature="0"
     id="path388"
     d="m 1184030.5,851792.64 52372,20410 -1248,3181 -52343,-20401 c 417,-1061 807,-2127 1219,-3190 z"
     class="fil13" /><path
     style="fill:#ff0000;fill-rule:nonzero"
     inkscape:connector-curvature="0"
     id="path390"
     d="m 1190002.5,835710.64 52950,18858 -1153,3216 -52921,-18849 c 386,-1074 744,-2151 1124,-3225 z"
     class="fil13" /><path
     style="fill:#ff0000;fill-rule:nonzero"
     inkscape:connector-curvature="0"
     id="path392"
     d="m 1195496.5,819456.64 53481,17293 -1056,3248 -53453,-17283 c 354,-1085 680,-2171 1028,-3258 z"
     class="fil13" /><path
     style="fill:#ff0000;fill-rule:nonzero"
     inkscape:connector-curvature="0"
     id="path394"
     d="m 1200511.5,803051.64 53969,15710 -961,3279 -53939,-15703 c 321,-1095 615,-2189 931,-3286 z"
     class="fil13" /><path
     style="fill:#ff0000;fill-rule:nonzero"
     inkscape:connector-curvature="0"
     id="path396"
     d="m 1205041.5,786505.64 54407,14113 -864,3305 -54379,-14106 c 291,-1104 552,-2207 836,-3312 z"
     class="fil13" /><path
     style="fill:#ff0000;fill-rule:nonzero"
     inkscape:connector-curvature="0"
     id="path398"
     d="m 1209081.5,769831.64 54797,12505 -765,3329 -54771,-12498 c 258,-1113 486,-2225 739,-3336 z"
     class="fil13" /><path
     style="fill:#ff0000;fill-rule:nonzero"
     inkscape:connector-curvature="0"
     id="path400"
     d="m 1212626.5,753047.64 55143,10887 -667,3350 -55115,-10882 c 225,-1118 421,-2235 639,-3355 z"
     class="fil13" /><path
     style="fill:#ff0000;fill-rule:nonzero"
     inkscape:connector-curvature="0"
     id="path402"
     d="m 1215680.5,736166.64 55440,9257 -569,3368 -55412,-9252 c 192,-1127 355,-2248 541,-3373 z"
     class="fil13" /><path
     style="fill:#ff0000;fill-rule:nonzero"
     inkscape:connector-curvature="0"
     id="path404"
     d="m 1218232.5,719203.64 55687,7621 -469,3383 -55659,-7617 c 158,-1131 288,-2258 441,-3387 z"
     class="fil13" /><path
     style="fill:#ff0000;fill-rule:nonzero"
     inkscape:connector-curvature="0"
     id="path406"
     d="m 1220285.5,702169.64 55889,5977 -370,3396 -55860,-5974 c 125,-1135 221,-2264 341,-3399 z"
     class="fil13" /><path
     style="fill:#ff0000;fill-rule:nonzero"
     inkscape:connector-curvature="0"
     id="path408"
     d="m 1221835.5,685084.64 56040,4329 -269,3405 -56012,-4327 c 92,-1138 155,-2271 241,-3407 z"
     class="fil13" /><path
     style="fill:#ff0000;fill-rule:nonzero"
     inkscape:connector-curvature="0"
     id="path410"
     d="m 1222880.5,667960.64 56145,2677 -170,3412 -56115,-2676 c 59,-1140 89,-2275 140,-3413 z"
     class="fil13" /><path
     style="fill:#ff0000;fill-rule:nonzero"
     inkscape:connector-curvature="0"
     id="path412"
     d="m 1223423.5,650814.64 56198,1021 -69,3416 -56169,-1022 c 23,-1141 20,-2276 40,-3415 z"
     class="fil13" /><path
     style="fill:#ff0000;fill-rule:nonzero"
     inkscape:connector-curvature="0"
     id="path414"
     d="m 1223459.5,633659.64 56203,-634 32,3415 -56175,634 c -10,-1143 -47,-2276 -60,-3415 z"
     class="fil13" /><path
     style="fill:#ff0000;fill-rule:nonzero"
     inkscape:connector-curvature="0"
     id="path416"
     d="m 1222988.5,616510.64 56160,-2287 133,3414 -56131,2285 c -44,-1141 -113,-2272 -162,-3412 z"
     class="fil13" /><path
     style="fill:#ff0000;fill-rule:nonzero"
     inkscape:connector-curvature="0"
     id="path418"
     d="m 1222015.5,599382.64 56070,-3941 233,3407 -56040,3939 c -78,-1139 -181,-2269 -263,-3405 z"
     class="fil13" /><path
     style="fill:#ff0000;fill-rule:nonzero"
     inkscape:connector-curvature="0"
     id="path420"
     d="m 1220538.5,582290.64 55928,-5591 333,3400 -55900,5587 c -110,-1137 -246,-2263 -361,-3396 z"
     class="fil13" /><path
     style="fill:#fefefe;fill-rule:nonzero"
     inkscape:connector-curvature="0"
     id="path422"
     d="m 1218556.5,565250.64 55739,-7235 435,3389 -55713,7231 c -143,-1133 -312,-2254 -461,-3385 z"
     class="fil5" /><path
     style="fill:#fefefe;fill-rule:nonzero"
     inkscape:connector-curvature="0"
     id="path424"
     d="m 1216074.5,548274.64 55503,-8871 532,3373 -55474,8869 c -176,-1128 -379,-2244 -561,-3371 z"
     class="fil5" /><path
     style="fill:#fefefe;fill-rule:nonzero"
     inkscape:connector-curvature="0"
     id="path426"
     d="m 1213095.5,531381.64 55216,-10504 633,3357 -55190,10499 c -210,-1123 -445,-2233 -659,-3352 z"
     class="fil5" /><path
     style="fill:#fefefe;fill-rule:nonzero"
     inkscape:connector-curvature="0"
     id="path428"
     d="m 1209618.5,514580.64 54884,-12124 732,3335 -54857,12119 c -243,-1114 -511,-2217 -759,-3330 z"
     class="fil5" /><path
     style="fill:#fefefe;fill-rule:nonzero"
     inkscape:connector-curvature="0"
     id="path430"
     d="m 1205649.5,497891.64 54502,-13737 829,3314 -54475,13728 c -276,-1108 -575,-2201 -856,-3305 z"
     class="fil5" /><path
     style="fill:#fefefe;fill-rule:nonzero"
     inkscape:connector-curvature="0"
     id="path432"
     d="m 1201192.5,481325.64 54075,-15335 925,3287 -54047,15328 c -308,-1099 -640,-2184 -953,-3280 z"
     class="fil5" /><path
     style="fill:#fefefe;fill-rule:nonzero"
     inkscape:connector-curvature="0"
     id="path434"
     d="m 1196246.5,464897.64 53599,-16921 1024,3259 -53573,16912 c -341,-1089 -706,-2162 -1050,-3250 z"
     class="fil5" /><path
     style="fill:#fefefe;fill-rule:nonzero"
     inkscape:connector-curvature="0"
     id="path436"
     d="m 1190818.5,448622.64 53078,-18491 1118,3227 -53052,18483 c -371,-1080 -767,-2143 -1144,-3219 z"
     class="fil5" /><path
     style="fill:#fefefe;fill-rule:nonzero"
     inkscape:connector-curvature="0"
     id="path438"
     d="m 1184915.5,432516.64 52512,-20048 1211,3194 -52483,20037 c -405,-1068 -832,-2120 -1240,-3183 z"
     class="fil5" /><path
     style="fill:#fefefe;fill-rule:nonzero"
     inkscape:connector-curvature="0"
     id="path440"
     d="m 1178539.5,416587.64 51897,-21583 1306,3156 -51871,21573 c -436,-1055 -893,-2093 -1332,-3146 z"
     class="fil5" /><path
     style="fill:#fefefe;fill-rule:nonzero"
     inkscape:connector-curvature="0"
     id="path442"
     d="m 1171698.5,400856.64 51239,-23102 1399,3116 -51214,23092 c -466,-1043 -953,-2066 -1424,-3106 z"
     class="fil5" /><path
     style="fill:#fefefe;fill-rule:nonzero"
     inkscape:connector-curvature="0"
     id="path444"
     d="m 1164396.5,385333.64 50536,-24603 1490,3075 -50512,24589 c -496,-1028 -1015,-2036 -1514,-3061 z"
     class="fil5" /><path
     style="fill:#fefefe;fill-rule:nonzero"
     inkscape:connector-curvature="0"
     id="path446"
     d="m 1156639.5,370031.64 49790,-26080 1580,3030 -49765,26067 c -527,-1014 -1074,-2007 -1605,-3017 z"
     class="fil5" /><path
     style="fill:#fefefe;fill-rule:nonzero"
     inkscape:connector-curvature="0"
     id="path448"
     d="m 1148434.5,354966.64 49001,-27536 1669,2981 -48976,27521 c -556,-996 -1133,-1973 -1694,-2966 z"
     class="fil5" /><path
     style="fill:#fefefe;fill-rule:nonzero"
     inkscape:connector-curvature="0"
     id="path450"
     d="m 1139792.5,340147.64 48168,-28965 1755,2929 -48145,28952 c -585,-980 -1189,-1940 -1778,-2916 z"
     class="fil5" /><path
     style="fill:#fefefe;fill-rule:nonzero"
     inkscape:connector-curvature="0"
     id="path452"
     d="m 1130717.5,325588.64 47294,-30372 1840,2878 -47271,30356 c -614,-962 -1246,-1903 -1863,-2862 z"
     class="fil5" /><path
     style="fill:#fefefe;fill-rule:nonzero"
     inkscape:connector-curvature="0"
     id="path454"
     d="m 1121214.5,311305.64 46380,-31752 1925,2823 -46357,31735 c -642,-945 -1302,-1866 -1948,-2806 z"
     class="fil5" /><path
     style="fill:#fefefe;fill-rule:nonzero"
     inkscape:connector-curvature="0"
     id="path456"
     d="m 1111296.5,297307.64 45424,-33104 2008,2765 -45402,33086 c -669,-925 -1356,-1827 -2030,-2747 z"
     class="fil5" /><path
     style="fill:#fefefe;fill-rule:nonzero"
     inkscape:connector-curvature="0"
     id="path458"
     d="m 1100972.5,283607.64 44429,-34428 2088,2705 -44408,34409 c -697,-904 -1411,-1786 -2109,-2686 z"
     class="fil5" /><path
     style="fill:#fefefe;fill-rule:nonzero"
     inkscape:connector-curvature="0"
     id="path460"
     d="m 1090246.5,270217.64 43397,-35721 2166,2642 -43375,35701 c -722,-883 -1462,-1743 -2188,-2622 z"
     class="fil5" /><path
     style="fill:#fefefe;fill-rule:nonzero"
     inkscape:connector-curvature="0"
     id="path462"
     d="m 1079132.5,257148.64 42327,-36982 2242,2575 -42305,36966 c -749,-864 -1512,-1701 -2264,-2559 z"
     class="fil5" /><path
     style="fill:#fefefe;fill-rule:nonzero"
     inkscape:connector-curvature="0"
     id="path464"
     d="m 1067638.5,244413.64 41219,-38213 2317,2509 -41197,38193 c -773,-839 -1562,-1654 -2339,-2489 z"
     class="fil5" /><path
     style="fill:#fefefe;fill-rule:nonzero"
     inkscape:connector-curvature="0"
     id="path466"
     d="m 1055775.5,232021.64 40074,-39411 2391,2441 -40054,39390 c -799,-816 -1611,-1608 -2411,-2420 z"
     class="fil5" /><path
     style="fill:#fefefe;fill-rule:nonzero"
     inkscape:connector-curvature="0"
     id="path468"
     d="m 1043551.5,219986.64 38896,-40573 2463,2369 -38879,40553 c -822,-793 -1657,-1560 -2480,-2349 z"
     class="fil5" /><path
     style="fill:#fefefe;fill-rule:nonzero"
     inkscape:connector-curvature="0"
     id="path470"
     d="m 1030977.5,208315.64 37686,-41702 2530,2296 -37667,41680 c -843,-767 -1702,-1511 -2549,-2274 z"
     class="fil5" /><path
     style="fill:#fefefe;fill-rule:nonzero"
     inkscape:connector-curvature="0"
     id="path472"
     d="m 1018066.5,197019.64 36441,-42793 2597,2219 -36423,42771 c -866,-742 -1746,-1459 -2615,-2197 z"
     class="fil5" /><path
     style="fill:#fefefe;fill-rule:nonzero"
     inkscape:connector-curvature="0"
     id="path474"
     d="m 1004827.5,186109.64 35165,-43848 2660,2143 -35146,43824 c -889,-717 -1789,-1407 -2679,-2119 z"
     class="fil5" /><path
     style="fill:#fefefe;fill-rule:nonzero"
     inkscape:connector-curvature="0"
     id="path476"
     d="m 991274.48,175593.64 33859.02,-44864 2723,2063 -33842.02,44841 c -910,-691 -1828,-1354 -2740,-2040 z"
     class="fil5" /><path
     style="fill:#fefefe;fill-rule:nonzero"
     inkscape:connector-curvature="0"
     id="path478"
     d="m 977416.48,165480.64 32523.02,-45842 2784,1981 -32507.02,45819 c -930,-663 -1868,-1301 -2800,-1958 z"
     class="fil5" /><path
     style="fill:#fefefe;fill-rule:nonzero"
     inkscape:connector-curvature="0"
     id="path480"
     d="m 963267.48,155780.64 31159,-46781 2840,1900 -31144,46756 c -948,-636 -1905,-1245 -2855,-1875 z"
     class="fil5" /><path
     style="fill:#fefefe;fill-rule:nonzero"
     inkscape:connector-curvature="0"
     id="path482"
     d="m 948837.48,146499.64 29769,-47676.997 2893,1813.997 -29754,47653 c -966,-608 -1940,-1188 -2908,-1790 z"
     class="fil5" /><path
     style="fill:#fefefe;fill-rule:nonzero"
     inkscape:connector-curvature="0"
     id="path484"
     d="m 934141.48,137648.64 28351,-48531.997 2946,1729 -28338,48506.997 c -983,-579 -1974,-1130 -2959,-1704 z"
     class="fil5" /><path
     style="fill:#fefefe;fill-rule:nonzero"
     inkscape:connector-curvature="0"
     id="path486"
     d="m 919190.48,129234.64 26910,-49345.997 2997,1640 -26897,49322.997 c -1000,-551 -2008,-1073 -3010,-1617 z"
     class="fil5" /><path
     style="fill:#fefefe;fill-rule:nonzero"
     inkscape:connector-curvature="0"
     id="path488"
     d="m 903998.48,121265.64 25445,-50116.997 3043,1552 -25434,50091.997 c -1014,-520 -2037,-1011 -3054,-1527 z"
     class="fil5" /><path
     style="fill:#fefefe;fill-rule:nonzero"
     inkscape:connector-curvature="0"
     id="path490"
     d="m 888578.48,113746.64 23958,-50844.997 3087,1461 -23945,50818.997 c -1032,-489 -2068,-950 -3100,-1435 z"
     class="fil5" /><path
     style="fill:#fefefe;fill-rule:nonzero"
     inkscape:connector-curvature="0"
     id="path492"
     d="m 872944.48,106684.64 22450,-51529.997 3129,1370 -22438,51501.997 c -1045,-459 -2095,-890 -3141,-1342 z"
     class="fil5" /><path
     style="fill:#fefefe;fill-rule:nonzero"
     inkscape:connector-curvature="0"
     id="path494"
     d="m 857108.48,100084.64 20925,-52166.997 3167,1278 -20913,52139.997 c -1058,-427 -2119,-828 -3179,-1251 z"
     class="fil5" /><path
     style="fill:#fefefe;fill-rule:nonzero"
     inkscape:connector-curvature="0"
     id="path496"
     d="m 841086.48,93955.643 19377,-52761 3204,1183 -19367,52735 c -1072,-396 -2145,-766 -3214,-1157 z"
     class="fil5" /><path
     style="fill:#fefefe;fill-rule:nonzero"
     inkscape:connector-curvature="0"
     id="path498"
     d="m 824887.48,88301.643 17816,-53308 3237,1088 -17805,53281 c -1083,-364 -2166,-702 -3248,-1061 z"
     class="fil5" /><path
     style="fill:#fefefe;fill-rule:nonzero"
     inkscape:connector-curvature="0"
     id="path500"
     d="m 808532.48,83124.643 16239,-53809 3267,991 -16230,53784 c -1091,-332 -2184,-638 -3276,-966 z"
     class="fil5" /><path
     style="fill:#fefefe;fill-rule:nonzero"
     inkscape:connector-curvature="0"
     id="path502"
     d="m 792031.48,78432.643 14647,-54265 3295,897 -14638,54238 c -1101,-301 -2202,-573 -3304,-870 z"
     class="fil5" /><path
     style="fill:#fefefe;fill-rule:nonzero"
     inkscape:connector-curvature="0"
     id="path504"
     d="m 775399.48,74230.643 13042,-54674 3321,800 -13036,54644 c -1110,-267 -2218,-507 -3327,-770 z"
     class="fil5" /><path
     style="fill:#fefefe;fill-rule:nonzero"
     inkscape:connector-curvature="0"
     id="path506"
     d="m 758649.48,70519.643 11426,-55034 3344,701 -11421,55005 c -1118,-236 -2232,-443 -3349,-672 z"
     class="fil5" /><path
     style="fill:#fefefe;fill-rule:nonzero"
     inkscape:connector-curvature="0"
     id="path508"
     d="m 741799.48,67300.643 9802,-55347 3362,603 -9797,55318 c -1123,-203 -2244,-376 -3367,-574 z"
     class="fil5" /><path
     style="fill:#fefefe;fill-rule:nonzero"
     inkscape:connector-curvature="0"
     id="path510"
     d="m 724860.48,64581.643 8168,-55610.9998 3379,503 -8163,55581.9998 c -1130,-169 -2254,-311 -3384,-474 z"
     class="fil5" /><path
     style="fill:#fefefe;fill-rule:nonzero"
     inkscape:connector-curvature="0"
     id="path512"
     d="m 707850.48,62360.643 6526,-55826.9998 3392,405 -6523,55797.9998 c -1134,-136 -2262,-244 -3395,-376 z"
     class="fil5" /><path
     style="fill:#fefefe;fill-rule:nonzero"
     inkscape:connector-curvature="0"
     id="path514"
     d="m 690780.48,60644.643 4879,-55995.9998 3402,303 -4876,55966.9998 c -1136,-103 -2269,-176 -3405,-274 z"
     class="fil5" /><path
     style="fill:#fefefe;fill-rule:nonzero"
     inkscape:connector-curvature="0"
     id="path516"
     d="m 673668.48,59429.643 3227,-56112.9998 3411,201 -3226,56086.9998 c -1140,-70 -2274,-110 -3412,-175 z"
     class="fil5" /><path
     style="fill:#fefefe;fill-rule:nonzero"
     inkscape:connector-curvature="0"
     id="path518"
     d="m 656528.48,58719.643 1573,-56184.9998 3416,102 -1574,56155.9998 c -1141,-35 -2276,-43 -3415,-73 z"
     class="fil5" /><path
     style="fill:#fefefe;fill-rule:nonzero"
     inkscape:connector-curvature="0"
     id="path520"
     d="m 639373.48,58516.643 -82,-56207.9998 3417,1 82,56179.9998 c -1143,-1 -2276,23 -3417,27 z"
     class="fil5" /><path
     style="fill:#fefefe;fill-rule:nonzero"
     inkscape:connector-curvature="0"
     id="path522"
     d="m 622221.48,58817.643 -1737,-56180.9998 3414,-99 1735,56151.9998 c -1141,31 -2274,90 -3412,128 z"
     class="fil5" /><path
     style="fill:#fefefe;fill-rule:nonzero"
     inkscape:connector-curvature="0"
     id="path524"
     d="m 605084.48,59622.643 -3390,-56104.9998 3410,-199 3387,56075.9998 c -1139,65 -2269,158 -3407,228 z"
     class="fil5" /><path
     style="fill:#fefefe;fill-rule:nonzero"
     inkscape:connector-curvature="0"
     id="path526"
     d="m 587979.48,60935.643 -5041,-55981.9998 3402,-300 5040,55951.9998 c -1138,100 -2266,225 -3401,330 z"
     class="fil5" /><path
     style="fill:#fefefe;fill-rule:nonzero"
     inkscape:connector-curvature="0"
     id="path528"
     d="m 570919.48,62745.643 -6688,-55806.9998 3394,-401 6683,55779.9998 c -1133,132 -2256,291 -3389,428 z"
     class="fil5" /><path
     style="fill:#fefefe;fill-rule:nonzero"
     inkscape:connector-curvature="0"
     id="path530"
     d="m 553922.48,65060.643 -8328,-55584.9998 3379,-501 8324,55558.9998 c -1129,166 -2247,358 -3375,527 z"
     class="fil5" /><path
     style="fill:#fefefe;fill-rule:nonzero"
     inkscape:connector-curvature="0"
     id="path532"
     d="m 536998.48,67875.643 -9962,-55318 3364,-599 9955,55288 c -1124,200 -2236,425 -3357,629 z"
     class="fil5" /><path
     style="fill:#fefefe;fill-rule:nonzero"
     inkscape:connector-curvature="0"
     id="path534"
     d="m 520166.48,71186.643 -11587,-55000 3344,-698 11580,54972 c -1118,232 -2223,490 -3337,726 z"
     class="fil5" /><path
     style="fill:#fefefe;fill-rule:nonzero"
     inkscape:connector-curvature="0"
     id="path536"
     d="m 503437.48,74992.643 -13199,-54636 3320,-795 13194,54608 c -1109,264 -2207,554 -3315,823 z"
     class="fil5" /><path
     style="fill:#fefefe;fill-rule:nonzero"
     inkscape:connector-curvature="0"
     id="path538"
     d="m 486829.48,79289.643 -14804,-54223 3297,-894 14796,54196 c -1101,297 -2189,618 -3289,921 z"
     class="fil5" /><path
     style="fill:#fefefe;fill-rule:nonzero"
     inkscape:connector-curvature="0"
     id="path540"
     d="m 470354.48,84072.643 -16394,-53763 3269,-991 16386,53736 c -1093,331 -2171,684 -3261,1018 z"
     class="fil5" /><path
     style="fill:#fefefe;fill-rule:nonzero"
     inkscape:connector-curvature="0"
     id="path542"
     d="m 454028.48,89337.643 -17970,-53256 3239,-1087 17960,53230 c -1082,363 -2150,747 -3229,1113 z"
     class="fil5" /><path
     style="fill:#fefefe;fill-rule:nonzero"
     inkscape:connector-curvature="0"
     id="path544"
     d="m 437861.48,95083.643 -19531,-52704 3206,-1181 19521,52678 c -1072,394 -2128,810 -3196,1207 z"
     class="fil5" /><path
     style="fill:#fefefe;fill-rule:nonzero"
     inkscape:connector-curvature="0"
     id="path546"
     d="m 421874.48,101302.64 -21075,-52106.997 3169,-1275 21065,52080.997 c -1060,424 -2103,872 -3159,1301 z"
     class="fil5" /><path
     style="fill:#fefefe;fill-rule:nonzero"
     inkscape:connector-curvature="0"
     id="path548"
     d="m 406076.48,107990.64 -22600,-51465.997 3131,-1367 22587,51438.997 c -1047,455 -2075,933 -3118,1394 z"
     class="fil5" /><path
     style="fill:#fefefe;fill-rule:nonzero"
     inkscape:connector-curvature="0"
     id="path550"
     d="m 390482.48,115138.64 -24106,-50775.997 3088,-1459 24094,50748.997 c -1034,488 -2048,995 -3076,1486 z"
     class="fil5" /><path
     style="fill:#fefefe;fill-rule:nonzero"
     inkscape:connector-curvature="0"
     id="path552"
     d="m 375103.48,122744.64 -25591,-50042.997 3044,-1550 25578,50018.997 c -1018,516 -2018,1055 -3031,1574 z"
     class="fil5" /><path
     style="fill:#fefefe;fill-rule:nonzero"
     inkscape:connector-curvature="0"
     id="path554"
     d="m 359956.48,130799.64 -27052,-49266.997 2997,-1639 27038,49242.997 c -1001,547 -1985,1114 -2983,1663 z"
     class="fil5" /><path
     style="fill:#fefefe;fill-rule:nonzero"
     inkscape:connector-curvature="0"
     id="path556"
     d="m 345055.48,139297.64 -28492,-48450.997 2948,-1727 28477,48425.997 c -986,576 -1951,1171 -2933,1752 z"
     class="fil5" /><path
     style="fill:#fefefe;fill-rule:nonzero"
     inkscape:connector-curvature="0"
     id="path558"
     d="m 330409.48,148229.64 -29907,-47591 2895,-1811.997 29892,47565.997 c -969,606 -1917,1230 -2880,1837 z"
     class="fil5" /><path
     style="fill:#fefefe;fill-rule:nonzero"
     inkscape:connector-curvature="0"
     id="path560"
     d="m 316032.48,157590.64 -31294,-46689 2842,-1897 31277,46666 c -950,632 -1878,1284 -2825,1920 z"
     class="fil5" /><path
     style="fill:#fefefe;fill-rule:nonzero"
     inkscape:connector-curvature="0"
     id="path562"
     d="m 301938.48,167370.64 -32656,-45747 2783,-1980 32640,45724 c -932,661 -1840,1339 -2767,2003 z"
     class="fil5" /><path
     style="fill:#fefefe;fill-rule:nonzero"
     inkscape:connector-curvature="0"
     id="path564"
     d="m 288137.48,177560.64 -33989,-44766 2725,-2060 33971,44743 c -912,687 -1800,1392 -2707,2083 z"
     class="fil5" /><path
     style="fill:#fefefe;fill-rule:nonzero"
     inkscape:connector-curvature="0"
     id="path566"
     d="m 274643.48,188152.64 -35293,-43746 2664,-2140 35273,43723 c -890,714 -1757,1446 -2644,2163 z"
     class="fil5" /><path
     style="fill:#fefefe;fill-rule:nonzero"
     inkscape:connector-curvature="0"
     id="path568"
     d="m 261466.48,199137.64 -36566,-42688 2599,-2218 36547,42666 c -870,741 -1715,1498 -2580,2240 z"
     class="fil5" /><path
     style="fill:#fefefe;fill-rule:nonzero"
     inkscape:connector-curvature="0"
     id="path570"
     d="m 248620.48,210506.64 -37807,-41592 2532,-2294 37787,41572 c -847,765 -1670,1545 -2512,2314 z"
     class="fil5" /><path
     style="fill:#fefefe;fill-rule:nonzero"
     inkscape:connector-curvature="0"
     id="path572"
     d="m 236111.48,222247.64 -39015,-40460 2464,-2367 38995,40440 c -823,790 -1624,1595 -2444,2387 z"
     class="fil5" /><path
     style="fill:#fefefe;fill-rule:nonzero"
     inkscape:connector-curvature="0"
     id="path574"
     d="m 223957.48,234353.64 -40189,-39294 2392,-2437 40169,39274 c -800,814 -1577,1640 -2372,2457 z"
     class="fil5" /><path
     style="fill:#fefefe;fill-rule:nonzero"
     inkscape:connector-curvature="0"
     id="path576"
     d="m 212164.48,246810.64 -41329,-38093 2319,-2508 41309,38074 c -777,837 -1527,1687 -2299,2527 z"
     class="fil5" /><path
     style="fill:#fefefe;fill-rule:nonzero"
     inkscape:connector-curvature="0"
     id="path578"
     d="m 200741.48,259610.64 -42433,-36860 2246,-2576 42410,36842 c -750,861 -1476,1732 -2223,2594 z"
     class="fil5" /><path
     style="fill:#fefefe;fill-rule:nonzero"
     inkscape:connector-curvature="0"
     id="path580"
     d="m 189702.48,272741.64 -43502,-35595 2168,-2640 43478,35576 c -725,882 -1424,1775 -2144,2659 z"
     class="fil5" /><path
     style="fill:#fefefe;fill-rule:nonzero"
     inkscape:connector-curvature="0"
     id="path582"
     d="m 179051.48,286191.64 -44529,-34298 2089,-2704 44508,34282 c -700,902 -1372,1815 -2068,2720 z"
     class="fil5" /><path
     style="fill:#fefefe;fill-rule:nonzero"
     inkscape:connector-curvature="0"
     id="path584"
     d="m 168804.48,299949.64 -45521,-32973 2009,-2763 45498,32956 c -674,922 -1319,1855 -1986,2780 z"
     class="fil5" /><path
     style="fill:#fefefe;fill-rule:nonzero"
     inkscape:connector-curvature="0"
     id="path586"
     d="m 158965.48,314001.64 -46473,-31616 1929,-2822 46447,31602 c -645,942 -1264,1893 -1903,2836 z"
     class="fil5" /><path
     style="fill:#fefefe;fill-rule:nonzero"
     inkscape:connector-curvature="0"
     id="path588"
     d="m 149544.48,328338.64 -47383,-30234 1844,-2876 47357,30219 c -617,962 -1206,1930 -1818,2891 z"
     class="fil5" /><path
     style="fill:#fefefe;fill-rule:nonzero"
     inkscape:connector-curvature="0"
     id="path590"
     d="m 140549.48,342946.64 -48252.996,-28826 1757,-2930 48227.996,28813 c -587,979 -1150,1964 -1732,2943 z"
     class="fil5" /><path
     style="fill:#fefefe;fill-rule:nonzero"
     inkscape:connector-curvature="0"
     id="path592"
     d="m 131987.48,357814.64 -49079.996,-27393 1670,-2979 49054.996,27379 c -559,995 -1090,1998 -1645,2993 z"
     class="fil5" /><path
     style="fill:#fefefe;fill-rule:nonzero"
     inkscape:connector-curvature="0"
     id="path594"
     d="m 123868.48,372928.64 -49864.996,-25936 1582,-3027 49839.996,25922 c -530,1011 -1031,2028 -1557,3041 z"
     class="fil5" /><path
     style="fill:#fefefe;fill-rule:nonzero"
     inkscape:connector-curvature="0"
     id="path596"
     d="m 116197.48,388271.64 -50607.996,-24456 1492,-3073 50581.996,24445 c -499,1026 -972,2058 -1466,3084 z"
     class="fil5" /><path
     style="fill:#fefefe;fill-rule:nonzero"
     inkscape:connector-curvature="0"
     id="path598"
     d="m 108982.48,403836.64 -51304.996,-22956 1401,-3114 51277.996,22942 c -469,1042 -910,2086 -1374,3128 z"
     class="fil5" /><path
     style="fill:#fefefe;fill-rule:nonzero"
     inkscape:connector-curvature="0"
     id="path600"
     d="m 102228.48,419605.64 -51958.996,-21434 1309,-3156 51932.996,21424 c -440,1055 -849,2113 -1283,3166 z"
     class="fil5" /><path
     style="fill:#fefefe;fill-rule:nonzero"
     inkscape:connector-curvature="0"
     id="path602"
     d="m 95941.484,435569.64 -52568,-19895 1215,-3192 52541,19885 c -407,1066 -785,2136 -1188,3202 z"
     class="fil5" /><path
     style="fill:#fefefe;fill-rule:nonzero"
     inkscape:connector-curvature="0"
     id="path604"
     d="m 90127.484,451708.64 -53132,-18338 1121,-3228 53104,18330 c -376,1078 -724,2158 -1093,3236 z"
     class="fil5" /><path
     style="fill:#fefefe;fill-rule:nonzero"
     inkscape:connector-curvature="0"
     id="path606"
     d="m 84792.484,468014.64 -53648,-16766 1025,-3259 53621,16758 c -344,1088 -659,2177 -998,3267 z"
     class="fil5" /><path
     style="fill:#fefefe;fill-rule:nonzero"
     inkscape:connector-curvature="0"
     id="path608"
     d="m 79937.484,484469.64 -54120,-15179 930,-3287 54090,15170 c -311,1098 -593,2198 -900,3296 z"
     class="fil5" /><path
     style="fill:#fefefe;fill-rule:nonzero"
     inkscape:connector-curvature="0"
     id="path610"
     d="m 75571.484,501058.64 -54543,-13578 832,-3312 54514,13571 c -279,1107 -529,2213 -803,3319 z"
     class="fil5" /><path
     style="fill:#fefefe;fill-rule:nonzero"
     inkscape:connector-curvature="0"
     id="path612"
     d="m 71694.484,517771.64 -54918,-11967 733,-3337 54891,11962 c -247,1114 -464,2227 -706,3342 z"
     class="fil5" /><path
     style="fill:#fefefe;fill-rule:nonzero"
     inkscape:connector-curvature="0"
     id="path614"
     d="m 68314.484,534590.64 -55248,-10343 635,-3357 55218,10339 c -212,1122 -397,2241 -605,3361 z"
     class="fil5" /><path
     style="fill:#fefefe;fill-rule:nonzero"
     inkscape:connector-curvature="0"
     id="path616"
     d="m 65428.484,551502.64 -55527.9998,-8712 535.9998,-3374 55499,8707 c -180,1128 -331,2251 -507,3379 z"
     class="fil5" /><path
     style="fill:#fefefe;fill-rule:nonzero"
     inkscape:connector-curvature="0"
     id="path618"
     d="m 63040.484,568489.64 -55759.9998,-7074 436,-3388 55731.9998,7070 c -147,1133 -266,2261 -408,3392 z"
     class="fil5" /><path
     style="fill:#fefefe;fill-rule:nonzero"
     inkscape:connector-curvature="0"
     id="path620"
     d="m 61155.484,585541.64 -55942.9998,-5429 336,-3400 55914.9998,5427 c -113,1136 -199,2266 -308,3402 z"
     class="fil5" /><path
     style="fill:#fefefe;fill-rule:nonzero"
     inkscape:connector-curvature="0"
     id="path622"
     d="m 59775.484,602641.64 -56079.9998,-3778 236,-3409 56051.9998,3777 c -80,1139 -133,2272 -208,3410 z"
     class="fil5" /><path
     style="fill:#fefefe;fill-rule:nonzero"
     inkscape:connector-curvature="0"
     id="path624"
     d="m 58898.484,619774.64 -56167.9998,-2126 136,-3413 56137.9998,2124 c -46,1141 -64,2276 -106,3415 z"
     class="fil5" /><path
     style="fill:#fefefe;fill-rule:nonzero"
     inkscape:connector-curvature="0"
     id="path626"
     d="m 58524.484,636924.64 -56204.9998,-469 35,-3417 56175.9998,471 c -13,1141 2,2276 -6,3415 z"
     class="fil5" /><path
     style="fill:#fefefe;fill-rule:nonzero"
     inkscape:connector-curvature="0"
     id="path628"
     d="m 58657.484,654079.64 -56194.9998,1185 -65,-3415 56164.9998,-1183 c 22,1141 70,2274 95,3413 z"
     class="fil5" /><path
     style="fill:#fefefe;fill-rule:nonzero"
     inkscape:connector-curvature="0"
     id="path630"
     d="m 59297.484,671223.64 -56135.9998,2840 -167,-3412 56106.9998,-2839 c 55,1142 136,2273 196,3411 z"
     class="fil5" /><path
     style="fill:#fefefe;fill-rule:nonzero"
     inkscape:connector-curvature="0"
     id="path632"
     d="m 60440.484,688341.64 -56027.9998,4492 -266,-3405 55997.9998,-4489 c 88,1138 203,2266 296,3402 z"
     class="fil5" /><path
     style="fill:#fefefe;fill-rule:nonzero"
     inkscape:connector-curvature="0"
     id="path634"
     d="m 62087.484,705418.64 -55869.9998,6139 -366,-3397 55841.9998,-6136 c 121,1137 269,2261 394,3394 z"
     class="fil5" /><path
     style="fill:#fefefe;fill-rule:nonzero"
     inkscape:connector-curvature="0"
     id="path636"
     d="m 64235.484,722438.64 -55665.9998,7781 -466,-3384 55637.9998,-7777 c 154,1131 336,2251 494,3380 z"
     class="fil5" /><path
     style="fill:#fefefe;fill-rule:nonzero"
     inkscape:connector-curvature="0"
     id="path638"
     d="m 66882.484,739387.64 -55413,9418 -566,-3369 55385,-9413 c 188,1127 401,2241 594,3364 z"
     class="fil5" /><path
     style="fill:#fefefe;fill-rule:nonzero"
     inkscape:connector-curvature="0"
     id="path640"
     d="m 70026.484,756253.64 -55110,11046 -666,-3350 55084,-11040 c 221,1119 467,2227 692,3344 z"
     class="fil5" /><path
     style="fill:#fefefe;fill-rule:nonzero"
     inkscape:connector-curvature="0"
     id="path642"
     d="m 73667.484,773017.64 -54762,12665 -764,-3331 54734,-12656 c 255,1113 535,2212 792,3322 z"
     class="fil5" /><path
     style="fill:#fefefe;fill-rule:nonzero"
     inkscape:connector-curvature="0"
     id="path644"
     d="m 77800.484,789669.64 -54365,14271 -862,-3306 54338,-14263 c 287,1104 598,2195 889,3298 z"
     class="fil5" /><path
     style="fill:#fefefe;fill-rule:nonzero"
     inkscape:connector-curvature="0"
     id="path646"
     d="m 82420.484,806191.64 -53923,15864 -958,-3279 53896,-15856 c 317,1095 662,2176 985,3271 z"
     class="fil5" /><path
     style="fill:#fefefe;fill-rule:nonzero"
     inkscape:connector-curvature="0"
     id="path648"
     d="m 87528.484,822567.64 -53431,17446 -1055,-3249 53405,-17438 c 351,1087 725,2158 1081,3241 z"
     class="fil5" /><path
     style="fill:#fefefe;fill-rule:nonzero"
     inkscape:connector-curvature="0"
     id="path650"
     d="m 93113.484,838787.64 -52894,19013 -1150,-3217 52866,-19002 c 385,1075 791,2135 1178,3206 z"
     class="fil5" /><path
     style="fill:#fefefe;fill-rule:nonzero"
     inkscape:connector-curvature="0"
     id="path652"
     d="m 99174.484,854836.64 -52311,20562 -1244,-3182 52285,-20551 c 415,1065 852,2111 1270,3171 z"
     class="fil5" /><path
     style="fill:#fefefe;fill-rule:nonzero"
     inkscape:connector-curvature="0"
     id="path654"
     d="m 105707.48,870700.64 -51682.996,22093 -1338,-3145 51655.996,-22081 c 446,1052 914,2085 1365,3133 z"
     class="fil5" /><path
     style="fill:#fefefe;fill-rule:nonzero"
     inkscape:connector-curvature="0"
     id="path656"
     d="m 112702.48,886363.64 -51008.996,23606 -1429,-3102 50983.996,-23593 c 476,1036 973,2056 1454,3089 z"
     class="fil5" /><path
     style="fill:#fefefe;fill-rule:nonzero"
     inkscape:connector-curvature="0"
     id="path658"
     d="m 120157.48,901814.64 -50292.996,25097 -1520,-3059 50266.996,-25084 c 508,1023 1035,2027 1546,3046 z"
     class="fil5" /><path
     style="fill:#fefefe;fill-rule:nonzero"
     inkscape:connector-curvature="0"
     id="path660"
     d="m 128060.48,917040.64 -49531.996,26567 -1608,-3013 49506.996,-26554 c 535,1008 1093,1996 1633,3000 z"
     class="fil5" /><path
     style="fill:#fefefe;fill-rule:nonzero"
     inkscape:connector-curvature="0"
     id="path662"
     d="m 136412.48,932025.64 -48728.996,28015 -1697,-2964 48703.996,-28000 c 565,991 1153,1961 1722,2949 z"
     class="fil5" /><path
     style="fill:#fefefe;fill-rule:nonzero"
     inkscape:connector-curvature="0"
     id="path664"
     d="m 145200.48,946758.64 -47880.996,29438 -1784,-2913 47856.996,-29423 c 596,975 1210,1928 1808,2898 z"
     class="fil5" /><path
     style="fill:#fefefe;fill-rule:nonzero"
     inkscape:connector-curvature="0"
     id="path666"
     d="m 154418.48,961226.64 -46993,30835 -1870,-2859 46972,-30819 c 624,955 1266,1890 1891,2843 z"
     class="fil5" /><path
     style="fill:#fefefe;fill-rule:nonzero"
     inkscape:connector-curvature="0"
     id="path668"
     d="m 164059.48,975414.64 -46065,32204.96 -1953,-2803 46043,-32188.96 c 651,938 1321,1853 1975,2787 z"
     class="fil5" /><path
     style="fill:#fefefe;fill-rule:nonzero"
     inkscape:connector-curvature="0"
     id="path670"
     d="m 174114.48,989315.64 -45097,33547.96 -2035,-2745 45076,-33531.96 c 678,919 1374,1814 2056,2729 z"
     class="fil5" /><path
     style="fill:#fefefe;fill-rule:nonzero"
     inkscape:connector-curvature="0"
     id="path672"
     d="m 184573.48,1002913.6 -44090,34862 -2115,-2683 44069,-34844 c 705,898 1427,1772 2136,2665 z"
     class="fil5" /><path
     style="fill:#fefefe;fill-rule:nonzero"
     inkscape:connector-curvature="0"
     id="path674"
     d="m 195430.48,1016197.6 -43046,36143 -2191,-2620 43022,-36125 c 732,877 1479,1728 2215,2602 z"
     class="fil5" /><path
     style="fill:#fefefe;fill-rule:nonzero"
     inkscape:connector-curvature="0"
     id="path676"
     d="m 206670.48,1029155.6 -41960,37396 -2268,-2554 41939,-37378 c 757,855 1531,1685 2289,2536 z"
     class="fil5" /><path
     style="fill:#fefefe;fill-rule:nonzero"
     inkscape:connector-curvature="0"
     id="path678"
     d="m 218289.48,1041776.6 -40841,38617 -2343,-2487 40822,-38595 c 782,832 1578,1638 2362,2465 z"
     class="fil5" /><path
     style="fill:#ffffff;fill-rule:nonzero"
     inkscape:connector-curvature="0"
     id="path682"
     d="m 96178.484,755467.64 -59047,11860 c -668,-3200 -1306,-6411 -1916,-9622 l 59039,-11861 c 608,3212 1255,6418 1924,9623 z m 1091580.016,-9622 62828,12434 c -612,3211 -1265,6416 -1932,9617 l -62817,-12429 c 667,-3202 1314,-6411 1921,-9622 z m -241614.02,-569234 35301,-53117 c 2714,1795 5424,3610 8125,5450 l -35311,53139 c -2695,-1845 -5392,-3685 -8115,-5472 z m -618390,5472 -35017,-52146 c 2698,-1843 5406,-3661 8131,-5454 l 35001,52128 c -2723,1789 -5420,3627 -8115,5472 z m 709931.02,849667.96 52813,52816 -6938,6939 -52812,-52817 c 1166,-1145 2352,-2265 3510,-3424 1161,-1161 2284,-2342 3427,-3514 z m 115337,-607118.96 68880,-28529 3720,9047 -68837,28514 c -1216,-3026 -2488,-6030 -3763,-9032 z M 636102.48,85930.643 l 0,-74694 9809,0 0,74694 c -3271,-30 -6538,-30 -9809,0 z m -510875,347733.997 -68835.996,-28514 3720,-9047 68878.996,28529 c -1274,3005 -2547,6008 -3763,9032 z m 118688,598810.96 -52816,52813 6939,6940 52811,-52817 c -1164,-1148 -2349,-2266 -3507,-3426 -1161,-1159 -2284,-2342 -3427,-3510 z"
     class="fil14" /><path
     style="fill:#fefefe;fill-rule:nonzero"
     inkscape:connector-curvature="0"
     id="path688"
     d="m 300185.48,1017820.6 c 0,7174 -1443,12799 -4341,16864 -2886,4056 -6857,6089 -11913,6089 -5130,0 -9111,-2053 -11956,-6154 -2855,-4107 -4277,-9866 -4277,-17294 0,-7365 1442,-13104 4319,-17215 2876,-4117.96 6879,-6170.96 11998,-6170.96 5183,0 9174,2065 11977,6183.96 2792,4129 4193,10027 4193,17697 z m -16380,16633 c 3001,0 5267,-1434 6772,-4310 1518,-2863 2276,-7160 2276,-12882 0,-5553 -748,-9786 -2244,-12694 -1486,-2918 -3665,-4369 -6531,-4369 -2981,0 -5236,1451 -6763,4349 -1527,2906 -2286,7183 -2286,12841 0,5486 759,9712 2276,12650 1506,2938 3677,4415 6500,4415 z"
     class="fil5" /><path
     style="fill:#fefefe;fill-rule:nonzero"
     inkscape:connector-curvature="0"
     id="path718"
     d="m 1156592.5,912090.64 49584,26525 c -1590,3013 -3206,6017 -4848,9015 l -49597,-26535 c 1641,-2996 3279,-5989 4861,-9005 z"
     class="fil5" /><path
     style="fill:#fefefe;fill-rule:nonzero"
     inkscape:connector-curvature="0"
     id="path720"
     d="m 1220305.5,579961.64 55963,-5493 c 351,3389 678,6784 977,10189 l -55980,5494 c -300,-3404 -601,-6805 -960,-10190 z"
     class="fil5" /><path
     style="fill:#fefefe;fill-rule:nonzero"
     inkscape:connector-curvature="0"
     id="path722"
     d="m 1088757.5,268409.64 43482,-35658 c 2174,2622 4330,5264 6473,7927 l -43495,35668 c -2139,-2662 -4279,-5322 -6460,-7937 z"
     class="fil5" /><path
     style="fill:#fefefe;fill-rule:nonzero"
     inkscape:connector-curvature="0"
     id="path724"
     d="m 806292.48,82447.643 16343,-53806 c 3264,971 6524,1970 9785,2996 l -16346,53821 c -3259,-1027 -6517,-2050 -9782,-3011 z"
     class="fil5" /><path
     style="fill:#fefefe;fill-rule:nonzero"
     inkscape:connector-curvature="0"
     id="path726"
     d="m 468115.48,84752.643 -16305,-53815 c 3254,-1007 6521,-1988 9802,-2947 l 16308,53833 c -3279,958 -6554,1916 -9805,2929 z"
     class="fil5" /><path
     style="fill:#fefefe;fill-rule:nonzero"
     inkscape:connector-curvature="0"
     id="path728"
     d="m 188213.48,274553.64 -43457,-35688 c 2148,-2645 4319,-5275 6513,-7895 l 43468,35699 c -2194,2618 -4385,5235 -6524,7884 z"
     class="fil5" /><path
     style="fill:#fefefe;fill-rule:nonzero"
     inkscape:connector-curvature="0"
     id="path730"
     d="m 60929.484,587871.64 -55959.9998,-5531 c 316,-3392 660,-6786 1030,-10183 l 55974.9998,5533 c -369,3397 -737,6789 -1045,10181 z"
     class="fil5" /><path
     style="fill:#fefefe;fill-rule:nonzero"
     inkscape:connector-curvature="0"
     id="path732"
     d="m 129167.48,919101.64 -49601.996,26489 c -1621,-2996 -3221,-6007 -4801,-9038 l 49616.996,-26498 c 1578,3030 3157,6056 4786,9047 z"
     class="fil5" /><polygon
     style="fill:#ffffff;fill-rule:nonzero"
     id="polygon738"
     points="2662132,1035564 2655429,1035564 2655429,996614 2646071,996614 2648916,990797 2662132,990797 "
     class="fil14"
     transform="translate(-2522490.5,-267913.36)" /><path
     style="fill:#ffffff;fill-rule:nonzero"
     inkscape:connector-curvature="0"
     id="path740"
     d="m 190409.48,464890.64 0,5881 -30288,0 16904,-20223 c 2098,-2530 3625,-4753 4595,-6671 970,-1908 1454,-3647 1454,-5217 0,-2234 -664,-4004 -1991,-5290 -1328,-1286 -3151,-1928 -5449,-1928 -2066,0 -3763,642 -5100,1928 -1339,1296 -2086,2983 -2256,5090 l -7082,0 c 0,-4057 1359,-7293 4079,-9717 2718,-2412 6365,-3625 10960,-3625 4362,0 7809,1118 10328,3362 2518,2245 3783,5301 3783,9168 0,2750 -727,5534 -2171,8347 -1454,2803 -4522,6882 -9210,12236 l -5745,6659 17189,0 z"
     class="fil14" /><path
     style="fill:#ffffff;fill-rule:nonzero"
     inkscape:connector-curvature="0"
     id="path742"
     d="m 339233.48,232242.64 7018,0 0,369 c 0,2087 707,3742 2130,4985 1422,1234 3350,1855 5786,1855 2740,0 4858,-684 6343,-2055 1497,-1369 2244,-3341 2244,-5912 0,-2697 -768,-4732 -2297,-6101 -1537,-1371 -3835,-2056 -6881,-2056 -148,0 -369,12 -675,32 -316,21 -547,31 -715,31 l 0,-5942 c 146,0 367,10 663,31 305,20 526,32 664,32 2687,0 4700,-559 6059,-1687 1359,-1116 2044,-2771 2044,-4952 0,-1929 -610,-3467 -1843,-4605 -1223,-1150 -2866,-1719 -4922,-1719 -2213,0 -3930,528 -5184,1592 -1245,1063 -1898,2561 -1962,4479 l -6627,0 c 211,-3847 1517,-6808 3931,-8864 2402,-2054 5752,-3088 10031,-3088 4143,0 7420,1075 9844,3236 2414,2161 3625,5079 3625,8767 0,2772 -686,5059 -2055,6829 -1371,1782 -3267,2857 -5701,3226 2855,516 5037,1770 6533,3771 1486,1993 2234,4639 2234,7936 0,4016 -1401,7198 -4215,9559 -2804,2351 -6608,3530 -11403,3530 -4342,0 -7850,-1201 -10505,-3593 -2645,-2403 -4038,-5628 -4164,-9686 z"
     class="fil14" /><path
     style="fill:#ffffff;fill-rule:nonzero"
     inkscape:connector-curvature="0"
     id="path744"
     d="m 642196.48,126722.64 -11529,16240 11339,0 0,-11760 c 0,-622 10,-1308 42,-2066 31,-759 85,-1571 148,-2414 z m -190,30530 0,-9168 -21688,0 26325,-36484 2066,0 0,31362 5500,0 0,5122 -5500,0 0,9168 -6703,0 z"
     class="fil14" /><path
     style="fill:#ffffff;fill-rule:nonzero"
     inkscape:connector-curvature="0"
     id="path746"
     d="m 921686.48,236914.64 c 1054,1939 2403,3425 4047,4446 1654,1033 3489,1549 5500,1549 2994,0 5407,-948 7262,-2855 1854,-1908 2781,-4416 2781,-7524 0,-2993 -968,-5417 -2918,-7293 -1950,-1875 -4500,-2813 -7651,-2813 -1898,0 -3646,326 -5270,969 -1612,653 -3034,1613 -4277,2898 l -1823,-410 5626,-22933 21362,0 0,5944 -16945,0 -2657,9980 c 1233,-506 2435,-885 3583,-1138 1148,-243 2298,-369 3457,-369 4299,0 7798,1380 10486,4142 2697,2750 4046,6343 4046,10770 0,5057 -1571,9105 -4722,12119 -3150,3013 -7366,4520 -12656,4520 -3129,0 -5848,-537 -8157,-1622 -2297,-1076 -4289,-2740 -5954,-5005 l 4880,-5375 z"
     class="fil14" /><path
     style="fill:#ffffff;fill-rule:nonzero"
     inkscape:connector-curvature="0"
     id="path748"
     d="m 1112702.5,459294.64 c 0,2708 748,4879 2255,6523 1496,1653 3446,2475 5828,2475 2698,0 4816,-800 6355,-2412 1549,-1602 2317,-3805 2317,-6586 0,-2815 -758,-5028 -2285,-6630 -1518,-1590 -3625,-2392 -6324,-2392 -2402,0 -4363,833 -5881,2509 -1507,1665 -2265,3836 -2265,6513 z m 4100,-13585 c 1012,-465 2002,-832 2982,-1075 979,-243 1949,-369 2919,-369 4036,0 7367,1370 9980,4110 2614,2730 3920,6229 3920,10496 0,4648 -1464,8390 -4406,11234 -2929,2835 -6795,4257 -11592,4257 -4488,0 -8103,-1390 -10833,-4162 -2728,-2781 -4089,-6440 -4089,-10960 0,-4837 3299,-11888 9885,-21151 l 802,-1084 7904,-11203 5616,2845 -13088,17062 z"
     class="fil14" /><polygon
     style="fill:#ffffff;fill-rule:nonzero"
     id="polygon750"
     points="3668521,1044526 3662567,1041861 3681041,1003869 3660123,1003869 3660123,998052 3691296,998052 "
     class="fil14"
     transform="translate(-2522490.5,-267913.36)" /><path
     style="fill:#ffffff;fill-rule:nonzero"
     inkscape:connector-curvature="0"
     id="path752"
     d="m 996409.48,998468.64 c -2244,-968 -3899,-2234 -4942,-3793 -1055,-1561 -1581,-3520 -1581,-5871 0,-3613 1275,-6543 3825,-8767 2560,-2224 5934,-3331 10138.02,-3331 4300,0 7714,1128 10254,3384 2529,2254 3793,5259 3793,9030 0,2224 -547,4132 -1653,5723 -1106,1592 -2730,2803 -4870,3625 2519,822 4479,2276.96 5901,4372.96 1424,2087 2140,4554 2140,7388 0,4153 -1369,7418 -4119,9779 -2752,2372 -6567,3552 -11446,3552 -4806.02,0 -8577.02,-1180 -11339.02,-3552 -2762,-2361 -4142,-5585 -4142,-9652 0,-2961 707,-5480 2107,-7546 1403,-2065 3384,-3519.96 5934,-4341.96 z m 7588.02,-15818 c -2139,0 -3815,559 -5049.02,1687 -1233,1116 -1853,2645 -1853,4583 0,1897 600,3384 1801,4459 1202.02,1063 2855.02,1602 4953.02,1602 2149,0 3836,-527 5037,-1592 1202,-1065 1802,-2550 1802,-4469 0,-1949 -600,-3488 -1792,-4604 -1189,-1107 -2823,-1666 -4899,-1666 z m -148,34902.96 c 2645,0 4731,-696 6229,-2087 1507,-1390 2254,-3308 2254,-5754 0,-2465 -747,-4403 -2254,-5806 -1498,-1402 -3584,-2098 -6229,-2098 -2592,0 -4648.02,707 -6144.02,2130 -1507,1422 -2255,3340 -2255,5774 0,2446 738,4364 2224,5754 1475,1391 3540.02,2087 6175.02,2087 z"
     class="fil14" /><path
     style="fill:#ffffff;fill-rule:nonzero"
     inkscape:connector-curvature="0"
     id="path754"
     d="m 497453.48,1134941.6 -14109,-4521 c -1661,-530 -2885,-1534 -3695,-3003 -804,-1471 -943,-3028 -413,-4682 l 2146,-6684 c 531,-1652 1547,-2841 3060,-3570 1509,-724 3089,-820 4743,-290 l 14109,4522 -1363,4249 -14109,-4527 c -1138,-364 -1868,-40 -2189,978 l -2148,6686 c -326,1014 78,1702 1215,2065 l 14117,4528 -1364,4249 z"
     class="fil14" /><polygon
     style="fill:#ffffff;fill-rule:nonzero"
     id="polygon756"
     points="3307322,1402799 3301137,1384689 3305349,1383253 3307716,1390184 3318595,1386464 3316229,1379535 3320476,1378084 3326660,1396194 3322411,1397643 3320034,1390676 3309152,1394392 3311533,1401361 "
     class="fil14"
     transform="translate(-2522490.5,-267913.36)" /><path
     style="fill:#fefefe;fill-rule:nonzero"
     inkscape:connector-curvature="0"
     id="path758"
     d="m 646303.48,1107006.6 0,28847 c 1551,867 2865,2101 3828,3583 1105,1705 1749,3735 1749,5906 0,3004 -1218,5723 -3185,7689 l -3,-3 c -1970,1968 -4690,3187 -7686,3187 -2996,0 -5714,-1219 -7684,-3187 l -3,3 c -1968,-1966 -3184,-4685 -3184,-7689 0,-2171 642,-4202 1750,-5907 963,-1484 2279,-2717 3828,-3582 l 0,-28847 c 0,-1454 595,-2777 1554,-3736 l 0,-5 c 958,-959 2282,-1554 3739,-1554 l 2,0 c 1454,0 2777,595 3736,1554 962,961 1559,2285 1559,3741 z m -2923,29742 0,-29742 c 0,-654 -266,-1248 -692,-1674 -431,-429 -1026,-697 -1680,-697 l -2,0 c -650,0 -1242,267 -1672,697 l -3,-3 c -427,429 -694,1023 -694,1677 l 0,29742 0,941 -868,388 c -1411,631 -2607,1660 -3440,2946 -804,1238 -1271,2722 -1271,4319 0,2196 891,4184 2329,5621 l 0,7 c 1434,1434 3422,2321 5619,2321 2200,0 4188,-887 5620,-2321 l 0,-7 c 1439,-1437 2329,-3425 2329,-5621 0,-1597 -466,-3081 -1269,-4319 -834,-1286 -2028,-2315 -3439,-2946 l -867,-388 0,-941 z"
     class="fil18" /><path
     style="fill:#ffffff;fill-opacity:1"
     inkscape:connector-curvature="0"
     id="path760"
     d="m 641717.48,1138767.6 0,-8595 -1416,0 0,8597 -1853,827 c -1113,497 -2061,1311 -2724,2332 -662,1020 -1003,2200 -1003,3414 0,1675 661,3261 1844,4447 1182,1184 2768,1838 4441,1838 1671,0 3261,-649 4442,-1832 1185,-1187 1843,-2774 1843,-4453 0,-1214 -339,-2394 -1001,-3414 -662,-1021 -1610,-1835 -2722,-2332 l -1851,-829 z"
     class="fil16" /><path
     style="fill:#ffffff;fill-rule:nonzero"
     inkscape:connector-curvature="0"
     id="path762"
     d="m 644751.48,1130789.6 3256,0 0,1267 -3256,0 0,-1267 z m 0,-3392 3256,0 0,1267 -3256,0 0,-1267 z m 0,-3392 3256,0 0,1267 -3256,0 0,-1267 z m 0,-3392 3256,0 0,1267 -3256,0 0,-1267 z m 0,-3392 3256,0 0,1267 -3256,0 0,-1267 z m 0,-3393 3256,0 0,1268 -3256,0 0,-1268 z m 0,-3392 3256,0 0,1268 -3256,0 0,-1268 z"
     class="fil14" /><path
     style="fill:#ffffff;fill-rule:nonzero"
     inkscape:connector-curvature="0"
     id="path764"
     d="m 623346.48,1144299.6 0,38 c 10,444 194,845 484,1135 297,299 715,486 1174,486 459,0 875,-187 1173,-485 291,-291 476,-692 486,-1136 l 0,-38 1267,0 0,38 c 10,444 195,845 485,1135 297,299 715,486 1174,486 459,0 875,-187 1173,-485 291,-291 476,-692 486,-1136 l 0,-38 1267,0 0,38 c 10,444 195,845 484,1135 l 114,105 c 15,519 78,1026 188,1515 -456,-143 -864,-396 -1193,-725 l -227,-255 -224,253 c -531,531 -1263,860 -2068,860 -803,0 -1537,-329 -2066,-858 l -226,-255 -225,253 c -531,531 -1263,860 -2068,860 -803,0 -1537,-329 -2066,-858 l -226,-255 -225,253 c -531,531 -1263,860 -2068,860 -803,0 -1537,-329 -2066,-858 -531,-531 -860,-1263 -860,-2068 l 1268,0 c 0,459 186,875 484,1173 298,299 715,486 1174,486 459,0 875,-187 1173,-485 291,-291 476,-692 486,-1136 l 0,-38 1268,0 z m 25624,1214 42,-40 c 291,-291 475,-692 485,-1136 l 0,-38 1268,0 0,38 c 10,444 195,845 484,1135 298,299 715,486 1175,486 459,0 875,-187 1172,-485 292,-291 476,-692 486,-1136 l 0,-38 1268,0 0,38 c 10,444 195,845 484,1135 298,299 715,486 1175,486 459,0 875,-187 1172,-485 291,-291 476,-692 486,-1136 l 0,-38 1268,0 0,38 c 10,444 194,845 484,1135 298,299 715,486 1174,486 460,0 875,-187 1173,-485 300,-299 486,-715 486,-1174 l 1268,0 c 0,805 -330,1537 -859,2066 -530,531 -1262,860 -2068,860 -803,0 -1537,-329 -2066,-858 l -226,-255 -225,253 c -530,531 -1262,860 -2067,860 -804,0 -1538,-329 -2067,-858 l -226,-255 -225,253 c -530,531 -1262,860 -2067,860 -804,0 -1538,-329 -2067,-858 l -226,-255 -224,253 c -313,313 -694,554 -1120,702 111,-501 173,-1021 183,-1554 z"
     class="fil14" /></svg>