<?xml version="1.0" encoding="UTF-8" standalone="no"?>
<!-- Creator: CorelDRAW X8 -->

<svg
   xmlns:dc="http://purl.org/dc/elements/1.1/"
   xmlns:cc="http://creativecommons.org/ns#"
   xmlns:rdf="http://www.w3.org/1999/02/22-rdf-syntax-ns#"
   xmlns:svg="http://www.w3.org/2000/svg"
   xmlns="http://www.w3.org/2000/svg"
   xmlns:xlink="http://www.w3.org/1999/xlink"
   xmlns:sodipodi="http://sodipodi.sourceforge.net/DTD/sodipodi-0.dtd"
   xmlns:inkscape="http://www.inkscape.org/namespaces/inkscape"
   xml:space="preserve"
   width="42.175125mm"
   height="69.589119mm"
   version="1.1"
   style="clip-rule:evenodd;fill-rule:evenodd;image-rendering:optimizeQuality;shape-rendering:geometricPrecision;text-rendering:geometricPrecision"
   viewBox="0 0 701624.87 1157686.5"
   id="svg2"
   inkscape:version="0.91 r13725"
   sodipodi:docname="engine.svg"><metadata
     id="metadata949"><rdf:RDF><cc:Work
         rdf:about=""><dc:format>image/svg+xml</dc:format><dc:type
           rdf:resource="http://purl.org/dc/dcmitype/StillImage" /><dc:title></dc:title></cc:Work></rdf:RDF></metadata><sodipodi:namedview
     pagecolor="#ffffff"
     bordercolor="#666666"
     borderopacity="1"
     objecttolerance="10"
     gridtolerance="10"
     guidetolerance="10"
     inkscape:pageopacity="0"
     inkscape:pageshadow="2"
     inkscape:window-width="1280"
     inkscape:window-height="980"
     id="namedview947"
     showgrid="false"
     inkscape:zoom="2.7796611"
     inkscape:cx="62.202745"
     inkscape:cy="100.3961"
     inkscape:window-x="36"
     inkscape:window-y="0"
     inkscape:window-maximized="0"
     inkscape:current-layer="svg2"
     fit-margin-top="0"
     fit-margin-left="0"
     fit-margin-right="0"
     fit-margin-bottom="0" /><defs
     id="defs4"><style
       type="text/css"
       id="style6"><![CDATA[
    .fil23 {fill:none}
    .fil0 {fill:black}
    .fil22 {fill:black}
    .fil11 {fill:#00A0E3}
    .fil16 {fill:#00A0E3}
    .fil7 {fill:#9D9E9E}
    .fil9 {fill:#FEFEFE}
    .fil18 {fill:#FEFEFE;fill-rule:nonzero}
    .fil19 {fill:#9D9E9E;fill-rule:nonzero}
    .fil5 {fill:#FEFEFE;fill-rule:nonzero}
    .fil10 {fill:red;fill-rule:nonzero}
    .fil13 {fill:red;fill-rule:nonzero}
    .fil14 {fill:white;fill-rule:nonzero}
    .fil8 {fill:url(#id0)}
    .fil15 {fill:url(#id1)}
    .fil17 {fill:url(#id2)}
    .fil6 {fill:url(#id3)}
    .fil12 {fill:url(#id4)}
    .fil21 {fill:url(#id5)}
    .fil20 {fill:url(#id6)}
    .fil3 {fill:url(#id7)}
    .fil2 {fill:url(#id8)}
    .fil4 {fill:url(#id9)}
    .fil1 {fill:url(#id10)}
   ]]></style><linearGradient
       id="id0"
       gradientUnits="userSpaceOnUse"
       x1="1030640"
       y1="1094090"
       x2="821532"
       y2="736752"><stop
         offset="0"
         style="stop-opacity:1; stop-color:#1C1B17"
         id="stop9" /><stop
         offset="0.529412"
         style="stop-opacity:1; stop-color:#434242"
         id="stop11" /><stop
         offset="1"
         style="stop-opacity:1; stop-color:#1C1B17"
         id="stop13" /></linearGradient><linearGradient
       id="id1"
       gradientUnits="userSpaceOnUse"
       xlink:href="#id0"
       x1="3261210"
       y1="1094090"
       x2="3052100"
       y2="736752" /><linearGradient
       id="id2"
       gradientUnits="userSpaceOnUse"
       xlink:href="#id0"
       x1="3524330"
       y1="1592490"
       x2="2752340"
       y2="273220" /><linearGradient
       id="id3"
       gradientUnits="objectBoundingBox"
       x1="0.61107498"
       y1="0"
       x2="0.61107498"
       y2="0.94135904"><stop
         offset="0"
         style="stop-opacity:1; stop-color:#00A0E3"
         id="stop18" /><stop
         offset="1"
         style="stop-opacity:1; stop-color:black"
         id="stop20" /></linearGradient><linearGradient
       id="id4"
       gradientUnits="userSpaceOnUse"
       xlink:href="#id0"
       x1="1293760"
       y1="1592480"
       x2="521771"
       y2="273220" /><linearGradient
       id="id5"
       gradientUnits="userSpaceOnUse"
       x1="2090880"
       y1="645894"
       x2="2343020"
       y2="363752"><stop
         offset="0"
         style="stop-opacity:1; stop-color:#FFEE00"
         id="stop24" /><stop
         offset="1"
         style="stop-opacity:1; stop-color:black"
         id="stop26" /></linearGradient><linearGradient
       id="id6"
       gradientUnits="userSpaceOnUse"
       xlink:href="#id5"
       x1="2021190"
       y1="645896"
       x2="1769050"
       y2="363754" /><linearGradient
       id="id7"
       gradientUnits="userSpaceOnUse"
       x1="2090880"
       y1="1256390"
       x2="2343020"
       y2="1538530"><stop
         offset="0"
         style="stop-opacity:1; stop-color:red"
         id="stop30" /><stop
         offset="1"
         style="stop-opacity:1; stop-color:black"
         id="stop32" /></linearGradient><linearGradient
       id="id8"
       gradientUnits="userSpaceOnUse"
       xlink:href="#id7"
       x1="2021190"
       y1="1256390"
       x2="1769050"
       y2="1538530" /><radialGradient
       id="id9"
       gradientUnits="userSpaceOnUse"
       gradientTransform="matrix(1.13982,-0.0277996,0.0277996,1.13983,-155715,-101155)"
       cx="932935"
       cy="908924"
       r="633314"
       fx="932935"
       fy="908924"><stop
         offset="0"
         style="stop-opacity:1; stop-color:black"
         id="stop36" /><stop
         offset="0.670588"
         style="stop-opacity:1; stop-color:black"
         id="stop38" /><stop
         offset="1"
         style="stop-opacity:1; stop-color:#00A0E3"
         id="stop40" /></radialGradient><radialGradient
       id="id10"
       gradientUnits="userSpaceOnUse"
       gradientTransform="matrix(1.13982,-0.0277996,0.0277996,1.13983,-467602,-39147)"
       xlink:href="#id9"
       cx="3163500"
       cy="908926"
       r="633314"
       fx="3163500"
       fy="908926" /><linearGradient
       id="id0-5"
       gradientUnits="userSpaceOnUse"
       x1="79084.102"
       y1="115915"
       x2="67443.102"
       y2="-18480.199"
       gradientTransform="matrix(7.0495335,0,0,7.0495335,1995504.6,2276777.5)"><stop
         offset="0"
         style="stop-opacity:1; stop-color:#FFEE00"
         id="stop9-4" /><stop
         offset="1"
         style="stop-opacity:1; stop-color:black"
         id="stop11-0" /></linearGradient><linearGradient
       id="id0-1"
       gradientUnits="userSpaceOnUse"
       x1="188342"
       y1="271404"
       x2="161233"
       y2="-45430.301"
       gradientTransform="matrix(2.2018915,0,0,2.2018915,-80092.397,-60836.631)"><stop
         offset="0"
         style="stop-opacity:1; stop-color:#00A0E3"
         id="stop9-0" /><stop
         offset="1"
         style="stop-opacity:1; stop-color:black"
         id="stop11-9" /></linearGradient><linearGradient
       gradientTransform="matrix(2.1821573,0,0,2.1821573,-76888.897,-67956.061)"
       id="id0-4"
       gradientUnits="userSpaceOnUse"
       x1="188673"
       y1="276543"
       x2="160901"
       y2="-44088.699"><stop
         offset="0"
         style="stop-opacity:1; stop-color:#FFEE00"
         id="stop9-7" /><stop
         offset="1"
         style="stop-opacity:1; stop-color:black"
         id="stop11-8" /></linearGradient><linearGradient
       gradientTransform="matrix(3.6129096,0,0,3.6129096,1831067.8,1270976.8)"
       id="id0-8"
       gradientUnits="userSpaceOnUse"
       x1="83317.703"
       y1="182544"
       x2="83317.703"
       y2="249145"><stop
         offset="0"
         style="stop-opacity:1; stop-color:red"
         id="stop9-3" /><stop
         offset="1"
         style="stop-opacity:1; stop-color:black"
         id="stop11-3" /></linearGradient></defs><path
     inkscape:connector-curvature="0"
     d="m 394097.42,375660.01 -9341,0 c -1719.8,0 -3113.6,1393.89 -3113.6,3113.67 l 0,3113.67 -8012.5,0 -7037,-7343.07 c -586.3,-613.39 -1400.1,-960.05 -2248,-960.05 l -9687.6,0 0,-4151.55 11416.7,0 c 1719.8,0 3113.7,-1393.89 3113.7,-3113.68 0,-1719.77 -1393.9,-3113.66 -3113.7,-3113.66 l -29060.9,0 c -1719.8,0 -3113.6,1393.89 -3113.6,3113.66 0,1719.79 1393.8,3113.68 3113.6,3113.68 l 11416.8,0 0,4151.55 -6227.3,0 c -822,0 -1609.8,323.82 -2192,902.97 l -9555.9,9475.93 -6934.2,0 c -1719.8,0 -3113.6,1393.89 -3113.6,3113.67 l 0,10378.9 -4151.6,0 0,-18682.02 c 0,-1719.78 -1393.9,-3113.67 -3113.6,-3113.67 -1719.8,0 -3113.7,1393.89 -3113.7,3113.67 l 0,43591.37 c 0,1719.78 1393.9,3113.67 3113.7,3113.67 1719.7,0 3113.6,-1393.89 3113.6,-3113.67 l 0,-18682.01 4151.6,0 0,10378.89 c 0,1719.79 1393.8,3113.67 3113.6,3113.67 l 11135.6,0 7126.1,7355.53 c 586.4,606.13 1393.9,947.59 2236.7,947.59 l 25168.8,0 c 878.1,0 1713.6,-369.49 2304.1,-1019.21 l 9452.1,-10397.58 698.5,0 0,3113.67 c 0,1719.78 1393.8,3113.67 3113.6,3113.67 l 9341,0 c 1719.9,0 3113.7,-1393.89 3113.7,-3113.67 l 0,-38401.92 c 0,-1719.78 -1393.8,-3113.67 -3113.7,-3113.67 z m -3113.6,38401.92 -3113.7,0 0,-3113.66 c 0,-1719.79 -1393.9,-3113.68 -3113.7,-3113.68 l -5189.4,0 c -878.1,0 -1713.6,369.49 -2304.1,1019.21 l -9452.1,10397.58 -22472.4,0 -7126.1,-7355.52 c -586.4,-606.13 -1393.9,-947.59 -2236.7,-947.59 l -9341,0 0,-20757.8 5103.3,0 c 822,0 1609.7,-323.82 2192,-902.97 l 9554.8,-9475.93 19531,0 7036.9,7343.07 c 587.5,613.4 1401.2,960.05 2249.1,960.05 l 12454.7,0 c 1719.8,0 3113.7,-1393.89 3113.7,-3113.67 l 0,-3113.67 3113.7,0 0,32174.58 z"
     id="path4"
     style="fill:#ff0000;fill-opacity:1" /></svg>