<?xml version="1.0" encoding="UTF-8" standalone="no"?>
<!-- Creator: CorelDRAW X8 -->
<svg id="svg2" xml:space="preserve" height="69.589mm" clip-rule="evenodd" xmlns:cc="http://creativecommons.org/ns#" xmlns:dc="http://purl.org/dc/elements/1.1/" xmlns:rdf="http://www.w3.org/1999/02/22-rdf-syntax-ns#" style="image-rendering:optimizeQuality;text-rendering:geometricPrecision;shape-rendering:geometricPrecision" xmlns="http://www.w3.org/2000/svg" fill-rule="evenodd" viewBox="0 0 701624.87 1157686.5" width="42.175mm" version="1.1" xmlns:xlink="http://www.w3.org/1999/xlink"><metadata id="metadata949"><rdf:RDF><cc:Work rdf:about=""><dc:format>image/svg+xml</dc:format><dc:type rdf:resource="http://purl.org/dc/dcmitype/StillImage"/><dc:title/></cc:Work></rdf:RDF></metadata><defs id="defs4"><style id="style6" type="text/css"><![CDATA[
    .fil23 {fill:none}
    .fil0 {fill:black}
    .fil22 {fill:black}
    .fil11 {fill:#00A0E3}
    .fil16 {fill:#00A0E3}
    .fil7 {fill:#9D9E9E}
    .fil9 {fill:#FEFEFE}
    .fil18 {fill:#FEFEFE;fill-rule:nonzero}
    .fil19 {fill:#9D9E9E;fill-rule:nonzero}
    .fil5 {fill:#FEFEFE;fill-rule:nonzero}
    .fil10 {fill:red;fill-rule:nonzero}
    .fil13 {fill:red;fill-rule:nonzero}
    .fil14 {fill:white;fill-rule:nonzero}
    .fil8 {fill:url(#id0)}
    .fil15 {fill:url(#id1)}
    .fil17 {fill:url(#id2)}
    .fil6 {fill:url(#id3)}
    .fil12 {fill:url(#id4)}
    .fil21 {fill:url(#id5)}
    .fil20 {fill:url(#id6)}
    .fil3 {fill:url(#id7)}
    .fil2 {fill:url(#id8)}
    .fil4 {fill:url(#id9)}
    .fil1 {fill:url(#id10)}
   ]]></style><linearGradient id="id0" y2="7.3675e5" gradientUnits="userSpaceOnUse" x2="8.2153e5" y1="1.0941e6" x1="1.0306e6"><stop id="stop9" stop-color="#1C1B17" offset="0"/><stop id="stop11" stop-color="#434242" offset=".52941"/><stop id="stop13" stop-color="#1C1B17" offset="1"/></linearGradient><linearGradient id="id1" y2="7.3675e5" xlink:href="#id0" gradientUnits="userSpaceOnUse" x2="3.0521e6" y1="1.0941e6" x1="3.2612e6"/><linearGradient id="id2" y2="2.7322e5" xlink:href="#id0" gradientUnits="userSpaceOnUse" x2="2.7523e6" y1="1.5925e6" x1="3.5243e6"/><linearGradient id="id3" y2=".94136" x2=".61107" x1=".61107"><stop id="stop18" stop-color="#00A0E3" offset="0"/><stop id="stop20" offset="1"/></linearGradient><linearGradient id="id4" y2="2.7322e5" xlink:href="#id0" gradientUnits="userSpaceOnUse" x2="5.2177e5" y1="1.5925e6" x1="1.2938e6"/><linearGradient id="id5" y2="3.6375e5" gradientUnits="userSpaceOnUse" x2="2.343e6" y1="6.4589e5" x1="2.0909e6"><stop id="stop24" stop-color="#fe0" offset="0"/><stop id="stop26" offset="1"/></linearGradient><linearGradient id="id6" y2="3.6375e5" xlink:href="#id5" gradientUnits="userSpaceOnUse" x2="1.769e6" y1="6.459e5" x1="2.0212e6"/><linearGradient id="id7" y2="1.5385e6" gradientUnits="userSpaceOnUse" x2="2.343e6" y1="1.2564e6" x1="2.0909e6"><stop id="stop30" stop-color="red" offset="0"/><stop id="stop32" offset="1"/></linearGradient><linearGradient id="id8" y2="1.5385e6" xlink:href="#id7" gradientUnits="userSpaceOnUse" x2="1.769e6" y1="1.2564e6" x1="2.0212e6"/><radialGradient id="id9" gradientUnits="userSpaceOnUse" cy="9.0892e5" cx="9.3294e5" gradientTransform="matrix(1.1398 -0.0278 0.0278 1.1398 -1.5572e5 -1.0116e5)" r="6.3331e5"><stop id="stop36" offset="0"/><stop id="stop38" offset=".67059"/><stop id="stop40" stop-color="#00A0E3" offset="1"/></radialGradient><radialGradient id="id10" xlink:href="#id9" gradientUnits="userSpaceOnUse" cy="9.0893e5" cx="3.1635e6" gradientTransform="matrix(1.1398 -0.0278 0.0278 1.1398 -4.676e5 -39147)" r="6.3331e5"/></defs><path id="path4-1" d="m3.5377e5 6.1085e5c-15942 0-28911 12970-28911 28911s12969 28911 28911 28911 28911-12970 28911-28911-12969-28911-28911-28911zm0 51085c-12227 0-22174-9946.5-22174-22174s9947.6-22174 22174-22174c12227 0 22174 9946.4 22174 22174s-9947.6 22174-22174 22174zm40700-22174c0 11837-5151.2 23070-14132 30818-636.6 550.2-1420.3 818.5-2198.3 818.5-945.4 0-1886.2-396.3-2552-1167.6-1216-1409.1-1058.8-3535.6 350.3-4750.4 7496.6-6468.2 11797-15842 11797-25718 0-10273-4584.2-19887-12576-26377-1443.9-1173.3-1664-3294.2-491.8-4739.1 1174.4-1442.7 3294.2-1662.8 4738-491.77 9573.7 7775.1 15065 19294 15065 31607zm-62866 25719c1407.9 1214.8 1565.1 3342.4 350.3 4750.4-667 771.3-1606.7 1167.6-2553.2 1167.6-779.2 0-1562.8-268.3-2198.3-818.5-8980.9-7748.1-14132-18981-14132-30818 0-12312 5491.4-23833 15065-31607 1445-1172.2 3565.9-952.09 4738 491.77 1172.1 1445 952.1 3565.9-491.8 4739.1-7991.7 6489.5-12576 16104-12576 26377 1.1 9874.6 4301.2 19250 11798 25718zm26658-39163c15.7 213.32 13.4 450.22 0 659.02l-1122.8 15309c-137 1860.4-1754.9 3257.2-3615.3 3121.3-1693.1-124.6-3002.2-1476.4-3121.2-3121.3l-1122.7-15309c-181.9-2480.1 1681.8-4639.2 4162-4819.9 2480.1-183.01 4638.1 1680.8 4820 4160.9zm0 26671c0 2481.3-2010.9 4491-4491 4491-2480.2 0-4491-2009.7-4491-4491 0-2480.1 2010.8-4491 4491-4491 2480.1 0 4491 2010.9 4491 4491z" fill="#f00"/></svg>
