<?xml version="1.0" encoding="UTF-8" standalone="no"?>
<!-- Creator: CorelDRAW X8 -->

<svg
   xmlns:dc="http://purl.org/dc/elements/1.1/"
   xmlns:cc="http://creativecommons.org/ns#"
   xmlns:rdf="http://www.w3.org/1999/02/22-rdf-syntax-ns#"
   xmlns:svg="http://www.w3.org/2000/svg"
   xmlns="http://www.w3.org/2000/svg"
   xmlns:xlink="http://www.w3.org/1999/xlink"
   xmlns:sodipodi="http://sodipodi.sourceforge.net/DTD/sodipodi-0.dtd"
   xmlns:inkscape="http://www.inkscape.org/namespaces/inkscape"
   xml:space="preserve"
   width="42.175125mm"
   height="69.589119mm"
   version="1.1"
   style="clip-rule:evenodd;fill-rule:evenodd;image-rendering:optimizeQuality;shape-rendering:geometricPrecision;text-rendering:geometricPrecision"
   viewBox="0 0 701624.87 1157686.5"
   id="svg2"
   inkscape:version="0.91 r13725"
   sodipodi:docname="right_front_door_open.svg"><metadata
     id="metadata949"><rdf:RDF><cc:Work
         rdf:about=""><dc:format>image/svg+xml</dc:format><dc:type
           rdf:resource="http://purl.org/dc/dcmitype/StillImage" /><dc:title></dc:title></cc:Work></rdf:RDF></metadata><sodipodi:namedview
     pagecolor="#ffffff"
     bordercolor="#666666"
     borderopacity="1"
     objecttolerance="10"
     gridtolerance="10"
     guidetolerance="10"
     inkscape:pageopacity="0"
     inkscape:pageshadow="2"
     inkscape:window-width="1280"
     inkscape:window-height="980"
     id="namedview947"
     showgrid="false"
     inkscape:zoom="1.9655172"
     inkscape:cx="-85.111739"
     inkscape:cy="92.254752"
     inkscape:window-x="-6"
     inkscape:window-y="0"
     inkscape:window-maximized="0"
     inkscape:current-layer="svg2"
     fit-margin-top="0"
     fit-margin-left="0"
     fit-margin-right="0"
     fit-margin-bottom="0" /><defs
     id="defs4"><style
       type="text/css"
       id="style6"><![CDATA[
    .fil23 {fill:none}
    .fil0 {fill:black}
    .fil22 {fill:black}
    .fil11 {fill:#00A0E3}
    .fil16 {fill:#00A0E3}
    .fil7 {fill:#9D9E9E}
    .fil9 {fill:#FEFEFE}
    .fil18 {fill:#FEFEFE;fill-rule:nonzero}
    .fil19 {fill:#9D9E9E;fill-rule:nonzero}
    .fil5 {fill:#FEFEFE;fill-rule:nonzero}
    .fil10 {fill:red;fill-rule:nonzero}
    .fil13 {fill:red;fill-rule:nonzero}
    .fil14 {fill:white;fill-rule:nonzero}
    .fil8 {fill:url(#id0)}
    .fil15 {fill:url(#id1)}
    .fil17 {fill:url(#id2)}
    .fil6 {fill:url(#id3)}
    .fil12 {fill:url(#id4)}
    .fil21 {fill:url(#id5)}
    .fil20 {fill:url(#id6)}
    .fil3 {fill:url(#id7)}
    .fil2 {fill:url(#id8)}
    .fil4 {fill:url(#id9)}
    .fil1 {fill:url(#id10)}
   ]]></style><linearGradient
       id="id0"
       gradientUnits="userSpaceOnUse"
       x1="1030640"
       y1="1094090"
       x2="821532"
       y2="736752"><stop
         offset="0"
         style="stop-opacity:1; stop-color:#1C1B17"
         id="stop9" /><stop
         offset="0.529412"
         style="stop-opacity:1; stop-color:#434242"
         id="stop11" /><stop
         offset="1"
         style="stop-opacity:1; stop-color:#1C1B17"
         id="stop13" /></linearGradient><linearGradient
       id="id1"
       gradientUnits="userSpaceOnUse"
       xlink:href="#id0"
       x1="3261210"
       y1="1094090"
       x2="3052100"
       y2="736752" /><linearGradient
       id="id2"
       gradientUnits="userSpaceOnUse"
       xlink:href="#id0"
       x1="3524330"
       y1="1592490"
       x2="2752340"
       y2="273220" /><linearGradient
       id="id3"
       gradientUnits="objectBoundingBox"
       x1="0.61107498"
       y1="0"
       x2="0.61107498"
       y2="0.94135904"><stop
         offset="0"
         style="stop-opacity:1; stop-color:#00A0E3"
         id="stop18" /><stop
         offset="1"
         style="stop-opacity:1; stop-color:black"
         id="stop20" /></linearGradient><linearGradient
       id="id4"
       gradientUnits="userSpaceOnUse"
       xlink:href="#id0"
       x1="1293760"
       y1="1592480"
       x2="521771"
       y2="273220" /><linearGradient
       id="id5"
       gradientUnits="userSpaceOnUse"
       x1="2090880"
       y1="645894"
       x2="2343020"
       y2="363752"><stop
         offset="0"
         style="stop-opacity:1; stop-color:#FFEE00"
         id="stop24" /><stop
         offset="1"
         style="stop-opacity:1; stop-color:black"
         id="stop26" /></linearGradient><linearGradient
       id="id6"
       gradientUnits="userSpaceOnUse"
       xlink:href="#id5"
       x1="2021190"
       y1="645896"
       x2="1769050"
       y2="363754" /><linearGradient
       id="id7"
       gradientUnits="userSpaceOnUse"
       x1="2090880"
       y1="1256390"
       x2="2343020"
       y2="1538530"><stop
         offset="0"
         style="stop-opacity:1; stop-color:red"
         id="stop30" /><stop
         offset="1"
         style="stop-opacity:1; stop-color:black"
         id="stop32" /></linearGradient><linearGradient
       id="id8"
       gradientUnits="userSpaceOnUse"
       xlink:href="#id7"
       x1="2021190"
       y1="1256390"
       x2="1769050"
       y2="1538530" /><radialGradient
       id="id9"
       gradientUnits="userSpaceOnUse"
       gradientTransform="matrix(1.13982,-0.0277996,0.0277996,1.13983,-155715,-101155)"
       cx="932935"
       cy="908924"
       r="633314"
       fx="932935"
       fy="908924"><stop
         offset="0"
         style="stop-opacity:1; stop-color:black"
         id="stop36" /><stop
         offset="0.670588"
         style="stop-opacity:1; stop-color:black"
         id="stop38" /><stop
         offset="1"
         style="stop-opacity:1; stop-color:#00A0E3"
         id="stop40" /></radialGradient><radialGradient
       id="id10"
       gradientUnits="userSpaceOnUse"
       gradientTransform="matrix(1.13982,-0.0277996,0.0277996,1.13983,-467602,-39147)"
       xlink:href="#id9"
       cx="3163500"
       cy="908926"
       r="633314"
       fx="3163500"
       fy="908926" /><linearGradient
       id="id0-5"
       gradientUnits="userSpaceOnUse"
       x1="79084.102"
       y1="115915"
       x2="67443.102"
       y2="-18480.199"
       gradientTransform="matrix(7.0495335,0,0,7.0495335,1995504.6,2276777.5)"><stop
         offset="0"
         style="stop-opacity:1; stop-color:#FFEE00"
         id="stop9-4" /><stop
         offset="1"
         style="stop-opacity:1; stop-color:black"
         id="stop11-0" /></linearGradient><linearGradient
       id="id0-1"
       gradientUnits="userSpaceOnUse"
       x1="188342"
       y1="271404"
       x2="161233"
       y2="-45430.301"
       gradientTransform="matrix(2.2018915,0,0,2.2018915,-70702.284,-60836.631)"><stop
         offset="0"
         style="stop-opacity:1; stop-color:#00A0E3"
         id="stop9-0" /><stop
         offset="1"
         style="stop-opacity:1; stop-color:black"
         id="stop11-9" /></linearGradient><linearGradient
       gradientTransform="matrix(2.1821573,0,0,2.1821573,-67498.784,-67956.061)"
       id="id0-4"
       gradientUnits="userSpaceOnUse"
       x1="188673"
       y1="276543"
       x2="160901"
       y2="-44088.699"><stop
         offset="0"
         style="stop-opacity:1; stop-color:#FFEE00"
         id="stop9-7" /><stop
         offset="1"
         style="stop-opacity:1; stop-color:black"
         id="stop11-8" /></linearGradient><linearGradient
       gradientTransform="matrix(3.6129096,0,0,3.6129096,1831067.8,1270976.8)"
       id="id0-8"
       gradientUnits="userSpaceOnUse"
       x1="83317.703"
       y1="182544"
       x2="83317.703"
       y2="249145"><stop
         offset="0"
         style="stop-opacity:1; stop-color:red"
         id="stop9-3" /><stop
         offset="1"
         style="stop-opacity:1; stop-color:black"
         id="stop11-3" /></linearGradient></defs><g
     transform="matrix(1.9940252,0,0,1.9940252,-27546.784,-16290.841)"
     id="g261"
     style="clip-rule:evenodd;fill:#ffff00;fill-opacity:1;fill-rule:evenodd;image-rendering:optimizeQuality;shape-rendering:geometricPrecision;text-rendering:geometricPrecision"><g
       id="g263"
       style="fill:#ffff00;fill-opacity:1"><path
         class="fil3"
         d="m 67029,323688 c 603,-508 1207,-1015 1814,-1523 122,-270 771,-848 987,-1037 2990,-2561 6001,-5095 8980,-7669 2553,-2207 5170,-4353 7705,-6578 3414,-2966 6860,-5917 10308,-8843 5447,-4624 11046,-9112 16393,-13850 326,-288 3389,-2999 1423,-1189 447,-380 894,-760 1340,-1140 1021,-843 2040,-1684 3060,-2527 454,-342 907,-683 1362,-1023 282,-238 1168,-994 907,-833 -490,337 -1007,782 -1467,1168 -7607,6561 -16107,13814 -24121,19747 -889,625 -10326,7693 -10372,7634 -1831,1581 -4415,3959 -6307,5282 -2138,1415 -5078,4131 -7139,5862 -2025,1691 -4044,3405 -6096,5063 l 1223,1456 z"
         id="path265"
         inkscape:connector-curvature="0"
         style="fill:#ffff00;fill-opacity:1;fill-rule:nonzero" /><path
         class="fil3"
         d="m 129773,272532 c -1406,1518 -2767,2877 -3417,3483 1010,-850 -533,590 -602,654 -386,355 -4632,4179 -1843,1763 1334,-1181 2625,-2371 3878,-3639 367,-360 1574,-1631 1864,-1834 30,28 -146,183 32,31 1,-1 -57,94 175,-156 l 129,-141 -216,-161 z"
         id="path267"
         inkscape:connector-curvature="0"
         style="fill:#ffff00;fill-opacity:1;fill-rule:nonzero" /></g><path
       class="fil3"
       d="m 122200,299223 c -1301,1606 -2557,3143 -2593,3115 -597,935 -2006,3257 -2656,3951 -716,696 -1889,2652 -2504,3579 -462,688 -946,1478 -1454,2125 -116,148 -171,279 -263,437 -176,271 -272,510 -337,828 -45,258 -51,472 -18,711 l 1609,-1372 8216,-13374 z"
       id="path269"
       inkscape:connector-curvature="0"
       style="fill:#ffff00;fill-opacity:1;fill-rule:nonzero" /><path
       class="fil3"
       d="m 76577,335849 c -41,-14 -84,-28 -126,-41 -1320,-2714 -2633,-5430 -3944,-8147 68,153 83,284 53,448 8,64 -62,190 -132,285 l 8,16 c 560,-500 1148,-1043 1719,-1515 135,-98 116,-72 270,-198 547,-448 981,-863 1482,-1354 -138,72 -276,145 -415,217 291,-226 582,-452 872,-679 55,2 110,4 164,6 -157,160 -313,321 -470,482 314,-210 746,-604 1029,-866 129,-133 258,-267 387,-400 -44,11 -89,20 -134,30 1025,-831 1990,-1672 2980,-2543 -215,147 -431,293 -646,440 1286,-1132 2652,-2237 3886,-3418 -300,341 862,-772 1242,-1132 2022,-1924 4056,-3933 6112,-5809 2023,-1780 4142,-3476 6126,-5297 159,-146 319,-293 478,-440 4524,-4024 9044,-8059 13580,-12068 883,-774 1779,-1564 2623,-2381 543,-529 718,-711 1327,-1214 -56,102 -113,204 -169,307 184,-85 654,-593 814,-764 15,17 29,34 44,50 332,-144 157,-3 511,-359 502,-510 153,-237 -221,-24 109,-145 217,-289 326,-434 282,-251 564,-501 846,-752 455,-453 936,-878 1417,-1302 333,-293 667,-585 1001,-877 247,-239 493,-478 739,-717 272,-236 544,-470 816,-706 205,-137 595,-441 595,-441 104,-158 215,-292 355,-420 221,-193 411,-420 635,-614 188,-166 288,-334 456,-509 141,-142 316,-307 434,-468 77,-119 86,-310 -28,-411 1,-1 -572,-277 -474,-543 59,-161 116,-271 186,-420 42,-122 5,-688 -16,-835 -45,-223 1588,-954 1474,-1056 -67,-63 230,-346 274,-386 928,-801 1958,-1557 3175,-1827 479,-84 847,-69 1310,92 328,130 554,279 797,534 172,197 287,366 387,605 -82,-226 -219,-436 -368,-622 -86,-103 -104,-132 16,-15 245,250 382,507 493,840 67,115 103,593 100,734 -5,229 -31,419 -79,642 -76,313 -636,1836 -132,660 86,-218 149,-416 202,-645 109,-511 116,-902 -24,-1411 -113,-351 -254,-600 -501,-875 -260,-268 -501,-428 -848,-561 -452,-141 -791,-180 -1252,-103 11,-1 -105,22 -121,20 -143,-15 -1159,362 -1160,360 -18,-37 98,-70 -19,-40 -75,18 130,-92 -118,35 -547,304 -861,632 -1405,964 -222,134 -443,257 -640,426 23,-20 9,-13 6,9 -6,52 -30,155 -30,155 0,0 -154,103 -192,166 -38,64 -41,5 -116,22 -90,29 -81,59 -135,117 -182,235 -344,439 -567,641 -210,191 -337,294 -527,519 -112,124 -199,293 -373,336 -134,33 -402,282 -402,282 -323,298 -1112,821 -345,470 -174,152 -393,362 -589,475 -188,108 -538,472 -533,467 -151,125 -301,250 -452,376 0,-1 -217,265 -333,380 -162,162 -485,485 -485,485 -1708,1611 -3486,3319 -5242,4862 -792,614 -1601,1409 -2355,2087 -7529,6817 -15081,13611 -22631,20406 -1479,1321 -2959,2642 -4439,3963 131,-146 262,-290 394,-435 -943,865 -1880,1741 -2841,2587 -557,490 -1131,981 -1671,1490 -599,562 -1272,1063 -1851,1647 -1675,1597 -3470,3207 -5198,4751 -941,828 -1855,1694 -2795,2524 -180,167 -278,334 -331,573 -6,34 -11,67 -14,99 l -566,516 894,1635 13,-11 384,-319 -149,-300 c -41,-3 -82,-9 -126,-18 -179,-39 -308,-101 -455,-212 -124,-56 -244,-287 -315,-393 310,629 723,1223 1085,1830 311,528 588,1189 854,1748 39,8 78,15 117,22 l 1057,2157 2527,4617 72,-53 33,65 c -18,27 -36,56 -52,86 l 841,1538 c 158,-130 311,-269 469,-393 200,-171 309,-344 373,-599 l 10,-55 c 1950,-1604 3904,-3209 5839,-4830 -259,245 -518,491 -778,736 0,0 678,-569 1021,-847 398,-321 800,-639 1201,-956 238,-200 476,-400 714,-600 222,-182 1039,-841 781,-656 -333,248 -994,752 -994,752 702,-582 1401,-1168 2107,-1747 1062,-868 2087,-1785 3147,-2656 2092,-1765 4154,-3595 6273,-5371 1517,-1277 4392,-3533 5747,-4977 277,-244 554,-488 830,-733 466,-365 933,-729 1402,-1090 199,-217 195,-276 491,-544 92,-83 172,-147 261,-236 1,-1 2,-1 3,-2 783,-753 1606,-1506 2319,-2327 101,-78 201,-158 299,-239 911,-1021 1969,-2636 2769,-3762 163,-253 321,-507 480,-761 1168,-1893 2350,-3809 3450,-5743 479,-888 1111,-1743 1599,-2645 94,-174 1058,-1884 1090,-1904 -46,-175 65,-410 142,-559 712,-1296 1448,-2572 2139,-3880 556,-1053 1200,-2091 1729,-3155 687,-1336 1416,-2693 2145,-4007 995,-1791 2273,-3649 3105,-5501 25,-52 485,-1073 237,-396 67,-122 134,-244 200,-365 150,-234 300,-469 453,-701 75,-71 151,-140 232,-205 -4,4 112,-185 39,-164 -84,25 -185,204 -185,204 -976,1949 -3277,5633 -4633,7209 -1027,1068 -1825,2273 -2868,3323 -276,524 -1137,2171 -1466,2513 -377,265 -1485,2367 -1796,2895 -526,891 -1049,1814 -1613,2679 -630,1000 -1214,2238 -1818,3294 -978,1690 -1893,3441 -2947,5084 -373,584 -754,1169 -1120,1756 -86,121 -173,243 -257,364 76,-123 166,-254 236,-379 49,-154 103,-301 160,-453 13,-17 -200,275 -259,381 -482,673 -965,1347 -1432,2032 -296,427 -619,904 -954,1302 -140,126 -284,249 -430,367 -745,808 -1563,1544 -2367,2291 -224,265 -498,488 -715,776 -148,200 -277,386 -440,573 -193,203 -457,423 -699,566 0,0 -729,667 -1104,986 -267,229 -779,733 -779,733 -708,642 -1421,1280 -2136,1915 0,0 -717,565 -1065,857 -2059,1727 -4127,3446 -6199,5157 -955,795 -1880,1609 -2797,2446 -283,232 -566,465 -850,697 -1257,1079 -2516,2154 -3777,3227 -622,542 -1552,1375 -2220,1800 -512,289 -921,652 -1386,1016 -1138,883 -2184,1714 -3239,2637 l 190,378 29,6 c 155,44 261,98 387,199 57,29 258,285 262,346 1,3 -298,-521 -393,-689 -400,-714 -756,-1541 -1110,-2286 z"
       id="path271"
       inkscape:connector-curvature="0"
       style="fill:#ffff00;fill-opacity:1;fill-rule:nonzero" /><path
       class="fil3"
       d="m 99100,324907 c 1,-42 2,-85 3,-127 2110,-1746 4264,-3640 6389,-5330 88,-46 24,5 129,-69 280,-197 381,-307 602,-554 -68,9 -138,19 -207,29 122,-74 244,-148 366,-221 36,19 70,38 106,57 -53,68 -106,135 -159,202 81,-31 328,-230 398,-297 39,-53 78,-106 117,-159 -25,-8 -49,-16 -75,-24 363,-242 609,-441 933,-726 -73,20 -147,42 -219,64 135,-119 287,-246 430,-356 862,-764 1689,-1525 2505,-2338 -86,106 620,-597 1107,-1128 1311,-1458 2056,-2434 3040,-4104 300,-460 593,-917 879,-1387 130,-150 318,-502 407,-682 31,-64 62,-128 93,-192 2200,-3926 4468,-7833 6697,-11747 667,-1164 1336,-2346 1949,-3539 391,-767 582,-1151 1038,-1916 -31,137 -63,274 -94,411 185,-199 515,-942 643,-1223 19,11 39,22 59,33 303,-319 184,-128 438,-648 407,-840 75,-306 -235,86 77,-214 153,-427 229,-641 233,-422 464,-846 694,-1269 355,-740 770,-1489 1160,-2210 276,-510 551,-1021 823,-1532 196,-403 390,-807 582,-1211 218,-410 433,-821 647,-1233 170,-262 478,-811 478,-811 0,0 141,-466 227,-643 157,-318 272,-659 424,-982 123,-261 159,-482 253,-746 75,-201 173,-447 212,-659 18,-144 -58,-319 -207,-359 -221,1 -590,-18 -669,-267 -10,-64 -49,-288 -43,-346 6,-51 23,-115 31,-168 29,-276 -116,-1073 -195,-1358 -14,-44 102,-391 271,-868 l -17,-13 c -86,291 -173,582 -254,881 -100,352 -168,757 -372,1068 -40,62 -83,165 -118,214 -53,73 -131,294 -131,294 -169,454 -637,1202 -95,554 -100,229 -219,522 -359,724 -146,207 -352,742 -350,736 -106,208 -214,417 -322,624 0,0 -134,397 -216,581 -113,263 -348,784 -348,784 -1293,2700 -2732,5547 -4186,8159 -658,1053 -1257,2245 -1864,3339 -2752,4990 -6393,10910 -8813,15927 -256,499 -499,967 -794,1446 -537,847 -1175,1627 -1844,2372 70,-108 138,-216 206,-326 -637,762 -1314,1495 -2026,2188 -559,544 -1134,1073 -1692,1617 -370,356 -774,704 -1159,1045 -64,70 -134,107 -191,197 -366,447 -1192,1189 -1644,1580 -4479,3958 -9082,7793 -13681,11611 192,-189 385,-379 577,-568 0,0 -513,430 -773,640 -312,249 -944,737 -944,737 -191,160 -383,320 -574,479 -189,148 -851,678 -643,535 276,-198 823,-603 822,-602 -581,485 -1173,966 -1763,1440 -966,774 -1897,1594 -2864,2366 -2280,1871 -4477,3734 -6808,5599 -345,276 -699,556 -1060,840 l 834,1525 c 2162,-1719 4323,-3441 6482,-5163 915,-731 2717,-2312 2717,-2312 258,-207 516,-413 774,-620 1066,-898 2131,-1799 3195,-2700 441,-387 1243,-1104 1717,-1378 397,-194 681,-453 1032,-724 1509,-1151 2135,-1747 3472,-3007 556,-518 1227,-1020 1821,-1501 z"
       id="path273"
       inkscape:connector-curvature="0"
       style="fill:#ffff00;fill-opacity:1;fill-rule:nonzero" /><path
       class="fil3"
       d="m 71469,324596 c -30,14 -60,28 -88,42 1,2 -290,-339 -278,-355 13,-14 16,-8 21,-24 18,-50 -26,-35 -62,-35 -30,22 -60,45 -90,68 14,-21 28,-42 41,-63 32,-19 63,-39 95,-59 18,-2 37,-5 55,-8 11,-10 21,-44 6,-50 -16,2 -32,4 -48,7 -19,13 -37,25 -56,37 31,-75 28,-72 -10,-134 -23,23 -47,46 -71,70 -22,-38 -14,-126 -81,-136 47,-16 -48,-27 -52,-28 -43,-5 -406,-30 -413,-40 -39,-59 -7,-215 -84,-245 -8,-4 -16,-6 -24,-9 -146,-150 -316,-291 -455,-436 -32,-39 -84,-69 -134,-69 -73,0 -71,43 -77,-32 33,-23 67,-45 100,-67 37,-42 -46,-16 -59,-12 17,-14 33,-29 50,-43 20,-24 91,-75 33,-65 -62,9 -82,63 -119,112 -33,18 -66,38 -99,56 -13,-11 -26,-22 -39,-33 -38,7 -67,-10 -93,-36 -14,-16 -29,-32 -44,-48 -25,-2 -50,-2 -74,-3 -12,-16 -24,-31 -35,-47 7,-19 13,-72 13,-72 0,-1 -70,45 -81,34 -12,-11 -56,8 -71,-7 -14,-14 -66,23 -89,27 -31,0 -51,2 -79,17 -32,17 -239,224 -239,224 0,0 -448,480 -498,522 -50,43 -100,82 -150,123 -155,133 -316,301 -460,446 -121,122 135,-350 19,-212 -59,63 -119,89 -165,0 0,-2 -36,56 -47,48 -13,-10 -58,29 -57,47 l 4,5 c 10,8 40,-6 40,-6 2,17 -2,29 -10,42 l 55,65 2,-1 c 7,-5 6,-2 2,6 l 24,29 c 27,-13 57,-25 71,-19 27,11 0,29 62,-4 26,-10 74,-51 24,13 -4,6 -46,57 -18,55 46,3 -9,90 107,-74 16,17 18,23 3,46 -16,25 22,20 22,20 1,9 3,18 5,27 0,0 41,-27 62,-32 16,-5 50,-13 50,-13 -1,1 321,22 312,44 -12,31 54,53 73,64 276,113 541,259 794,417 40,34 80,67 118,102 -21,8 -42,16 -64,23 28,9 93,22 108,47 8,14 25,39 41,41 20,2 -1,54 45,45 32,-3 194,66 207,89 15,27 767,535 676,469 -28,5 -56,9 -84,13 0,0 22,14 27,22 4,10 2,41 3,40 7,5 15,9 23,14 0,0 14,30 24,17 11,-16 27,-48 27,-48 0,0 40,32 49,52 11,22 90,50 101,73 24,20 88,-74 222,166 1,2 5,10 6,11 40,81 192,395 286,432 17,29 35,57 51,86 -6,70 -14,140 -22,209 25,20 79,-22 110,62 7,17 0,41 20,53 43,23 158,138 151,130 -16,15 -32,29 -48,44 -3,14 182,189 207,213 46,43 167,212 202,233 17,4 -15,74 18,83 36,12 32,9 50,39 0,0 143,-41 161,-36 64,22 70,43 148,53 32,4 73,37 111,36 22,1 147,22 163,31 22,13 -75,93 37,80 84,-10 19,3 -11,8 l 0,3 c -22,11 -40,18 -63,27 -35,11 -71,21 -107,31 511,-56 -1270,327 36,-9 16,-4 56,-18 72,-20 21,-74 398,-222 457,-244 169,-58 639,-277 765,-298 1,-1 -122,-22 -16,-58 170,-59 64,-72 56,-97 -7,-27 -22,-59 -1,-84 16,-21 -132,-40 -162,-68 -63,-59 -199,-87 -232,-186 -21,-58 -58,-117 -107,-156 58,3 117,5 175,8 -19,-51 -54,-89 -102,-115 -27,-17 -67,-43 -81,-73 21,-23 42,-47 62,-71 -50,-125 -123,-264 -258,-310 -55,-12 -111,-16 -165,-35 -65,-28 -8,-106 -8,-106 0,0 -65,-81 -83,-125 -11,-27 -85,-70 -85,-70 -54,-60 -109,-121 -164,-181 0,0 -1,-79 -13,-104 -3,-10 -47,-107 -47,-108 1,-1 -83,-183 -90,-200 -25,-52 -150,-57 -150,-57 -4,-10 -9,-19 -14,-30 -54,-27 -108,-53 -162,-80 1,0 -101,-23 -34,-70 55,-39 50,-22 53,-77 25,-148 -104,-81 -227,-86 -34,-2 -51,-53 -64,-79 z"
       id="path275"
       inkscape:connector-curvature="0"
       style="fill:#ffff00;fill-opacity:1;fill-rule:nonzero" /><path
       class="fil2"
       d="m 71579,327909 c 0,0 -952,-3698 -3044,-5308"
       id="path277"
       inkscape:connector-curvature="0"
       style="fill:#ffff00;fill-opacity:1" /><path
       class="fil3"
       d="m 131149,280506 c -7,-11 6,-72 2,-58 -10,2 -20,5 -30,8 -30,-16 -60,-32 -91,-48 -21,-33 -42,-66 -62,-99 0,0 -45,-5 -22,42 14,29 30,51 60,62 70,-12 132,-14 186,-5 l -43,98 z"
       id="path279"
       inkscape:connector-curvature="0"
       style="fill:#ffff00;fill-opacity:1;fill-rule:nonzero" /><path
       class="fil3"
       d="m 80890,318379 c 0,-43 1,-86 1,-130 2639,-2372 5319,-4858 8004,-7159 113,-77 69,-33 203,-139 419,-335 702,-618 1072,-996 -107,45 -214,90 -321,135 214,-159 429,-319 644,-478 46,8 92,17 139,26 -110,120 -221,240 -330,360 205,-123 566,-448 748,-620 90,-100 181,-199 270,-298 -36,3 -73,5 -109,8 748,-589 1426,-1178 2139,-1805 -160,96 -318,194 -477,291 898,-792 1891,-1571 2737,-2411 -71,88 489,-434 859,-795 1359,-1340 2747,-2784 4135,-4076 1367,-1202 2835,-2326 4161,-3567 107,-100 213,-200 319,-300 3034,-2707 6059,-5429 9106,-8120 599,-523 1217,-1068 1777,-1631 421,-428 406,-441 908,-841 -31,80 -62,160 -94,240 127,-41 457,-419 558,-536 14,18 29,34 44,51 237,-69 100,52 369,-233 326,-350 123,-197 -186,-55 68,-109 137,-217 205,-326 198,-176 396,-352 593,-527 308,-324 665,-635 1000,-929 242,-209 483,-419 725,-629 178,-177 356,-355 535,-533 203,-173 407,-346 611,-519 159,-96 461,-321 461,-321 71,-127 155,-235 262,-334 173,-149 317,-332 493,-485 158,-136 223,-270 359,-417 114,-116 261,-256 352,-391 69,-118 48,-292 -53,-385 0,-1 -541,-308 -470,-547 44,-151 87,-242 146,-380 31,-110 -32,-662 -56,-795 -48,-206 1637,-952 1511,-1061 -23,-199 828,-846 1023,-987 0,0 -107,0 -2,-84 45,-40 202,-228 53,-139 -69,46 -214,212 -214,212 0,0 -165,121 -191,90 -22,-27 1,-28 -28,-34 -30,-6 13,-40 -31,-4 -136,112 -27,200 -209,222 -63,8 -152,-10 -177,60 -23,65 -78,192 -78,192 0,0 -200,134 -259,218 -53,75 -47,10 -135,36 -102,39 -94,68 -160,135 -197,236 -374,454 -605,661 -203,180 -319,267 -498,483 -100,110 -174,268 -334,295 -127,31 -264,137 -351,234 -313,287 -910,645 -278,405 -137,119 -328,298 -484,378 -149,74 -429,371 -425,366 -118,95 -236,190 -354,286 0,0 -160,214 -247,302 -120,124 -361,371 -361,371 -1206,1152 -2493,2425 -3738,3514 -533,388 -1123,984 -1624,1437 -5057,4619 -10121,9229 -15187,13840 -1012,910 -2024,1820 -3037,2731 87,-105 173,-211 258,-316 -648,607 -1290,1226 -1957,1812 -387,341 -796,688 -1166,1047 -415,400 -906,744 -1302,1167 -1165,1150 -2483,2345 -3706,3443 -5022,4557 -10012,9165 -15008,13751 156,-175 313,-349 470,-524 0,0 -425,395 -642,587 -255,225 -774,664 -774,664 -153,141 -307,284 -460,426 -151,132 -672,589 -508,469 222,-173 662,-526 662,-526 0,0 -920,842 -1386,1255 -512,452 -1005,926 -1505,1391 l 876,1602 428,-424 c 196,-173 391,-346 586,-518 827,-781 1656,-1562 2483,-2343 350,-343 1030,-1014 1417,-1251 352,-179 583,-419 888,-675 1381,-1153 1915,-1731 3128,-2981 543,-554 1212,-1100 1799,-1618 z"
       id="path281"
       inkscape:connector-curvature="0"
       style="fill:#ffff00;fill-opacity:1;fill-rule:nonzero" /><path
       class="fil3"
       d="m 125584,284956 c -25,-21 -50,-42 -75,-64 -78,145 723,-1384 757,-1400 39,-15 10,13 42,-16 86,-75 67,-97 72,-200 -40,-4 -80,-9 -121,-14 39,-21 76,-44 115,-66 35,15 69,30 103,45 4,28 8,57 11,86 30,-4 86,-78 94,-106 -3,-24 -7,-48 -10,-72 -22,-7 -43,-15 -65,-21 146,-119 158,-159 247,-317 -41,6 -82,13 -122,20 69,-123 236,-315 253,-453 22,49 47,-102 56,-161 20,-137 98,-836 139,-906 135,-234 407,-465 499,-714 9,-23 16,-46 25,-69 0,0 102,-212 167,-304 106,-185 139,-347 113,-557 -35,-207 -113,-352 -266,-497 -159,-135 -307,-197 -516,-211 -205,-3 -359,45 -526,165 -252,197 -685,534 -983,663 -4,1 -13,4 -17,6 -88,50 -231,78 -333,134 -128,71 -35,74 -183,39 -2,-1 -9,-4 -12,-5 2,-7 14,-49 16,-52 6,-8 21,-52 25,-65 -2,-9 -10,-19 -20,-20 -28,-4 -66,31 -86,50 2,-23 4,-45 6,-67 -14,-57 12,-110 -55,-72 -82,45 -31,82 0,164 -22,36 -44,71 -67,106 -45,-2 -90,-4 -135,-5 -60,32 -216,28 -280,27 -80,-2 -159,-2 -237,1 -72,19 -143,41 -214,64 -89,5 -178,13 -267,24 -67,-21 -223,-23 -223,-23 -41,55 -93,97 -159,116 -100,23 -205,95 -316,125 -85,25 -102,42 -166,96 -6,2 -78,70 -85,77 -18,17 -38,48 -49,58 -44,38 -38,113 -39,162 -1,2 3,12 3,14 31,102 320,62 320,60 -3,-53 633,136 718,-69 14,-34 31,-116 39,-133 40,-80 -13,-295 -44,-383 -2,-12 -12,-115 -11,-117 3,-7 542,-168 600,-187 148,-54 334,603 369,683 44,149 177,987 218,993 46,-14 71,126 80,144 76,397 4,777 -128,1153 -22,149 -315,609 -300,589 100,-51 46,50 21,93 -21,36 -207,396 -37,193 73,-95 193,-371 193,-371 0,1 140,-234 169,-221 35,16 7,33 41,19 32,-13 0,53 31,-17 40,-95 45,-133 29,-231 1,-85 37,-128 90,-195 63,-78 150,-146 133,-255 -15,-102 -51,-302 -51,-302 28,-152 37,-313 17,-467 1,-8 -8,-42 -11,-52 -33,-132 19,-65 39,-191 13,-140 -18,-172 -58,-294 -98,-248 -206,-432 -349,-655 -10,-25 -123,-180 -147,-217 -123,-184 -164,-263 -349,-399 -80,-67 -173,-83 -205,-191 0,0 58,43 71,52 205,157 317,378 385,623 28,118 41,210 44,330 3,186 -13,325 -60,504 -86,289 -199,493 -402,714 -651,633 -320,255 -70,-67 16,-13 85,-133 97,-157 -22,30 -108,120 -118,137 -200,197 -388,311 -654,403 0,0 69,-4 84,0 56,15 205,-54 205,-54 47,-7 94,-13 141,-17 0,0 58,-69 88,-86 36,-20 109,-62 109,-62 207,-78 524,-207 745,-192 25,15 130,26 157,22 171,4 322,-6 491,-26 311,-46 542,-114 832,-236 538,-272 956,-603 1415,-989 -217,146 -416,200 -677,186 -257,-26 -441,-110 -631,-284 -178,-181 -267,-360 -300,-613 -21,-248 23,-439 155,-651 0,0 -420,884 -586,1263 -91,187 -180,375 -269,563 -10,-28 -19,-57 -29,-86 -38,120 -73,266 -133,374 -27,49 -88,154 -97,204 -13,61 -116,138 -108,223 -1,77 -186,600 -230,679 -425,959 -760,1791 -1274,2724 0,-47 1,-94 0,-141 0,0 -43,87 -71,125 -32,46 -111,129 -111,129 -17,32 -34,64 -51,95 13,-16 -94,128 -59,105 42,-27 123,-91 123,-91 0,0 -112,189 -176,274 -104,138 -173,324 -280,461 -304,474 -235,497 -744,1111 -87,101 -206,225 -282,329 -3,6 -3,3 -2,3 -101,121 -189,211 -315,305 -115,80 -184,114 -308,165 -1,1 -43,20 -43,20 -63,4 -125,-4 -183,-28 -7,-7 -45,-46 -46,-47 -43,-26 -112,-239 -124,-289 -17,-22 -60,-36 -89,-63 -1,0 -11,-18 -11,-18 -27,-10 -72,-120 -84,-149 -20,-50 -29,-111 -62,-152 -108,-134 -294,-459 -292,-454 9,-32 17,-63 26,-94 -16,-71 -390,-667 -460,-784 -74,-124 -166,-288 -228,-417 -32,-66 -38,-122 -24,-193 -6,-61 116,-170 117,-171 0,-2 220,-165 249,-194 40,-51 281,-130 350,-218 22,-27 189,-191 213,-188 -24,-46 -64,-126 -35,-175 131,-150 258,-250 372,-419 67,-98 249,-244 293,-341 62,-110 257,-374 344,-466 157,-168 546,-328 614,-583 17,-57 52,-183 60,-45 15,-15 31,-31 46,-48 51,-25 101,-50 152,-74 43,5 87,9 130,14 0,0 53,-46 -1,-63 -40,-11 -69,-7 -103,16 -247,362 -793,608 -1212,473 -120,-59 -878,-269 -898,-329 -43,71 -167,248 -260,196 -141,-117 -263,90 -360,158 -79,56 -219,163 -308,186 -59,15 -219,286 -301,357 -50,43 -217,210 -248,255 -434,296 -682,623 -847,1123 -137,499 -115,899 77,1381 0,1 76,150 86,173 65,151 173,384 270,518 -76,-41 -152,-83 -228,-125 0,0 136,282 219,377 55,71 117,156 154,238 -9,49 -18,99 -27,149 112,267 257,577 432,807 54,124 -9,-24 -21,-61 0,0 102,183 140,232 129,165 295,320 454,460 45,41 408,380 422,403 12,22 148,128 145,123 390,221 805,288 1248,261 3,0 25,-2 25,-2 210,-25 392,-77 577,-179 178,-77 320,-157 477,-269 74,-29 363,-312 430,-384 107,-77 198,-158 287,-256 -44,50 4,-5 -19,22 0,0 14,-15 15,-17 335,-377 661,-760 978,-1153 112,-147 208,-324 257,-505 31,-40 62,-80 93,-121 101,-191 199,-384 293,-579 0,0 105,-275 196,-273 113,3 99,-26 178,-111 323,-326 203,-288 268,-688 11,-76 143,-261 189,-333 z"
       id="path283"
       inkscape:connector-curvature="0"
       style="fill:#ffff00;fill-opacity:1;fill-rule:nonzero" /><path
       class="fil3"
       d="m 123739,280328 c -32,13 -63,27 -94,40 -152,-156 -280,-277 -449,-419 -633,-476 -1079,-571 -1690,-910 -39,-47 16,-11 -44,-52 -155,-108 -190,-95 -366,-118 13,46 25,91 38,137 -57,-49 -114,-97 -172,-145 7,-37 14,-75 21,-113 47,2 95,3 142,4 -25,-40 -187,-117 -236,-130 -39,0 -79,0 -120,-1 -1,24 -2,48 -2,72 -273,-179 -446,-241 -747,-352 41,49 82,100 124,149 -328,-122 -749,-337 -1086,-387 74,-14 -279,-80 -381,-96 -648,-100 -1460,-165 -2071,-291 -83,-24 -556,-164 -595,-190 -116,-78 -1079,-342 -1263,-370 -51,-8 -102,-14 -153,-22 -1435,-308 -2836,-545 -4297,-686 -256,-28 -584,-51 -837,-14 -266,38 -117,67 -419,17 27,-38 53,-77 81,-116 -40,-54 -210,9 -260,31 1,-23 1,-45 1,-67 -57,-72 -1,-113 -143,-68 -162,49 -66,72 34,164 -41,36 -81,74 -120,112 -85,2 -170,7 -254,13 -102,41 -312,63 -419,76 -23,2 -99,15 -116,14 -10,1 -19,2 -29,4 0,0 -229,51 -249,56 -115,49 -225,107 -332,172 -128,51 -251,112 -370,180 -99,21 -291,117 -290,117 -33,82 -75,151 -141,210 -99,80 -184,214 -280,308 -1,1 -8,8 -8,8 -49,26 -101,201 -135,258 -49,73 -118,176 -139,263 -17,108 97,240 180,297 171,90 488,271 567,447 26,100 32,161 47,257 30,101 311,466 390,559 47,100 -440,514 -538,621 0,0 -24,51 -27,51 -2,-4 -105,-33 -11,-10 64,19 86,-60 89,-59 60,-179 23,-377 -41,-550 -33,-78 -90,-189 -155,-247 0,0 85,76 85,76 0,0 -11,-85 66,-37 22,14 151,67 170,52 6,2 37,18 26,-7 0,0 -56,-46 -60,-50 -55,-35 -123,-74 -188,-85 -33,-14 -17,-45 -1,-63 10,-12 19,-23 29,-34 2,-2 17,-19 15,-17 0,0 1,1 1,1 51,83 -78,89 90,168 43,20 170,76 160,140 0,1 2,22 2,25 5,107 -12,319 -12,319 27,108 33,229 14,338 1,12 -15,48 -22,58 -31,46 11,29 41,79 8,19 18,47 -14,42 -15,-7 -18,-20 -20,-35 l -15,27 c 69,-173 71,-293 162,-471 77,-147 109,-160 154,-332 24,-72 9,-173 112,-174 73,-6 114,-45 147,-107 106,-172 311,-244 19,-222 39,-44 103,-125 164,-132 11,-2 34,-15 41,-22 37,-36 64,-67 95,-107 39,-27 76,-52 116,-76 0,0 23,-87 43,-114 25,-35 79,-103 79,-103 85,-77 173,-145 273,-202 l -51,7 c 15,-30 635,-164 697,-143 94,32 487,8 615,10 2076,14 4133,381 6159,806 68,-1 565,128 671,152 459,116 916,238 1372,367 -50,8 -100,15 -149,23 281,61 580,115 851,207 140,46 327,118 467,144 153,29 330,156 494,161 236,22 1056,267 1290,369 541,206 1006,361 1534,625 77,29 348,302 428,376 73,67 107,156 155,235 28,79 30,133 15,216 10,93 -167,389 -167,401 -1,22 -138,224 -125,206 6,-48 12,-95 13,-143 0,0 -52,86 -84,122 -44,49 -148,136 -148,136 -27,36 -56,71 -85,106 22,-20 -152,147 -106,122 58,-31 172,-103 172,-103 0,0 -206,226 -319,326 -205,181 -385,403 -604,572 -666,577 -683,672 -1587,1255 -36,22 -180,103 -202,124 -608,358 -987,547 -1649,742 -3,2 -120,42 -127,43 -126,21 -252,34 -380,42 -275,-30 -548,-87 -815,-161 -253,3 -124,66 -522,-23 -50,-12 -115,-38 -160,-46 -24,-5 -35,-14 -64,-11 -168,13 -516,-62 -516,-62 -20,-28 -41,-56 -61,-84 -330,-110 -800,-200 -1166,-310 -594,-174 -1166,-436 -1747,-620 -161,-35 -439,-250 -641,-300 -52,-13 -447,-146 -458,-171 -42,58 -104,109 -180,96 -319,-97 -610,-221 -936,-306 -242,-63 -538,-227 -771,-271 -300,-72 -759,-234 -1042,-358 -553,-244 -1084,-697 -1684,-877 -56,-19 -471,-146 -158,-105 -54,-30 -109,-60 -164,-91 -123,-94 -246,-189 -368,-285 -46,-69 -92,-138 -137,-208 8,6 -196,-132 -170,-56 26,72 190,196 190,196 706,399 2021,1141 2369,1856 156,467 434,728 564,1200 0,0 605,175 601,295 3,201 503,333 658,407 192,91 461,201 630,320 116,82 663,175 852,243 498,179 1018,273 1515,481 274,113 581,228 871,297 -116,15 -231,28 -347,39 0,0 421,153 619,178 32,5 374,82 374,82 42,44 84,87 126,131 255,84 476,147 744,189 166,56 678,106 866,90 180,-18 351,-53 532,-75 181,-13 370,2 547,53 0,0 501,-49 752,-85 19,-3 75,-17 88,-17 91,-1 415,-142 401,-134 371,-120 723,-282 1062,-474 0,0 306,-118 443,-193 73,-40 267,-164 327,-186 556,-331 1073,-675 1598,-1053 246,-186 471,-399 660,-645 66,-53 131,-106 195,-160 240,-245 472,-502 683,-774 -4,8 233,-373 346,-388 123,-19 114,-35 199,-139 12,-10 60,-79 73,-96 184,-247 327,-475 411,-774 98,-395 46,-719 -73,-1105 -3,-32 -90,-223 -109,-261 -119,-255 -198,-419 -363,-656 -15,-39 -165,-216 -201,-258 z"
       id="path285"
       inkscape:connector-curvature="0"
       style="fill:#ffff00;fill-opacity:1;fill-rule:nonzero" /><path
       class="fil3"
       d="m 130881,273362 c -676,295 -1415,527 -2044,882 -50,28 -613,332 -253,79 -82,30 -164,60 -245,89 -208,50 -416,98 -625,140 -108,-4 -215,-10 -323,-16 25,-5 -320,73 -219,102 103,30 364,-30 364,-30 863,-273 2498,-887 3567,-1079 l -222,-167 z"
       id="path287"
       inkscape:connector-curvature="0"
       style="fill:#ffff00;fill-opacity:1;fill-rule:nonzero" /><path
       class="fil3"
       d="m 116934,307795 c -293,-184 -373,-235 2,-1 l -2,1 z"
       id="path289"
       inkscape:connector-curvature="0"
       style="fill:#ffff00;fill-opacity:1;fill-rule:nonzero" /></g></svg>