<?xml version="1.0" encoding="UTF-8" standalone="no"?>
<!-- Creator: CorelDRAW X8 -->
<svg id="svg2" xml:space="preserve" height="69.589mm" clip-rule="evenodd" xmlns:cc="http://creativecommons.org/ns#" xmlns:dc="http://purl.org/dc/elements/1.1/" xmlns:rdf="http://www.w3.org/1999/02/22-rdf-syntax-ns#" style="image-rendering:optimizeQuality;text-rendering:geometricPrecision;shape-rendering:geometricPrecision" xmlns="http://www.w3.org/2000/svg" fill-rule="evenodd" viewBox="0 0 701624.87 1157686.5" width="42.175mm" version="1.1" xmlns:xlink="http://www.w3.org/1999/xlink"><metadata id="metadata949"><rdf:RDF><cc:Work rdf:about=""><dc:format>image/svg+xml</dc:format><dc:type rdf:resource="http://purl.org/dc/dcmitype/StillImage"/><dc:title/></cc:Work></rdf:RDF></metadata><defs id="defs4"><style id="style6" type="text/css"><![CDATA[
    .fil23 {fill:none}
    .fil0 {fill:black}
    .fil22 {fill:black}
    .fil11 {fill:#00A0E3}
    .fil16 {fill:#00A0E3}
    .fil7 {fill:#9D9E9E}
    .fil9 {fill:#FEFEFE}
    .fil18 {fill:#FEFEFE;fill-rule:nonzero}
    .fil19 {fill:#9D9E9E;fill-rule:nonzero}
    .fil5 {fill:#FEFEFE;fill-rule:nonzero}
    .fil10 {fill:red;fill-rule:nonzero}
    .fil13 {fill:red;fill-rule:nonzero}
    .fil14 {fill:white;fill-rule:nonzero}
    .fil8 {fill:url(#id0)}
    .fil15 {fill:url(#id1)}
    .fil17 {fill:url(#id2)}
    .fil6 {fill:url(#id3)}
    .fil12 {fill:url(#id4)}
    .fil21 {fill:url(#id5)}
    .fil20 {fill:url(#id6)}
    .fil3 {fill:url(#id7)}
    .fil2 {fill:url(#id8)}
    .fil4 {fill:url(#id9)}
    .fil1 {fill:url(#id10)}
   ]]></style><linearGradient id="id0" y2="7.3675e5" gradientUnits="userSpaceOnUse" x2="8.2153e5" y1="1.0941e6" x1="1.0306e6"><stop id="stop9" stop-color="#1C1B17" offset="0"/><stop id="stop11" stop-color="#434242" offset=".52941"/><stop id="stop13" stop-color="#1C1B17" offset="1"/></linearGradient><linearGradient id="id1" y2="7.3675e5" xlink:href="#id0" gradientUnits="userSpaceOnUse" x2="3.0521e6" y1="1.0941e6" x1="3.2612e6"/><linearGradient id="id2" y2="2.7322e5" xlink:href="#id0" gradientUnits="userSpaceOnUse" x2="2.7523e6" y1="1.5925e6" x1="3.5243e6"/><linearGradient id="id3" y2=".94136" x2=".61107" x1=".61107"><stop id="stop18" stop-color="#00A0E3" offset="0"/><stop id="stop20" offset="1"/></linearGradient><linearGradient id="id4" y2="2.7322e5" xlink:href="#id0" gradientUnits="userSpaceOnUse" x2="5.2177e5" y1="1.5925e6" x1="1.2938e6"/><linearGradient id="id5" y2="3.6375e5" gradientUnits="userSpaceOnUse" x2="2.343e6" y1="6.4589e5" x1="2.0909e6"><stop id="stop24" stop-color="#fe0" offset="0"/><stop id="stop26" offset="1"/></linearGradient><linearGradient id="id6" y2="3.6375e5" xlink:href="#id5" gradientUnits="userSpaceOnUse" x2="1.769e6" y1="6.459e5" x1="2.0212e6"/><linearGradient id="id7" y2="1.5385e6" gradientUnits="userSpaceOnUse" x2="2.343e6" y1="1.2564e6" x1="2.0909e6"><stop id="stop30" stop-color="red" offset="0"/><stop id="stop32" offset="1"/></linearGradient><linearGradient id="id8" y2="1.5385e6" xlink:href="#id7" gradientUnits="userSpaceOnUse" x2="1.769e6" y1="1.2564e6" x1="2.0212e6"/><radialGradient id="id9" gradientUnits="userSpaceOnUse" cy="9.0892e5" cx="9.3294e5" gradientTransform="matrix(1.1398 -0.0278 0.0278 1.1398 -1.5572e5 -1.0116e5)" r="6.3331e5"><stop id="stop36" offset="0"/><stop id="stop38" offset=".67059"/><stop id="stop40" stop-color="#00A0E3" offset="1"/></radialGradient><radialGradient id="id10" xlink:href="#id9" gradientUnits="userSpaceOnUse" cy="9.0893e5" cx="3.1635e6" gradientTransform="matrix(1.1398 -0.0278 0.0278 1.1398 -4.676e5 -39147)" r="6.3331e5"/></defs><polygon id="polygon23" style="image-rendering:optimizeQuality;shape-rendering:geometricPrecision" fill-rule="evenodd" transform="matrix(1.6646 0 0 1.6646 36395 1.4312e5)" class="fil1" points="49689 1.7295e5 69431 1.6155e5 69431 1.7426e5 96732 1.7426e5 96732 1.9443e5 69431 1.9443e5 69431 2.0714e5 49689 1.9574e5 29949 1.8435e5" clip-rule="evenodd" fill="#11de15"/></svg>
