<?xml version="1.0" encoding="UTF-8" standalone="no"?>
<!-- Creator: CorelDRAW X8 -->

<svg
   xmlns:dc="http://purl.org/dc/elements/1.1/"
   xmlns:cc="http://creativecommons.org/ns#"
   xmlns:rdf="http://www.w3.org/1999/02/22-rdf-syntax-ns#"
   xmlns:svg="http://www.w3.org/2000/svg"
   xmlns="http://www.w3.org/2000/svg"
   xmlns:xlink="http://www.w3.org/1999/xlink"
   xmlns:sodipodi="http://sodipodi.sourceforge.net/DTD/sodipodi-0.dtd"
   xmlns:inkscape="http://www.inkscape.org/namespaces/inkscape"
   xml:space="preserve"
   width="42.175125mm"
   height="69.589119mm"
   version="1.1"
   style="clip-rule:evenodd;fill-rule:evenodd;image-rendering:optimizeQuality;shape-rendering:geometricPrecision;text-rendering:geometricPrecision"
   viewBox="0 0 701624.87 1157686.5"
   id="svg2"
   inkscape:version="0.91 r13725"
   sodipodi:docname="left_rear_door_open.svg"><metadata
     id="metadata949"><rdf:RDF><cc:Work
         rdf:about=""><dc:format>image/svg+xml</dc:format><dc:type
           rdf:resource="http://purl.org/dc/dcmitype/StillImage" /><dc:title></dc:title></cc:Work></rdf:RDF></metadata><sodipodi:namedview
     pagecolor="#ffffff"
     bordercolor="#666666"
     borderopacity="1"
     objecttolerance="10"
     gridtolerance="10"
     guidetolerance="10"
     inkscape:pageopacity="0"
     inkscape:pageshadow="2"
     inkscape:window-width="1280"
     inkscape:window-height="980"
     id="namedview947"
     showgrid="false"
     inkscape:zoom="1.9655172"
     inkscape:cx="-85.111739"
     inkscape:cy="92.254752"
     inkscape:window-x="-6"
     inkscape:window-y="0"
     inkscape:window-maximized="0"
     inkscape:current-layer="svg2"
     fit-margin-top="0"
     fit-margin-left="0"
     fit-margin-right="0"
     fit-margin-bottom="0" /><defs
     id="defs4"><style
       type="text/css"
       id="style6"><![CDATA[
    .fil23 {fill:none}
    .fil0 {fill:black}
    .fil22 {fill:black}
    .fil11 {fill:#00A0E3}
    .fil16 {fill:#00A0E3}
    .fil7 {fill:#9D9E9E}
    .fil9 {fill:#FEFEFE}
    .fil18 {fill:#FEFEFE;fill-rule:nonzero}
    .fil19 {fill:#9D9E9E;fill-rule:nonzero}
    .fil5 {fill:#FEFEFE;fill-rule:nonzero}
    .fil10 {fill:red;fill-rule:nonzero}
    .fil13 {fill:red;fill-rule:nonzero}
    .fil14 {fill:white;fill-rule:nonzero}
    .fil8 {fill:url(#id0)}
    .fil15 {fill:url(#id1)}
    .fil17 {fill:url(#id2)}
    .fil6 {fill:url(#id3)}
    .fil12 {fill:url(#id4)}
    .fil21 {fill:url(#id5)}
    .fil20 {fill:url(#id6)}
    .fil3 {fill:url(#id7)}
    .fil2 {fill:url(#id8)}
    .fil4 {fill:url(#id9)}
    .fil1 {fill:url(#id10)}
   ]]></style><linearGradient
       id="id0"
       gradientUnits="userSpaceOnUse"
       x1="1030640"
       y1="1094090"
       x2="821532"
       y2="736752"><stop
         offset="0"
         style="stop-opacity:1; stop-color:#1C1B17"
         id="stop9" /><stop
         offset="0.529412"
         style="stop-opacity:1; stop-color:#434242"
         id="stop11" /><stop
         offset="1"
         style="stop-opacity:1; stop-color:#1C1B17"
         id="stop13" /></linearGradient><linearGradient
       id="id1"
       gradientUnits="userSpaceOnUse"
       xlink:href="#id0"
       x1="3261210"
       y1="1094090"
       x2="3052100"
       y2="736752" /><linearGradient
       id="id2"
       gradientUnits="userSpaceOnUse"
       xlink:href="#id0"
       x1="3524330"
       y1="1592490"
       x2="2752340"
       y2="273220" /><linearGradient
       id="id3"
       gradientUnits="objectBoundingBox"
       x1="0.61107498"
       y1="0"
       x2="0.61107498"
       y2="0.94135904"><stop
         offset="0"
         style="stop-opacity:1; stop-color:#00A0E3"
         id="stop18" /><stop
         offset="1"
         style="stop-opacity:1; stop-color:black"
         id="stop20" /></linearGradient><linearGradient
       id="id4"
       gradientUnits="userSpaceOnUse"
       xlink:href="#id0"
       x1="1293760"
       y1="1592480"
       x2="521771"
       y2="273220" /><linearGradient
       id="id5"
       gradientUnits="userSpaceOnUse"
       x1="2090880"
       y1="645894"
       x2="2343020"
       y2="363752"><stop
         offset="0"
         style="stop-opacity:1; stop-color:#FFEE00"
         id="stop24" /><stop
         offset="1"
         style="stop-opacity:1; stop-color:black"
         id="stop26" /></linearGradient><linearGradient
       id="id6"
       gradientUnits="userSpaceOnUse"
       xlink:href="#id5"
       x1="2021190"
       y1="645896"
       x2="1769050"
       y2="363754" /><linearGradient
       id="id7"
       gradientUnits="userSpaceOnUse"
       x1="2090880"
       y1="1256390"
       x2="2343020"
       y2="1538530"><stop
         offset="0"
         style="stop-opacity:1; stop-color:red"
         id="stop30" /><stop
         offset="1"
         style="stop-opacity:1; stop-color:black"
         id="stop32" /></linearGradient><linearGradient
       id="id8"
       gradientUnits="userSpaceOnUse"
       xlink:href="#id7"
       x1="2021190"
       y1="1256390"
       x2="1769050"
       y2="1538530" /><radialGradient
       id="id9"
       gradientUnits="userSpaceOnUse"
       gradientTransform="matrix(1.13982,-0.0277996,0.0277996,1.13983,-155715,-101155)"
       cx="932935"
       cy="908924"
       r="633314"
       fx="932935"
       fy="908924"><stop
         offset="0"
         style="stop-opacity:1; stop-color:black"
         id="stop36" /><stop
         offset="0.670588"
         style="stop-opacity:1; stop-color:black"
         id="stop38" /><stop
         offset="1"
         style="stop-opacity:1; stop-color:#00A0E3"
         id="stop40" /></radialGradient><radialGradient
       id="id10"
       gradientUnits="userSpaceOnUse"
       gradientTransform="matrix(1.13982,-0.0277996,0.0277996,1.13983,-467602,-39147)"
       xlink:href="#id9"
       cx="3163500"
       cy="908926"
       r="633314"
       fx="3163500"
       fy="908926" /><linearGradient
       id="id0-5"
       gradientUnits="userSpaceOnUse"
       x1="79084.102"
       y1="115915"
       x2="67443.102"
       y2="-18480.199"
       gradientTransform="matrix(7.0495335,0,0,7.0495335,1995504.6,2276777.5)"><stop
         offset="0"
         style="stop-opacity:1; stop-color:#FFEE00"
         id="stop9-4" /><stop
         offset="1"
         style="stop-opacity:1; stop-color:black"
         id="stop11-0" /></linearGradient><linearGradient
       id="id0-1"
       gradientUnits="userSpaceOnUse"
       x1="188342"
       y1="271404"
       x2="161233"
       y2="-45430.301"
       gradientTransform="matrix(2.2018915,0,0,2.2018915,-70702.284,-60836.631)"><stop
         offset="0"
         style="stop-opacity:1; stop-color:#00A0E3"
         id="stop9-0" /><stop
         offset="1"
         style="stop-opacity:1; stop-color:black"
         id="stop11-9" /></linearGradient><linearGradient
       gradientTransform="matrix(2.1821573,0,0,2.1821573,-67498.784,-67956.061)"
       id="id0-4"
       gradientUnits="userSpaceOnUse"
       x1="188673"
       y1="276543"
       x2="160901"
       y2="-44088.699"><stop
         offset="0"
         style="stop-opacity:1; stop-color:#FFEE00"
         id="stop9-7" /><stop
         offset="1"
         style="stop-opacity:1; stop-color:black"
         id="stop11-8" /></linearGradient><linearGradient
       gradientTransform="matrix(3.6129096,0,0,3.6129096,1831067.8,1270976.8)"
       id="id0-8"
       gradientUnits="userSpaceOnUse"
       x1="83317.703"
       y1="182544"
       x2="83317.703"
       y2="249145"><stop
         offset="0"
         style="stop-opacity:1; stop-color:red"
         id="stop9-3" /><stop
         offset="1"
         style="stop-opacity:1; stop-color:black"
         id="stop11-3" /></linearGradient></defs><g
     transform="matrix(1.9940252,0,0,1.9940252,-27546.784,-16290.841)"
     id="g215"
     style="clip-rule:evenodd;fill:#ffff00;fill-opacity:1;fill-rule:evenodd;image-rendering:optimizeQuality;shape-rendering:geometricPrecision;text-rendering:geometricPrecision"><path
       class="fil3"
       d="m 95564,377420 c 3482,-2331 7423,-4083 10954,-6547 743,-526 1503,-1092 2194,-1681 3038,-2593 6101,-5161 9131,-7763 1834,-1608 3789,-3115 5635,-4721 1216,-1053 2436,-2089 3664,-3126 l -1412,-1268 c -406,336 -814,670 -1222,1002 -2344,1906 -4605,4013 -6912,5981 -3056,2605 -6059,5299 -9147,7862 -279,232 -562,464 -838,700 -2470,1971 -4579,3263 -7291,4779 1151,-691 2293,-1395 3404,-2150 -2072,1292 -4239,2417 -6362,3625 -411,1025 -1019,2132 -1798,3307 z"
       id="path217"
       inkscape:connector-curvature="0"
       style="fill:#ffff00;fill-opacity:1;fill-rule:nonzero" /><path
       class="fil3"
       d="m 130418,357789 -396,355 c -179,168 -276,335 -328,575 -6,34 -10,66 -13,99 -807,739 -1612,1484 -2422,2219 186,-201 372,-403 559,-604 0,0 -498,461 -752,687 -298,263 -902,779 -902,779 -178,165 -357,331 -536,495 -174,155 -783,691 -591,546 256,-204 764,-618 764,-618 -535,487 -1070,975 -1610,1457 -840,745 -1641,1536 -2480,2280 -1798,1644 -3518,3291 -5365,4939 -1718,1534 -4372,3733 -5935,5400 -350,318 -701,636 -1052,954 -673,557 -1348,1114 -2023,1669 -340,340 -516,565 -929,935 -184,164 -382,318 -555,494 -526,522 -1070,1041 -1604,1556 -89,52 -177,104 -265,156 -748,669 -1504,1446 -2227,2153 -613,600 -1262,1200 -1855,1818 -33,46 -161,136 -210,177 -566,473 -1199,1054 -1724,1578 -123,123 -1695,1674 -1702,1677 6,168 -154,367 -256,484 -745,796 -1510,1603 -2158,2481 -321,434 -802,991 -1038,1463 -263,484 -463,898 -688,1398 -187,393 -405,791 -599,1190 -119,157 -429,982 -502,1209 -32,98 -367,1157 -189,414 -61,150 -121,300 -179,452 -188,418 -362,843 -527,1272 -117,232 -231,466 -341,702 -7,19 -281,859 -157,654 150,-282 356,-917 356,-917 414,-1329 907,-2545 1589,-3763 140,-295 658,-985 984,-1097 526,-196 859,-532 1423,-733 142,-253 570,-919 807,-1031 242,-39 1280,-1309 1515,-1554 641,-670 1312,-1352 2006,-1967 865,-782 1736,-1731 2600,-2555 11,-23 85,-104 105,-127 453,-486 806,-940 1317,-1397 415,-371 1262,-1195 1262,-1195 -126,183 -250,367 -373,551 0,0 708,-651 1027,-994 241,-251 475,-484 729,-719 139,-87 279,-174 418,-262 1061,-947 2272,-2018 3230,-3052 252,-290 489,-578 752,-858 300,-305 630,-589 983,-834 463,-431 931,-864 1403,-1287 312,-276 911,-878 911,-878 757,-710 1514,-1419 2273,-2127 0,0 708,-590 1052,-894 1840,-1634 3681,-3268 5522,-4902 765,-679 2261,-2155 2261,-2155 224,-199 448,-398 673,-598 962,-903 1925,-1807 2888,-2710 428,-415 1185,-1162 1653,-1466 399,-223 683,-509 1032,-806 l 383,-322 -150,-299 c -40,-3 -82,-9 -125,-17 -180,-39 -309,-100 -457,-210 -124,-57 -245,-286 -316,-392 312,628 727,1220 1091,1825 313,527 594,1187 862,1746 39,7 78,14 117,21 1229,2482 2460,4973 3665,7467 -71,-161 -86,-291 -52,-462 -6,-50 48,-151 102,-233 l -33,-65 c -316,227 -493,399 -772,675 86,-22 173,-44 259,-66 -167,106 -334,212 -500,318 -41,-16 -80,-31 -121,-46 82,-89 165,-178 247,-267 -136,63 -457,322 -578,428 -68,74 -136,148 -203,221 31,4 61,8 92,12 -598,412 -1112,818 -1676,1272 128,-62 257,-125 386,-187 -712,573 -1525,1134 -2188,1753 64,-76 -409,333 -698,597 -1127,1040 -2315,2202 -3474,3185 -1229,974 -2551,1863 -3746,2874 -99,85 -197,169 -296,254 -3124,2503 -6256,5008 -9414,7467 -716,553 -1448,1122 -2131,1715 -504,440 -569,516 -1146,925 49,-87 97,-174 146,-262 -154,49 -588,469 -723,600 -14,-18 -28,-35 -41,-53 -298,90 -125,-34 -465,271 -458,413 -156,211 203,52 -101,122 -200,246 -301,368 -266,207 -533,414 -800,620 -421,384 -960,785 -1413,1130 -353,268 -707,536 -1061,804 -278,232 -557,464 -835,696 -321,239 -642,478 -963,717 -250,146 -729,474 -729,474 0,0 -331,350 -484,465 -303,227 -580,490 -887,720 -264,198 -455,417 -703,628 -235,194 -496,398 -711,615 -97,103 -256,369 -118,494 0,1 664,238 431,579 -142,208 -273,368 -429,560 -110,160 -322,861 -371,1073 -13,71 -279,264 -619,487 l 30,-5 c 195,-151 388,-305 589,-482 214,-181 434,-436 702,-531 227,-81 669,-432 669,-432 340,-263 1799,-1176 620,-620 270,-202 584,-457 875,-617 269,-146 754,-564 754,-564 200,-144 400,-288 600,-432 0,0 293,-291 446,-419 204,-172 611,-515 611,-515 1797,-1446 3625,-2984 5444,-4382 684,-449 1407,-1079 2058,-1594 5162,-4126 10288,-8298 15380,-12512 862,-703 1722,-1407 2583,-2112 -71,84 -141,169 -211,254 533,-460 1062,-933 1611,-1373 313,-249 651,-508 945,-774 326,-295 730,-534 1038,-852 879,-819 1929,-1702 2859,-2473 177,-143 347,-303 524,-442 199,-172 308,-345 371,-600 l 9,-56 459,-380 -365,-667 -307,-535 c -128,-226 -251,-463 -371,-705 l -5789,-10575 z m -39861,45510 -547,-37 c 412,96 -230,56 -285,53 -164,-8 -334,-7 -496,-17 -337,-20 -590,-89 -890,-245 -297,-167 -494,-339 -698,-611 -195,-278 -299,-520 -366,-852 -83,-697 -212,-1990 -40,7 62,341 167,590 362,876 13,31 136,174 164,205 174,184 327,305 548,430 310,162 568,235 916,258 226,10 454,20 682,27 l 650,-94 z m 45789,-34681 -244,214 192,376 28,6 c 156,43 262,97 388,198 32,16 111,104 174,189 l -538,-983 z"
       id="path219"
       inkscape:connector-curvature="0"
       style="fill:#ffff00;fill-opacity:1;fill-rule:nonzero" /><path
       class="fil3"
       d="m 94475,401315 c 16,28 32,55 48,84 79,-70 -976,847 -1026,845 -38,-5 -5,-16 -41,-6 -99,26 -89,55 -125,137 33,22 66,44 99,66 -40,2 -80,3 -120,5 -25,-28 -49,-56 -74,-84 6,-26 12,-52 18,-78 -26,-9 -99,27 -115,48 -5,22 -9,43 -14,65 16,16 32,32 48,48 -167,36 -184,61 -317,158 38,12 75,25 113,37 -101,74 -310,162 -370,271 -6,-50 -87,84 -101,108 l -1761,254 -153,-4 c -355,-18 -657,88 -996,114 -146,11 -474,113 -474,113 l 54,4 -28,4 c 120,-330 319,-631 679,-709 127,-12 837,-193 888,-161 0,0 -51,-238 60,-226 180,17 124,-140 150,-234 0,-1 1,-3 1,-4 -124,416 -330,701 -673,966 -208,147 -392,236 -611,297 l -417,60 -4,-23 c -43,-313 120,-497 173,-752 7,-82 -17,-356 -40,-436 -27,-64 1,-238 -16,-312 -24,-92 -24,-156 -22,-248 0,-1 -27,27 -59,23 -5,-1 -19,-13 -20,-16 0,-1 -82,-121 -72,-119 3,1 40,-23 51,-23 23,0 86,-14 108,-20 114,-29 367,49 437,30 373,-50 830,-23 1220,-58 136,-13 862,-95 930,-79 24,21 48,42 72,63 -5,1 353,-29 509,-70 49,-12 102,6 150,9 237,6 167,-47 252,-69 143,39 286,79 429,120 70,-1 141,-2 210,-3 137,-65 756,-47 907,-41 527,16 470,-89 517,-96 45,4 128,-48 161,-45 12,2 58,-3 67,-9 0,0 31,-3 27,-2 1,0 -20,-17 -23,-19 -1,-1 -16,-27 -18,-31 -6,-13 16,-11 21,-12 3,0 15,2 14,1 17,-3 34,-7 51,-11 0,0 60,18 89,18 27,0 84,-17 84,-17 -22,27 -44,57 -66,83 403,-79 53,-492 677,881 l -345,349 -13,2 c -1106,-2669 -655,-2223 -971,-1443 -25,58 -175,157 -229,197 z m -7874,2555 c 21,-83 41,-154 52,-193 -57,37 -66,-2 -57,-55 14,-65 -1,-270 -48,-125 -20,61 -24,249 -24,249 0,0 -42,142 -80,135 -29,-5 -20,-17 -43,-9 -26,9 -18,-28 -26,10 l -2,21 228,-33 z"
       id="path221"
       inkscape:connector-curvature="0"
       style="fill:#ffff00;fill-opacity:1;fill-rule:nonzero" /><path
       class="fil3"
       d="m 137409,370559 -395,320 c -2711,2183 -6007,4673 -8580,6994 -553,449 -1107,897 -1659,1346 -1093,832 -2187,1664 -3281,2495 -570,492 -1017,915 -1641,1415 -327,261 -665,510 -982,783 -1002,853 -2020,1693 -3028,2538 -158,100 -315,200 -472,300 -1594,1277 -3173,2632 -4748,3941 -1649,1375 -3360,2713 -4983,4110 -446,411 -1035,752 -1491,1173 -75,70 -855,748 -886,750 27,118 -32,217 -112,297 -483,438 -981,845 -1444,1304 -289,286 -706,584 -961,882 -273,294 -638,660 -938,926 -218,194 -530,340 -738,533 -393,300 -776,605 -1160,915 -116,87 -1148,788 -461,275 -147,83 -296,158 -451,225 l -286,41 c 795,-260 1372,-719 2375,-1431 342,-116 690,-290 1060,-265 518,55 955,-141 1501,-140 0,0 705,-675 818,-646 233,47 964,-658 1166,-818 391,-309 800,-653 1211,-930 471,-338 1154,-1056 1644,-1474 1289,-1085 2520,-2209 3843,-3262 974,-774 2917,-2386 2917,-2386 -317,321 -634,644 -951,966 757,-597 1519,-1231 2245,-1863 493,-426 996,-859 1506,-1265 254,-168 507,-334 760,-501 1959,-1563 4043,-3204 5899,-4875 443,-415 874,-834 1325,-1240 470,-417 1586,-1228 1585,-1228 736,-608 1476,-1214 2220,-1812 478,-382 1408,-1193 1407,-1192 1118,-929 2234,-1858 3351,-2787 0,0 986,-752 1468,-1139 l 2181,-1749 -834,-1526 z m -40153,31773 c -204,-14 -407,-32 -611,-52 -39,0 -1185,-30 -885,33 318,54 913,66 1156,68 l 340,-49 z"
       id="path223"
       inkscape:connector-curvature="0"
       style="fill:#ffff00;fill-opacity:1;fill-rule:nonzero" /><path
       class="fil3"
       d="m 81604,400911 c -2,33 -5,65 -7,97 -151,18 -798,81 -905,55 -14,-24 4,-15 -17,-30 -60,-42 -70,-8 -117,30 6,38 13,76 19,113 -20,-23 -39,-47 -58,-70 0,-37 0,-75 1,-112 13,-17 27,-34 41,-50 -8,-20 -52,-42 -72,-35 -11,14 -22,29 -33,42 0,23 0,45 1,68 -90,-77 -92,-66 -202,-77 11,33 21,67 31,100 -28,-3 -48,-12 -71,-16 -67,-10 -172,-53 -244,-20 25,-46 -104,14 -106,15 -66,28 -501,234 -535,225 -89,-23 -123,-79 -187,-110 -62,-30 -128,-94 -204,-98 -11,0 -24,-1 -36,-2 -95,-34 -186,-77 -269,-137 -66,-29 -365,-435 -412,-531 -34,-70 -93,-165 -155,-211 -84,-61 -87,0 -81,-117 41,-5 80,-8 121,-14 46,-29 -41,-61 -61,-69 21,-7 42,-13 64,-20 41,-25 108,-30 50,-63 -4,-3 -17,-11 -22,-12 -48,-13 -29,-2 -68,19 -15,9 -47,38 -64,50 -20,-2 -68,-9 -84,-7 -4,0 -29,-5 -35,-5 -12,-35 -24,-69 -35,-104 -48,-37 -72,-122 -85,-179 -8,-46 -16,-93 -23,-139 -23,-35 -45,-71 -67,-106 -2,-42 -4,-84 -6,-125 21,-23 53,-94 53,-94 0,0 -84,-27 -87,-61 -1,-35 -48,-67 -49,-114 -1,-43 -59,-53 -83,-93 -12,-23 -36,-72 -58,-87 0,1 -8,-11 -9,-12 -59,-61 -245,-82 -326,-81 -183,20 -562,58 -721,-19 -84,-57 -118,-92 -188,-158 -80,-58 -507,-211 -624,-253 -136,-44 99,-364 226,-578 l -235,208 -2,49 c -12,153 -34,159 11,321 15,76 79,146 -7,207 -61,52 -69,119 -59,194 0,9 6,104 4,105 -1,150 -47,179 121,65 0,47 6,115 -29,151 -29,30 5,135 5,135 -3,37 -6,74 -9,110 0,0 60,57 73,86 18,38 55,116 55,116 108,345 228,646 376,976 4,13 31,63 30,73 -12,75 103,290 140,363 270,487 536,838 937,1223 420,393 812,563 1363,693 23,12 312,46 358,50 155,25 311,43 467,56 -19,19 -38,38 -57,58 98,-9 218,-31 314,-17 44,6 144,19 183,9 36,-10 123,33 173,19 10,-2 17,-6 24,-13 38,-25 415,-100 467,-97 583,-57 1369,-238 1950,-374 -23,28 -45,56 -68,85 0,0 59,-18 88,-19 34,-2 105,11 105,11 21,-6 43,-13 64,-18 -7,0 96,-4 71,-19 -28,-16 -90,-40 -90,-40 0,0 130,-28 193,-32 93,-4 212,-71 305,-77 17,-2 52,-59 148,-93 135,-51 449,-79 595,-93 144,-14 807,-84 928,-175 61,-11 121,-22 181,-33 121,21 242,41 362,62 54,-23 9,-83 179,-100 35,-4 77,8 109,-11 86,-48 353,-137 340,-132 18,18 36,36 55,54 28,5 489,-161 558,-185 209,-69 440,-116 647,-186 21,-18 172,20 216,-14 63,-43 67,-38 138,-52 0,0 -7,-148 18,-166 94,-61 162,-68 253,-150 39,-36 168,-73 199,-114 35,-39 206,-155 255,-170 90,-30 317,82 435,-41 116,-112 39,19 43,12 14,-1 29,-1 42,-1 35,20 70,41 104,63 18,37 35,74 51,111 0,0 52,14 38,-38 -11,-34 -26,-59 -59,-74 -339,21 -582,-156 -708,-468 -36,-113 -333,-758 -327,-795 -49,40 -143,105 -174,16 -40,-175 -132,-71 -216,-63 -53,5 -154,21 -202,-3 -37,-18 -177,134 -248,160 -179,64 -302,195 -514,216 -127,16 -237,42 -355,89 36,-58 72,-117 108,-175 -97,13 -182,37 -266,88 -49,28 -116,62 -172,70 -30,-24 -60,-48 -89,-73 0,0 -523,65 -648,200 -51,57 -83,108 -140,156 -58,38 -114,27 -169,-13 0,0 -158,44 -236,51 -43,4 -148,66 -148,66 -117,38 -235,76 -352,113 0,0 -111,-20 -155,-17 -255,21 -510,40 -764,57 -9,0 -17,2 -26,2 -95,19 -172,62 -246,125 -27,1 -53,4 -80,6 -109,43 -220,85 -330,128 0,0 -148,88 -182,7 -34,-82 -23,-60 -108,-78 -263,-74 -211,23 -393,174 -39,32 -167,25 -217,25 z m -5191,-3733 c 1440,426 4619,1424 2,-3 l -2,3 z"
       id="path225"
       inkscape:connector-curvature="0"
       style="fill:#ffff00;fill-opacity:1;fill-rule:nonzero" /><path
       class="fil3"
       d="m 127643,354032 -71,70 c 0,0 -446,482 -496,525 -49,42 -99,82 -150,123 -153,133 -314,303 -458,448 -120,122 134,-351 19,-212 -59,63 -119,89 -166,0 1,-1 -35,57 -46,48 -13,-10 -62,33 -57,50 5,16 44,-4 44,-4 2,22 -4,36 -17,53 -10,13 -19,22 -28,35 -3,5 -16,16 -12,19 12,10 98,-101 44,-13 -2,2 -67,93 -32,61 24,-22 73,-66 72,-65 1,-1 -5,33 20,16 21,-14 -28,46 -32,51 -18,34 2,13 12,10 22,-12 93,-55 118,-45 26,11 0,29 61,-4 26,-10 75,-52 24,13 -3,5 -46,57 -18,55 47,2 -7,90 107,-74 17,16 18,22 4,45 -16,25 21,21 21,21 2,9 4,18 6,27 0,0 41,-28 61,-34 17,-4 50,-12 50,-12 0,1 322,20 312,43 -11,31 55,52 75,63 275,113 542,257 795,414 39,34 79,68 118,102 -21,8 -42,16 -64,23 28,9 92,22 108,47 8,13 25,38 42,40 19,2 -2,55 45,46 32,-4 194,64 207,87 15,27 770,532 678,467 -28,5 -56,9 -85,14 0,0 24,13 28,22 5,9 2,40 2,39 8,5 16,10 24,14 0,0 15,30 25,16 10,-15 26,-47 26,-47 0,0 40,31 50,52 10,22 90,49 100,72 25,20 88,-74 223,166 2,2 6,10 6,11 40,80 194,394 288,430 17,29 35,57 52,86 -7,70 -14,140 -22,210 25,19 79,-22 111,61 6,17 0,42 20,52 43,23 158,138 151,131 -16,14 -32,29 -48,43 -2,15 183,189 208,212 47,44 167,212 202,232 18,4 -14,75 19,84 37,12 33,9 51,39 0,0 143,-42 160,-36 64,20 70,42 148,51 16,3 35,12 54,21 l -1777,-3246 -1412,-1268 z m 3292,4701 -26,7 28,-2 13,24 c -218,68 -983,227 -15,-27 l 0,-2 z"
       id="path227"
       inkscape:connector-curvature="0"
       style="fill:#ffff00;fill-opacity:1;fill-rule:nonzero" /><path
       class="fil2"
       d="m 130430,358866 c 0,0 -580,-2220 -1819,-3965"
       id="path229"
       inkscape:connector-curvature="0"
       style="fill:#ffff00;fill-opacity:1" /><path
       class="fil3"
       d="m 85139,393853 c 13,32 26,63 40,95 -1010,987 -2200,2204 -3255,3102 -69,32 -19,-9 -96,47 -225,162 -270,234 -434,444 59,-4 119,-8 179,-11 -99,59 -198,118 -297,178 -34,-20 -69,-39 -102,-59 40,-58 78,-117 118,-176 -65,22 -274,200 -327,255 -32,49 -64,98 -96,147 24,8 48,17 72,24 -360,249 -606,467 -930,757 81,-29 160,-57 241,-87 -366,329 -863,683 -1174,1048 36,-73 -250,234 -362,360 -523,598 -1159,1394 -1709,1935 -246,214 -510,418 -775,620 l 1756,718 176,-165 c 447,-410 894,-821 1339,-1233 -30,56 -59,112 -89,168 273,-277 544,-569 834,-826 162,-143 360,-308 501,-465 162,-178 412,-316 556,-517 412,-478 1057,-1109 1523,-1551 2026,-1966 4034,-4045 5983,-6090 -51,87 -103,174 -154,260 0,0 164,-178 251,-261 102,-97 317,-282 317,-282 59,-64 118,-128 177,-191 65,-62 252,-244 197,-210 -96,67 -284,211 -284,211 0,0 358,-376 545,-556 290,-280 544,-610 833,-891 619,-657 1135,-1288 1838,-1997 363,-367 1899,-1888 2166,-2323 135,-145 270,-291 405,-438 288,-250 576,-502 863,-755 151,-209 84,-200 354,-489 79,-82 173,-159 239,-251 212,-298 680,-864 680,-864 50,-24 99,-49 149,-73 361,-397 752,-939 1089,-1373 383,-498 863,-1027 1206,-1540 67,-127 326,-307 412,-469 20,-39 205,-327 231,-331 -42,-47 -89,-117 -63,-180 126,-225 265,-409 370,-649 63,-145 239,-363 277,-501 59,-166 218,-496 310,-646 164,-269 547,-552 617,-887 12,-51 58,-255 67,-77 17,-26 36,-52 53,-78 61,-53 121,-107 182,-160 50,-11 101,-24 152,-34 -2,1 73,-92 12,-93 -53,2 -94,31 -129,69 -272,458 -774,1021 -1337,1039 -391,-38 -646,70 -1042,11 -40,94 -154,357 -274,343 -177,-65 -315,257 -403,365 -99,118 -239,304 -358,393 -72,54 -273,506 -363,631 -304,425 -518,843 -877,1245 -215,240 -681,831 -681,831 45,-130 90,-260 134,-391 0,0 -366,424 -507,643 -99,145 -211,303 -330,433 -77,43 -154,86 -231,129 -414,445 -1034,1112 -1340,1612 -84,158 -148,304 -242,455 -113,160 -238,274 -404,375 0,0 -348,400 -532,588 -113,116 -322,404 -322,404 -268,311 -538,623 -808,933 0,0 -274,234 -398,357 -650,651 -1304,1298 -1961,1942 -242,237 -733,870 -733,870 -77,75 -155,150 -232,225 -311,354 -625,708 -938,1060 8,-12 -385,504 -564,540 -186,39 -242,133 -390,259 -774,641 -635,593 -1184,1346 -166,221 -508,507 -717,703 z"
       id="path231"
       inkscape:connector-curvature="0"
       style="fill:#ffff00;fill-opacity:1;fill-rule:nonzero" /><path
       class="fil3"
       d="m 98098,377041 c 5,-40 10,-80 16,-120 237,-134 475,-274 713,-409 -170,88 -321,112 -510,83 -187,-38 -317,-112 -446,-253 -123,-146 -176,-287 -188,-477 -2,-191 41,-333 152,-489 -1572,2141 -3522,4586 -5355,6509 -94,79 -79,54 -183,156 -374,370 -626,677 -952,1081 102,-54 203,-108 304,-162 -196,177 -392,354 -589,529 -47,-4 -94,-9 -140,-13 97,-128 195,-257 291,-386 -190,140 -516,493 -681,678 -80,105 -160,211 -240,315 35,-5 71,-9 107,-15 -685,640 -1317,1278 -1976,1942 151,-106 301,-213 452,-319 -830,841 -1754,1657 -2545,2527 65,-85 -449,440 -793,810 -1189,1283 -2461,2709 -3704,3922 -1096,1002 -2313,1919 -3376,2940 -77,74 -154,148 -230,222 -995,895 -1998,1780 -3001,2667 -868,756 -1726,1522 -2585,2286 l 1964,802 c 609,-554 1219,-1107 1832,-1656 2220,-2067 4453,-4095 6656,-6187 921,-865 1836,-1737 2743,-2618 -78,104 -156,209 -233,313 605,-610 1200,-1234 1817,-1832 365,-354 752,-719 1095,-1091 390,-422 857,-792 1223,-1239 1108,-1249 2284,-2505 3415,-3743 2152,-2382 4150,-4835 6031,-7440 128,-186 179,-351 174,-577 -15,-225 -81,-384 -226,-557 -153,-164 -303,-247 -522,-291 -222,-31 -391,-3 -589,102 -543,317 -1067,630 -1579,948 -849,1496 -2023,3125 -3453,4857 l 325,-262 c 380,-296 759,-592 1136,-892 710,-544 1282,-1090 1971,-1633 479,-368 1148,-726 1679,-1028 z"
       id="path233"
       inkscape:connector-curvature="0"
       style="fill:#ffff00;fill-opacity:1;fill-rule:nonzero" /><path
       class="fil3"
       d="m 129559,356220 c -701,630 -1370,1300 -2073,1926 -1590,1466 -3097,2928 -4739,4401 -1580,1417 -4065,3486 -5496,5027 -338,308 -676,617 -1015,925 -669,554 -1337,1107 -2006,1660 -348,348 -531,579 -950,957 -191,170 -397,332 -577,514 -569,564 -1157,1118 -1734,1675 -96,60 -193,120 -290,180 -898,807 -1796,1712 -2672,2552 -913,883 -1903,1745 -2787,2647 -223,254 -618,480 -855,753 -45,51 -474,496 -502,498 39,81 40,159 -16,233 -275,305 -564,578 -820,902 -158,199 -446,439 -571,639 -152,216 -418,545 -600,735 -171,178 -710,498 -772,709 -18,55 -48,153 -55,31 -11,10 -26,22 -38,32 -34,8 -74,13 -109,8 -31,-21 -61,-44 -89,-70 -7,4 -412,-452 20,32 16,17 34,40 56,47 439,-240 761,-537 1329,-505 443,80 760,-50 1214,12 91,-117 363,-462 510,-455 193,69 585,-413 723,-536 221,-197 473,-442 714,-607 203,-155 666,-747 903,-985 719,-707 1367,-1440 2127,-2117 542,-485 1637,-1532 1637,-1532 -163,218 -327,437 -489,656 0,0 863,-788 1260,-1204 257,-261 569,-586 847,-824 154,-101 308,-202 462,-303 1118,-995 2409,-2139 3415,-3226 254,-290 492,-579 754,-861 299,-305 618,-578 968,-823 449,-418 898,-837 1355,-1248 296,-263 863,-839 863,-839 704,-665 1409,-1330 2114,-1993 0,0 652,-541 966,-821 1645,-1466 3290,-2932 4936,-4398 663,-591 1963,-1898 1963,-1898 195,-173 389,-347 584,-519 l 409,-389 -874,-1598 z"
       id="path235"
       inkscape:connector-curvature="0"
       style="fill:#ffff00;fill-opacity:1;fill-rule:nonzero" /></g></svg>