<?xml version="1.0" encoding="UTF-8" standalone="no"?>
<!-- Creator: CorelDRAW X8 -->

<svg
   xmlns:dc="http://purl.org/dc/elements/1.1/"
   xmlns:cc="http://creativecommons.org/ns#"
   xmlns:rdf="http://www.w3.org/1999/02/22-rdf-syntax-ns#"
   xmlns:svg="http://www.w3.org/2000/svg"
   xmlns="http://www.w3.org/2000/svg"
   xmlns:xlink="http://www.w3.org/1999/xlink"
   xmlns:sodipodi="http://sodipodi.sourceforge.net/DTD/sodipodi-0.dtd"
   xmlns:inkscape="http://www.inkscape.org/namespaces/inkscape"
   xml:space="preserve"
   width="42.175125mm"
   height="69.589119mm"
   version="1.1"
   style="clip-rule:evenodd;fill-rule:evenodd;image-rendering:optimizeQuality;shape-rendering:geometricPrecision;text-rendering:geometricPrecision"
   viewBox="0 0 701624.87 1157686.5"
   id="svg2"
   inkscape:version="0.91 r13725"
   sodipodi:docname="left_front_door_open.svg"><metadata
     id="metadata949"><rdf:RDF><cc:Work
         rdf:about=""><dc:format>image/svg+xml</dc:format><dc:type
           rdf:resource="http://purl.org/dc/dcmitype/StillImage" /><dc:title></dc:title></cc:Work></rdf:RDF></metadata><sodipodi:namedview
     pagecolor="#ffffff"
     bordercolor="#666666"
     borderopacity="1"
     objecttolerance="10"
     gridtolerance="10"
     guidetolerance="10"
     inkscape:pageopacity="0"
     inkscape:pageshadow="2"
     inkscape:window-width="1280"
     inkscape:window-height="980"
     id="namedview947"
     showgrid="false"
     inkscape:zoom="1.9655172"
     inkscape:cx="-85.111739"
     inkscape:cy="92.254752"
     inkscape:window-x="-6"
     inkscape:window-y="0"
     inkscape:window-maximized="0"
     inkscape:current-layer="svg2"
     fit-margin-top="0"
     fit-margin-left="0"
     fit-margin-right="0"
     fit-margin-bottom="0" /><defs
     id="defs4"><style
       type="text/css"
       id="style6"><![CDATA[
    .fil23 {fill:none}
    .fil0 {fill:black}
    .fil22 {fill:black}
    .fil11 {fill:#00A0E3}
    .fil16 {fill:#00A0E3}
    .fil7 {fill:#9D9E9E}
    .fil9 {fill:#FEFEFE}
    .fil18 {fill:#FEFEFE;fill-rule:nonzero}
    .fil19 {fill:#9D9E9E;fill-rule:nonzero}
    .fil5 {fill:#FEFEFE;fill-rule:nonzero}
    .fil10 {fill:red;fill-rule:nonzero}
    .fil13 {fill:red;fill-rule:nonzero}
    .fil14 {fill:white;fill-rule:nonzero}
    .fil8 {fill:url(#id0)}
    .fil15 {fill:url(#id1)}
    .fil17 {fill:url(#id2)}
    .fil6 {fill:url(#id3)}
    .fil12 {fill:url(#id4)}
    .fil21 {fill:url(#id5)}
    .fil20 {fill:url(#id6)}
    .fil3 {fill:url(#id7)}
    .fil2 {fill:url(#id8)}
    .fil4 {fill:url(#id9)}
    .fil1 {fill:url(#id10)}
   ]]></style><linearGradient
       id="id0"
       gradientUnits="userSpaceOnUse"
       x1="1030640"
       y1="1094090"
       x2="821532"
       y2="736752"><stop
         offset="0"
         style="stop-opacity:1; stop-color:#1C1B17"
         id="stop9" /><stop
         offset="0.529412"
         style="stop-opacity:1; stop-color:#434242"
         id="stop11" /><stop
         offset="1"
         style="stop-opacity:1; stop-color:#1C1B17"
         id="stop13" /></linearGradient><linearGradient
       id="id1"
       gradientUnits="userSpaceOnUse"
       xlink:href="#id0"
       x1="3261210"
       y1="1094090"
       x2="3052100"
       y2="736752" /><linearGradient
       id="id2"
       gradientUnits="userSpaceOnUse"
       xlink:href="#id0"
       x1="3524330"
       y1="1592490"
       x2="2752340"
       y2="273220" /><linearGradient
       id="id3"
       gradientUnits="objectBoundingBox"
       x1="0.61107498"
       y1="0"
       x2="0.61107498"
       y2="0.94135904"><stop
         offset="0"
         style="stop-opacity:1; stop-color:#00A0E3"
         id="stop18" /><stop
         offset="1"
         style="stop-opacity:1; stop-color:black"
         id="stop20" /></linearGradient><linearGradient
       id="id4"
       gradientUnits="userSpaceOnUse"
       xlink:href="#id0"
       x1="1293760"
       y1="1592480"
       x2="521771"
       y2="273220" /><linearGradient
       id="id5"
       gradientUnits="userSpaceOnUse"
       x1="2090880"
       y1="645894"
       x2="2343020"
       y2="363752"><stop
         offset="0"
         style="stop-opacity:1; stop-color:#FFEE00"
         id="stop24" /><stop
         offset="1"
         style="stop-opacity:1; stop-color:black"
         id="stop26" /></linearGradient><linearGradient
       id="id6"
       gradientUnits="userSpaceOnUse"
       xlink:href="#id5"
       x1="2021190"
       y1="645896"
       x2="1769050"
       y2="363754" /><linearGradient
       id="id7"
       gradientUnits="userSpaceOnUse"
       x1="2090880"
       y1="1256390"
       x2="2343020"
       y2="1538530"><stop
         offset="0"
         style="stop-opacity:1; stop-color:red"
         id="stop30" /><stop
         offset="1"
         style="stop-opacity:1; stop-color:black"
         id="stop32" /></linearGradient><linearGradient
       id="id8"
       gradientUnits="userSpaceOnUse"
       xlink:href="#id7"
       x1="2021190"
       y1="1256390"
       x2="1769050"
       y2="1538530" /><radialGradient
       id="id9"
       gradientUnits="userSpaceOnUse"
       gradientTransform="matrix(1.13982,-0.0277996,0.0277996,1.13983,-155715,-101155)"
       cx="932935"
       cy="908924"
       r="633314"
       fx="932935"
       fy="908924"><stop
         offset="0"
         style="stop-opacity:1; stop-color:black"
         id="stop36" /><stop
         offset="0.670588"
         style="stop-opacity:1; stop-color:black"
         id="stop38" /><stop
         offset="1"
         style="stop-opacity:1; stop-color:#00A0E3"
         id="stop40" /></radialGradient><radialGradient
       id="id10"
       gradientUnits="userSpaceOnUse"
       gradientTransform="matrix(1.13982,-0.0277996,0.0277996,1.13983,-467602,-39147)"
       xlink:href="#id9"
       cx="3163500"
       cy="908926"
       r="633314"
       fx="3163500"
       fy="908926" /><linearGradient
       id="id0-5"
       gradientUnits="userSpaceOnUse"
       x1="79084.102"
       y1="115915"
       x2="67443.102"
       y2="-18480.199"
       gradientTransform="matrix(7.0495335,0,0,7.0495335,1995504.6,2276777.5)"><stop
         offset="0"
         style="stop-opacity:1; stop-color:#FFEE00"
         id="stop9-4" /><stop
         offset="1"
         style="stop-opacity:1; stop-color:black"
         id="stop11-0" /></linearGradient><linearGradient
       id="id0-1"
       gradientUnits="userSpaceOnUse"
       x1="188342"
       y1="271404"
       x2="161233"
       y2="-45430.301"
       gradientTransform="matrix(2.2018915,0,0,2.2018915,-70702.284,-60836.631)"><stop
         offset="0"
         style="stop-opacity:1; stop-color:#00A0E3"
         id="stop9-0" /><stop
         offset="1"
         style="stop-opacity:1; stop-color:black"
         id="stop11-9" /></linearGradient><linearGradient
       gradientTransform="matrix(2.1821573,0,0,2.1821573,-67498.784,-67956.061)"
       id="id0-4"
       gradientUnits="userSpaceOnUse"
       x1="188673"
       y1="276543"
       x2="160901"
       y2="-44088.699"><stop
         offset="0"
         style="stop-opacity:1; stop-color:#FFEE00"
         id="stop9-7" /><stop
         offset="1"
         style="stop-opacity:1; stop-color:black"
         id="stop11-8" /></linearGradient><linearGradient
       gradientTransform="matrix(3.6129096,0,0,3.6129096,1831067.8,1270976.8)"
       id="id0-8"
       gradientUnits="userSpaceOnUse"
       x1="83317.703"
       y1="182544"
       x2="83317.703"
       y2="249145"><stop
         offset="0"
         style="stop-opacity:1; stop-color:red"
         id="stop9-3" /><stop
         offset="1"
         style="stop-opacity:1; stop-color:black"
         id="stop11-3" /></linearGradient></defs><g
     transform="matrix(1.9940252,0,0,1.9940252,-27546.784,-16290.841)"
     id="g237"
     style="clip-rule:evenodd;fill:#ffff00;fill-opacity:1;fill-rule:evenodd;image-rendering:optimizeQuality;shape-rendering:geometricPrecision;text-rendering:geometricPrecision"><g
       id="g239"
       style="fill:#ffff00;fill-opacity:1"><path
         class="fil3"
         d="m 313780,317377 -2344,-1963 c -960,-843 -1933,-1673 -2904,-2503 0,0 -1604,-1234 -2366,-1871 -1355,-1133 -2738,-2231 -4092,-3364 -1138,-953 -2308,-1850 -3456,-2786 -1152,-944 -2302,-1900 -3473,-2821 -68,-54 -1656,-1252 -1636,-945 477,758 643,1300 -463,553 -879,-635 -1737,-1281 -2604,-1931 -1163,-807 -2584,-1652 -3815,-2366 -4034,-3000 -10789,-10034 -14151,-12137 -2532,-1586 -8926,-7404 -11640,-9755 580,572 -385,-244 -437,-288 -157,-134 -2233,-1863 -1022,-783 768,667 1546,1321 2333,1967 303,262 1438,1217 1606,1441 -26,32 -177,-127 -29,34 1,1 -90,-48 155,162 855,729 1687,1298 2503,2081 460,440 881,882 1391,1268 522,396 1562,1197 1562,1197 914,795 1843,1593 2783,2355 439,356 587,540 988,912 556,503 1117,952 1691,1428 2361,1926 4723,3844 7060,5800 1733,1451 3450,2895 5207,4318 1070,873 2200,1720 3199,2674 913,857 1899,1676 2867,2472 659,548 8077,6967 3251,2559 1292,1083 2611,2159 3869,3279 1092,956 2245,1897 3370,2818 862,728 1724,1455 2587,2183 0,0 1435,1126 2141,1702 902,734 1804,1471 2709,2204 l 2330,1912 830,-1806 z"
         id="path241"
         inkscape:connector-curvature="0"
         style="fill:#ffff00;fill-opacity:1;fill-rule:nonzero" /><path
         class="fil3"
         d="m 256195,268135 257,257 c 653,684 1320,1355 1997,2014 163,149 2475,2195 1990,1714 -910,-871 -1853,-1719 -2772,-2582 -528,-488 -1015,-956 -1469,-1404 l -3,1 z"
         id="path243"
         inkscape:connector-curvature="0"
         style="fill:#ffff00;fill-opacity:1;fill-rule:nonzero" /></g><path
       class="fil3"
       d="m 284209,317964 c -41,8 -83,16 -124,23 -2092,-1664 -4474,-3455 -6462,-5197 -60,-77 1,-25 -91,-114 -242,-239 -365,-317 -644,-492 21,66 42,132 63,198 -93,-106 -185,-213 -276,-320 13,-38 25,-76 38,-113 75,40 150,80 224,120 -43,-73 -278,-282 -353,-338 -58,-29 -116,-59 -174,-88 -4,25 -8,51 -12,77 -285,-307 -519,-521 -830,-795 27,68 56,136 86,203 -135,-117 -256,-251 -388,-365 -839,-737 -1644,-1530 -2484,-2269 106,81 -609,-588 -1116,-1052 -1006,-928 -2559,-2358 -3356,-3459 -286,-449 -505,-894 -742,-1370 -105,-249 -247,-491 -396,-717 -40,-59 -80,-118 -120,-178 -2326,-3850 -4623,-7743 -6874,-11637 -666,-1162 -1342,-2337 -2049,-3475 -463,-739 -680,-1080 -1102,-1877 101,98 201,196 302,294 -74,-261 -536,-928 -708,-1184 20,-11 39,-21 59,-32 -113,-426 -14,-226 -321,-712 -499,-784 -222,-227 -51,244 -140,-177 -282,-353 -423,-530 -236,-420 -472,-840 -707,-1260 -433,-680 -849,-1457 -1234,-2163 -276,-509 -550,-1018 -822,-1529 -225,-385 -449,-772 -672,-1158 -213,-411 -423,-822 -632,-1236 -112,-290 -369,-859 -369,-859 0,0 -286,-392 -372,-566 -157,-318 -349,-614 -501,-937 -120,-254 -268,-432 -399,-672 -101,-192 -210,-424 -334,-601 -88,-113 -265,-189 -400,-114 -2,-2 -446,461 -669,268 -110,-94 -187,-174 -283,-277 -12,-12 -73,-127 -88,-152 -72,-107 -238,-277 -420,-452 l -332,120 c 59,156 108,314 131,474 4,35 54,252 54,254 -9,81 144,405 138,397 160,365 532,1555 368,548 112,259 264,559 339,826 75,270 374,786 374,786 102,224 206,446 310,669 0,0 243,360 347,542 145,256 439,766 439,766 1496,2720 3079,5369 4593,8067 l 117,232 3659,5920 10470,16004 2695,3446 c 360,343 727,682 1099,1005 395,346 782,715 1172,1068 27,39 182,155 229,178 534,338 1348,997 1853,1408 4679,3720 9459,7378 14185,11043 -226,-147 -453,-293 -680,-440 0,0 531,407 792,617 312,249 926,760 926,760 197,153 395,305 592,457 189,150 847,683 663,511 -254,-227 -767,-672 -767,-672 599,464 1199,934 1791,1406 966,774 1972,1501 2939,2274 2320,1805 4646,3544 6976,5389 506,402 1031,824 1568,1257 l 739,-1606 c -2145,-1706 -4288,-3413 -6430,-5123 -915,-730 -2854,-2136 -2853,-2136 -259,-206 -517,-413 -775,-619 -1111,-842 -2221,-1683 -3331,-2524 -472,-346 -1348,-974 -1716,-1378 -276,-345 -589,-564 -929,-850 -1438,-1218 -2169,-1714 -3673,-2749 -622,-432 -1254,-984 -1846,-1464 z"
       id="path245"
       inkscape:connector-curvature="0"
       style="fill:#ffff00;fill-opacity:1;fill-rule:nonzero" /><path
       class="fil3"
       d="m 312392,320395 -62,-35 c 0,1 79,-371 114,-365 16,4 15,9 30,7 51,-6 11,-37 -7,-64 -34,-14 -68,-30 -102,-45 23,3 48,6 72,9 32,18 65,35 98,53 12,13 25,27 36,41 l 4,0 18,-39 -10,-10 c -19,-11 -40,-21 -59,-32 73,-3 69,0 101,-55 -31,-11 -62,-21 -93,-33 19,-31 93,-54 68,-112 36,30 -1,-48 -3,-52 -18,-38 -168,-346 -159,-361 34,-53 182,-70 177,-144 0,-8 -1,-15 -2,-23 -8,20 148,-380 238,-493 29,-35 42,-86 31,-130 -17,-66 -55,-62 14,-74 27,29 54,58 82,87 47,31 5,-44 -1,-56 17,16 33,30 50,44 21,14 87,81 65,27 -22,-56 -76,-73 -126,-103 -24,-30 -48,-59 -71,-89 8,-13 16,-26 24,-38 -11,-35 -2,-62 21,-89 13,-15 26,-30 39,-44 -2,-23 -3,-47 -5,-71 14,-11 28,-22 42,-33 19,8 70,14 70,14 0,0 -48,-68 -38,-78 10,-11 -10,-53 5,-68 12,-12 -24,-65 -28,-88 0,-30 -2,-50 -15,-78 -16,-32 -213,-249 -213,-249 0,0 -461,-467 -498,-522 -39,-56 -71,-108 -106,-166 -109,-162 -271,-349 -396,-505 -116,-143 423,82 308,-46 -81,-117 50,-211 149,-257 0,0 -58,-40 -31,-61 29,-22 17,-94 -19,-79 -27,15 -36,41 -42,70 -24,11 -51,9 -70,-11 -12,-14 -14,-22 -28,-34 -13,-12 -8,-22 -17,-15 -34,27 64,129 -27,70 -9,-7 -86,-71 -70,-30 13,32 36,97 36,97 0,0 -50,4 -46,39 3,26 -36,-21 -54,-31 -39,-17 -21,6 -27,22 -1,49 7,131 -25,171 -36,44 -46,14 -37,95 0,32 33,90 -35,42 -17,-11 -63,-42 -71,-4 -36,77 -135,27 49,128 -22,21 -35,39 -68,25 -30,-12 -41,41 -41,41 -13,7 -28,14 -41,21 0,0 22,51 21,73 -1,22 -1,66 -1,66 1,-3 -116,437 -128,437 -38,-2 -71,94 -85,123 -142,366 -254,745 -341,1128 -22,60 -43,121 -63,181 -15,-16 -31,-33 -47,-50 1,35 12,106 -6,136 -10,15 -29,49 -23,66 5,20 -54,34 -26,74 15,27 21,228 7,252 -42,74 -45,1001 -46,900 -21,-20 -41,-41 -61,-61 0,0 2,28 -3,37 -4,10 -31,31 -30,30 1,10 2,19 2,29 1,-1 -16,33 2,31 18,-2 55,-11 55,-11 0,0 -2,54 -12,76 -12,24 15,106 4,130 0,34 111,13 16,288 0,2 -4,12 -5,13 -33,86 -162,421 -116,518 -8,33 -15,67 -23,100 -53,49 -107,97 -159,144 5,33 73,37 41,122 -7,18 -29,33 -20,54 16,44 31,212 30,200 -22,1 -43,2 -64,4 -15,11 24,263 30,298 10,59 8,268 25,304 13,14 -55,52 -32,78 24,30 21,26 21,60 0,0 141,46 153,60 42,51 36,71 96,119 25,20 42,65 76,85 18,12 116,90 125,103 13,19 -110,31 -4,71 79,29 15,9 -14,0 l -2,2 c -22,-4 -43,-7 -66,-13 -36,-8 -72,-17 -108,-27 521,111 -1295,-334 36,9 24,7 49,13 72,19 48,-19 207,0 338,22 l 1137,-2471 z"
       id="path247"
       inkscape:connector-curvature="0"
       style="fill:#ffff00;fill-opacity:1;fill-rule:nonzero" /><path
       class="fil2"
       d="m 310330,322693 c 0,0 952,-3696 3045,-5307"
       id="path249"
       inkscape:connector-curvature="0"
       style="fill:#ffff00;fill-opacity:1" /><path
       class="fil3"
       d="m 247656,272660 c -9,30 -17,62 -26,93 l -210,-12 931,1507 19,3 c 77,14 351,63 422,2 27,2 55,3 82,4 44,44 88,87 131,130 28,-10 25,-78 102,-59 15,4 29,22 48,12 39,-24 189,-60 179,-58 3,22 6,43 8,64 10,9 263,-53 295,-60 83,-19 298,-17 352,-38 15,-13 80,57 111,34 42,-27 38,-21 83,-18 0,0 39,-145 57,-155 70,-40 104,-31 175,-89 29,-23 116,-35 142,-65 28,-26 160,-102 196,-106 46,-7 180,144 290,54 113,-87 11,37 27,21 10,2 19,5 29,7 20,28 40,56 60,83 4,40 7,78 11,117 0,0 37,25 39,-28 0,-31 -4,-61 -27,-83 -297,-60 -350,-342 -341,-601 11,-124 15,-781 38,-832 0,0 -115,87 -97,-24 29,-176 -50,-96 -93,-105 -31,-8 -83,-15 -100,-47 -13,-28 -118,88 -165,98 -89,19 -197,121 -299,97 -65,-13 -120,-12 -183,9 33,-48 64,-97 97,-145 -51,-10 -98,1 -142,28 -25,14 -61,34 -92,31 -7,-29 -14,-59 -20,-89 -110,-28 -244,-22 -330,60 -34,40 -62,84 -100,121 -49,41 -67,-47 -67,-47 0,0 -80,12 -113,4 -29,-7 -79,35 -79,35 -58,13 -117,27 -176,42 0,0 -41,-41 -60,-45 -112,-27 -224,-53 -336,-80 -67,-16 -160,76 -160,76 -13,-3 -25,-5 -38,-8 -64,22 -127,46 -190,68 0,0 -93,61 -89,-20 3,-73 12,-54 -34,-93 -115,-116 -138,17 -239,111 -27,25 -87,2 -118,-4 z"
       id="path251"
       inkscape:connector-curvature="0"
       style="fill:#ffff00;fill-opacity:1;fill-rule:nonzero" /><path
       class="fil3"
       d="m 307296,331473 -4,-11 965,-2077 3366,-7318 -187,-168 c -196,-169 -379,-268 -629,-338 -144,-36 -272,-54 -402,-53 -475,-409 -964,-826 -1408,-1241 -114,-122 -86,-107 -231,-243 -513,-485 -981,-863 -1532,-1298 90,128 180,256 269,384 -262,-259 -523,-519 -784,-779 -6,-54 -11,-108 -17,-163 180,135 359,270 539,405 -248,-284 -694,-663 -990,-911 -148,-110 -297,-221 -446,-332 15,43 31,87 47,130 -956,-911 -1913,-1762 -2903,-2632 173,195 346,390 519,584 -1287,-1131 -2557,-2345 -3887,-3418 384,262 -879,-759 -1280,-1086 -2168,-1762 -4417,-3520 -6544,-5318 -2024,-1780 -3979,-3663 -6039,-5397 -166,-140 -332,-279 -498,-418 -4571,-3973 -9153,-7934 -13718,-11912 -883,-775 -1782,-1561 -2701,-2292 -595,-470 -799,-620 -1376,-1159 108,43 217,85 326,128 -107,-171 -672,-571 -863,-708 14,-16 29,-33 44,-50 -186,-309 -22,-155 -423,-460 -572,-433 -254,-118 5,222 -157,-89 -315,-177 -472,-266 -286,-247 -571,-494 -857,-741 -486,-356 -1022,-840 -1475,-1235 -334,-292 -668,-585 -1001,-877 -269,-213 -539,-427 -808,-639 -269,-239 -538,-478 -807,-717 -162,-184 -516,-532 -516,-531 -164,-76 -325,-180 -463,-296 -220,-194 -470,-353 -693,-548 -189,-166 -368,-242 -565,-386 -159,-121 -346,-272 -521,-366 -129,-61 -319,-45 -404,81 0,0 -199,604 -475,543 -167,-36 -283,-78 -440,-128 -127,-25 -682,89 -825,129 -214,75 -1153,-1435 -1240,-1306 -51,73 -365,-168 -410,-205 l -1534,-1041 c 200,32 395,-8 584,-74 228,-91 387,-198 556,-376 117,-79 271,-422 269,-418 -62,167 -143,294 -251,436 -60,76 -70,97 16,14 169,-166 271,-348 346,-572 34,-57 59,-295 58,-370 0,-6 -9,-116 -9,-117 76,147 286,588 110,101 -2,-7 -34,-116 -39,-116 25,181 -4,347 -53,522 -79,243 -182,417 -354,607 -187,192 -356,307 -606,403 -197,61 -414,114 -620,68 4,0 -24,-4 -27,-4 -93,-11 126,62 140,121 -18,36 -50,-2 -20,40 29,43 -84,-19 34,43 388,202 544,183 858,524 23,25 344,409 355,396 17,15 17,19 37,18 51,-4 153,2 153,2 0,0 121,134 186,161 69,28 11,39 37,110 40,84 68,71 133,116 257,145 478,277 708,467 217,182 336,294 583,450 138,94 317,158 383,325 50,127 332,359 332,359 338,280 960,990 512,279 173,152 409,341 547,519 133,173 539,470 534,467 144,132 287,265 431,397 0,0 292,181 422,280 181,139 543,417 543,417 1821,1484 3744,3019 5504,4560 712,706 1605,1403 2375,2063 7736,6581 15443,13197 23148,19813 1500,1298 3000,2597 4499,3896 -161,-112 -321,-223 -482,-335 979,824 1968,1641 2929,2486 558,490 1118,997 1691,1467 634,523 1217,1125 1871,1626 1796,1456 3624,3032 5375,4549 694,612 1404,1214 2112,1815 -204,447 -543,1550 -652,1847 -213,575 -549,1208 -815,1768 20,35 39,70 57,105 -1071,2328 -2141,4663 -3230,6984 -1835,-1439 -3666,-2882 -5498,-4325 293,202 586,405 880,608 0,0 -696,-545 -1039,-823 -396,-323 -789,-651 -1181,-979 -244,-192 -488,-384 -732,-576 -224,-183 -1031,-846 -800,-632 310,277 937,821 937,821 -712,-570 -1426,-1136 -2133,-1712 -1062,-867 -2162,-1691 -3221,-2562 -2160,-1734 -4276,-3370 -6440,-5163 -1506,-1254 -4263,-3754 -5867,-4826 -283,-236 -567,-472 -849,-709 -429,-406 -855,-816 -1272,-1234 -243,-173 -286,-147 -597,-420 -89,-79 -161,-162 -259,-234 -1,0 -2,0 -2,-1 -813,-696 -1683,-1423 -2441,-2174 -70,-105 -139,-210 -206,-316 -1054,-1196 -1935,-2365 -2894,-3640 -167,-171 -393,-507 -543,-713 -1303,-1794 -2453,-3752 -3653,-5618 -563,-834 -1026,-1800 -1587,-2654 -111,-169 -1153,-1822 -1155,-1867 -169,-36 -335,-261 -423,-393 -794,-1247 -1555,-2511 -2358,-3753 -648,-1003 -1234,-2073 -1898,-3060 -820,-1257 -1639,-2575 -2406,-3864 -1063,-1785 -1995,-3793 -3141,-5503 -51,-75 -628,-959 -213,-415 -68,-122 -136,-246 -203,-369 -120,-258 -238,-520 -345,-783 -19,-107 -34,-214 -41,-323 3,9 -96,-231 -118,-154 -27,97 68,303 68,303 1211,2288 2976,5427 3785,7763 411,1430 1059,2724 1459,4155 320,502 1333,2066 1471,2521 48,468 1348,2459 1662,2991 529,897 1088,1800 1583,2715 577,1028 1411,2155 2060,3177 1060,1684 2202,3319 3276,4994 408,633 838,1291 1313,1878 79,123 271,358 271,358 -44,-52 -262,-322 -291,-344 -133,-94 -311,-269 -432,-384 100,152 222,312 332,456 504,677 1009,1354 1541,2008 384,470 768,928 1157,1391 130,197 264,392 401,583 822,892 1744,1687 2651,2490 147,153 696,542 894,657 221,125 428,232 639,371 250,177 472,386 670,620 0,0 775,627 1153,951 269,230 852,658 852,658 751,600 1502,1200 2253,1799 0,0 682,613 1031,906 2065,1733 4138,3456 6218,5173 961,786 1942,1545 2945,2279 283,233 567,465 851,698 1307,1021 2616,2041 3926,3060 656,495 1672,1242 2223,1804 390,441 831,766 1285,1144 1367,1146 2508,2078 3957,3099 190,143 357,222 590,276 68,13 130,22 192,27 225,194 410,318 669,487 l 20,-41 -80,-159 104,105 2017,-4384 z"
       id="path253"
       inkscape:connector-curvature="0"
       style="fill:#ffff00;fill-opacity:1;fill-rule:nonzero" /><path
       class="fil3"
       d="m 302490,311497 c -43,5 -86,10 -129,15 -2681,-2323 -5487,-4673 -8103,-7048 -88,-101 -45,-69 -164,-184 -385,-374 -700,-620 -1122,-940 59,101 117,201 175,302 -186,-193 -371,-386 -556,-579 3,-47 6,-94 8,-141 133,94 267,189 400,283 -148,-189 -517,-506 -710,-666 -110,-76 -219,-153 -329,-230 7,35 14,72 21,108 -679,-669 -1348,-1267 -2061,-1896 117,146 234,292 350,437 -899,-792 -1797,-1679 -2738,-2410 283,180 -627,-538 -898,-751 -1502,-1182 -3108,-2371 -4568,-3585 -1367,-1202 -2671,-2514 -4074,-3669 -112,-93 -225,-185 -338,-277 -3080,-2658 -6170,-5304 -9246,-7965 -599,-524 -1221,-1063 -1855,-1542 -482,-360 -493,-342 -957,-785 84,19 166,40 250,60 -58,-121 -477,-396 -607,-479 15,-17 30,-34 44,-51 -101,-226 37,-107 -281,-334 -393,-276 -212,-94 -29,192 -117,-53 -235,-106 -352,-159 -201,-171 -402,-344 -603,-515 -359,-253 -728,-576 -1059,-862 -242,-210 -484,-419 -726,-629 -200,-152 -401,-303 -602,-454 -201,-177 -401,-355 -602,-531 -118,-144 -384,-411 -384,-411 -139,-54 -253,-116 -369,-210 -173,-150 -375,-266 -552,-418 -158,-136 -301,-180 -466,-293 -131,-96 -293,-220 -439,-290 -127,-51 -295,-2 -373,111 0,0 -223,581 -470,547 -154,-21 -252,-49 -396,-85 -114,-14 -646,134 -775,179 -193,79 -1182,-1451 -1271,-1306 -88,134 -1115,-793 -1115,-793 10,75 -33,56 -77,22 -50,-36 -238,-129 -138,-15 53,51 231,150 231,150 0,0 140,131 115,162 -22,26 -27,5 -29,34 -1,30 -40,-4 2,30 130,108 195,-15 245,156 17,58 13,148 86,158 66,10 197,39 197,40 0,-1 163,170 253,212 80,38 17,44 55,125 54,92 82,79 157,132 263,153 502,289 739,482 208,169 312,269 550,411 124,80 290,129 341,282 52,131 169,230 282,310 332,267 768,797 440,212 136,117 341,278 442,420 96,135 428,368 423,365 111,102 223,204 334,307 -1,0 233,128 333,200 140,101 418,303 418,303 1308,1027 2746,2123 3993,3203 458,476 1126,977 1643,1413 5258,4383 10482,8809 15699,13240 1031,888 2063,1776 3095,2665 -116,-72 -231,-145 -346,-216 684,565 1378,1124 2044,1711 388,342 784,703 1186,1024 450,361 853,805 1323,1145 1288,1013 2636,2167 3880,3242 5152,4411 10342,8789 15510,13181 -193,-134 -385,-267 -578,-401 0,0 445,372 662,565 254,224 754,685 754,685 160,135 320,270 479,404 151,133 669,595 529,447 -199,-200 -603,-593 -603,-593 0,0 949,809 1415,1222 414,365 841,717 1266,1071 l 767,-1667 -45,-40 c -877,-724 -1754,-1450 -2631,-2176 -384,-305 -1133,-895 -1417,-1251 -220,-327 -488,-528 -779,-798 -1315,-1228 -1954,-1686 -3345,-2735 -618,-471 -1242,-1066 -1829,-1585 z"
       id="path255"
       inkscape:connector-curvature="0"
       style="fill:#ffff00;fill-opacity:1;fill-rule:nonzero" /><path
       class="fil3"
       d="m 258201,278546 c -30,14 -60,28 -89,41 73,98 -845,-1164 -836,-1248 7,-40 16,-2 9,-44 -21,-109 -49,-103 -133,-157 -25,32 -50,64 -75,95 2,-43 3,-86 4,-130 30,-21 61,-43 91,-64 26,10 52,21 78,32 13,-27 -21,-110 -40,-131 -22,-9 -44,-18 -66,-27 -18,15 -35,29 -53,44 -24,-185 -51,-214 -139,-370 -16,38 -32,77 -46,115 -70,-125 -144,-365 -254,-452 56,1 -108,-132 -109,-134 -108,-90 -675,-527 -715,-596 -140,-242 -214,-600 -397,-805 -17,-20 -35,-38 -52,-57 -68,-99 -135,-198 -203,-298 45,83 58,156 45,250 -17,92 -52,156 -120,219 -70,58 -138,85 -229,89 -88,1 -156,-22 -227,-74 438,297 795,520 1290,704 7,3 21,7 27,10 144,76 493,117 656,82 202,-49 64,-73 284,-44 1,0 14,2 17,3 -1,5 -13,53 -13,54 0,0 -25,61 -27,68 10,16 19,11 32,17 27,9 86,-47 103,-64 2,22 3,44 5,66 29,54 10,112 76,61 77,-59 17,-89 -31,-162 16,-39 32,-78 48,-117 43,-6 85,-12 127,-19 59,-46 167,-55 237,-59 66,-2 133,-2 199,0 62,-17 124,-30 187,-41 78,9 156,21 233,34 51,39 179,92 179,92 50,-37 112,-58 175,-48 102,23 201,2 316,33 78,21 108,14 184,5 2,-1 20,-20 41,-21 10,1 19,5 26,5 23,2 60,37 75,41 0,0 8,6 9,7 57,30 267,86 329,87 9,47 637,-274 718,70 15,65 25,132 27,198 39,122 -69,429 -127,552 -5,16 -45,153 -45,154 19,60 314,378 377,437 53,57 -5,53 -71,-44 -1,0 -126,-264 -22,-246 47,8 51,-26 69,-37 45,-84 45,-194 15,-282 -14,-34 -12,-12 -7,6 -2,4 50,-45 63,-23 18,28 101,40 82,-11 -13,-24 -27,-38 -55,-33 6,-10 32,-14 47,-19 15,-7 26,-14 40,-19 10,-3 20,-12 22,-7 7,14 -36,47 -45,50 -36,16 29,31 35,33 26,5 117,14 84,55 -29,35 -83,104 -83,104 18,49 25,108 11,159 -2,6 -5,11 -8,17 -27,44 22,25 51,72 29,58 0,59 -19,101 -45,63 -88,105 -153,147 0,0 -27,13 -32,17 -8,12 -21,-32 -24,-40 -7,-31 -33,-76 21,-60 0,1 80,-64 86,-69 256,-217 396,-491 485,-810 31,-132 56,-280 57,-416 6,-235 -16,-421 -75,-648 -109,-372 -254,-638 -518,-922 -829,-806 -385,-314 -69,68 21,15 115,167 133,198 -29,-40 -142,-157 -153,-179 -262,-258 -507,-405 -854,-523 -4,-3 -83,-39 -104,-54 -81,-61 -337,-89 -337,-89 -82,-25 -164,-49 -247,-72 0,0 -147,28 -210,27 -85,0 -254,5 -254,5 -775,-27 -926,129 -1478,188 -27,-15 -57,-2 -81,-3 -13,0 -57,11 -66,26 -21,45 -26,21 -66,27 -227,35 -708,-306 -903,-396 -315,-212 -597,-294 -977,-276 -373,36 -641,156 -919,407 -263,266 -392,520 -444,891 -34,365 31,643 222,956 241,346 539,701 794,1045 112,168 225,335 336,503 -29,-7 -58,-12 -86,-18 81,92 187,195 247,302 27,48 84,155 122,188 46,43 58,172 135,210 63,40 424,480 469,560 584,813 1314,1686 1985,2430 -46,-17 -91,-34 -137,-50 0,0 71,73 99,113 35,48 92,153 92,153 26,27 52,54 78,81 -12,-18 99,133 86,91 -15,-50 -54,-148 -54,-148 0,0 152,168 219,258 107,142 274,262 385,402 259,278 603,548 971,965 88,100 219,227 296,327 0,0 3,4 3,4 144,155 273,263 456,365 170,87 336,150 531,135 17,2 72,-15 76,-14 115,-7 224,-36 324,-92 15,-5 108,-46 109,-46 103,-12 325,-269 382,-357 13,-42 -11,-127 -3,-142 2,-4 -5,5 -5,5 -12,4 48,-171 51,-179 21,-49 58,-98 63,-152 18,-170 114,-532 112,-528 29,-16 57,-32 85,-48 39,-61 193,-748 226,-880 34,-141 85,-322 131,-457 12,-47 9,-81 -10,-126 -3,-21 -63,-76 -84,-79 -39,-7 -224,-115 -287,-140 -64,-13 -242,-203 -346,-232 -35,-10 -251,-104 -257,-129 -35,39 -95,105 -151,94 -188,-69 -339,-164 -536,-225 -123,-38 -315,-179 -428,-200 -135,-38 -452,-187 -567,-264 -238,-159 -453,-540 -743,-663 -45,-21 -229,-112 -56,-79 -20,-21 -41,-46 -61,-68 -33,-70 -65,-142 -94,-214 6,-51 14,-101 24,-151 0,1 -52,-98 -78,-45 -22,52 -9,95 13,144 0,0 847,963 752,1444 -66,378 28,636 -35,1019 0,0 364,137 323,244 -63,176 228,266 334,341 100,70 275,179 349,268 49,59 422,137 533,190 68,32 391,140 408,153 -333,-231 -523,-486 -647,-872 -103,-382 -84,-695 65,-1061 0,0 -38,126 -62,184 -57,141 -152,407 -174,559 -25,-84 -49,-167 -74,-250 0,0 -101,296 -110,422 -9,83 -27,200 -57,277 -42,29 -83,58 -125,87 -109,270 -223,589 -261,877 0,0 -27,49 -26,75 13,-24 26,-21 54,-28 76,-14 135,-27 205,-58 29,-15 167,-140 163,-159 0,-3 61,-71 60,-67 177,-95 371,-122 569,-108 1,0 9,0 9,0 62,10 130,32 166,87 21,16 45,34 49,61 -2,22 -24,24 -43,23 1,-18 -1,-37 -10,-53 4,-4 -26,-23 -25,-29 0,0 -4,-3 -9,-9 -304,-342 -601,-691 -887,-1047 -103,-119 -256,-251 -398,-323 -28,-36 -57,-73 -84,-109 -146,-131 -291,-263 -435,-396 0,0 -216,-160 -178,-248 43,-100 17,-90 -33,-190 -175,-395 -177,-256 -501,-448 -63,-38 -167,-217 -209,-284 z"
       id="path257"
       inkscape:connector-curvature="0"
       style="fill:#ffff00;fill-opacity:1;fill-rule:nonzero" /><path
       class="fil3"
       d="m 259847,276572 c -21,-24 -42,-48 -63,-73 67,-89 162,-182 243,-258 46,-118 1037,-700 1147,-701 57,4 -2,19 62,4 171,-36 177,-67 302,-170 -39,-24 -79,-47 -118,-72 69,-4 138,-9 208,-14 20,31 41,63 62,95 -30,31 -61,62 -91,94 42,10 196,-43 236,-65 26,-27 52,-54 78,-80 -16,-18 -30,-36 -46,-54 298,-51 457,-116 736,-219 -61,-12 -121,-24 -182,-36 315,-118 748,-208 1030,-368 -56,66 269,-107 346,-147 509,-270 1299,-707 1820,-898 197,-56 395,-98 594,-140 414,-81 854,-150 1254,-278 48,-17 95,-34 142,-50 1319,-351 2767,-694 4119,-867 243,-26 546,-60 779,-128 238,-68 110,-87 387,-55 -22,40 -44,81 -66,121 39,50 188,-21 233,-43 1,22 1,45 1,67 52,68 2,111 128,66 140,-49 58,-74 -31,-164 36,-37 73,-74 110,-111 77,-2 154,-2 231,-2 106,-35 272,-27 380,-17 20,3 86,13 101,12 12,0 -13,1 -13,-2 1,-4 190,41 206,46 99,9 197,25 294,48 104,47 204,101 301,161 52,68 182,190 182,190 77,-4 148,13 211,58 101,80 208,116 308,214 1,1 7,6 8,7 85,77 141,64 239,131 69,53 157,131 235,168 100,35 258,-43 332,-109 1,1 381,-474 566,-447 132,19 189,41 307,83 81,16 622,-48 735,-64 189,-35 434,1075 490,1169 -49,-96 50,91 -24,-45 33,83 212,707 267,700 57,-31 132,283 139,300 98,490 43,898 -140,1362 -190,429 -407,704 -756,1012 -162,136 -316,248 -496,358 155,-25 -10,85 -47,109 -96,61 -227,146 -305,227 443,-206 -120,89 87,-27 -156,95 -19,24 29,0 161,-84 487,-345 487,-345 -1,1 313,-215 331,-195 26,31 -16,40 30,34 38,-3 -26,52 29,4 6,-4 15,-13 21,-19 271,-258 242,-380 534,-665 125,-121 239,-220 295,-389 3,-7 10,-41 12,-50 56,-236 75,-406 80,-646 49,-284 54,-512 11,-800 2,-21 -35,-154 -44,-182 -62,-180 4,-103 -9,-271 -22,-175 -62,-218 -134,-364 -31,-56 -142,-218 -157,-256 -12,-22 45,83 -18,-34 -39,-1 -296,-399 -357,-500 -129,-211 -172,-306 -355,-487 -82,-90 -214,-154 -212,-291 -7,-103 -77,-222 -155,-290 -243,-277 -445,-659 -322,-190 -80,-91 -223,-231 -272,-335 -16,-36 -42,-52 -61,-79 -44,-64 -272,-232 -258,-222 -88,-83 -178,-164 -270,-242 0,0 -197,-76 -282,-121 -116,-61 -355,-170 -355,-170 -460,-230 -896,-351 -1407,-419 l -68,-9 c -376,-4 -815,56 -1137,47 -163,-38 -602,25 -786,46 -2249,320 -4380,907 -6538,1599 -111,14 -545,178 -681,223 -471,150 -939,306 -1405,470 38,-36 76,-72 115,-107 -281,116 -564,250 -851,347 -146,49 -349,111 -481,181 -149,77 -374,93 -514,200 -332,198 -922,482 -1286,655 -607,294 -1261,700 -1737,1177 -222,217 -396,413 -564,676 -155,250 -243,453 -289,744 -34,286 -7,496 87,765 14,123 296,543 387,654 72,89 235,250 235,250 -56,-23 -111,-46 -166,-71 0,0 98,95 143,146 55,62 161,194 161,194 41,35 83,70 126,105 5,5 172,168 144,118 -42,-64 -131,-189 -131,-189 0,0 262,219 389,331 218,191 494,339 723,516 388,267 1360,807 1798,1076 39,23 191,105 213,125 587,328 1175,623 1858,671 34,8 130,-7 148,-3 138,12 277,17 417,15 299,40 603,45 905,26 196,-66 192,-109 521,-190 19,-4 162,-38 169,-37 13,2 53,-15 65,-23 131,-89 485,-256 474,-250 34,9 68,18 102,27 124,-22 910,-458 1083,-549 532,-281 1139,-535 1650,-838 136,-99 473,-162 646,-285 42,-30 399,-245 425,-239 -17,-70 -19,-149 40,-199 277,-184 551,-328 819,-531 195,-148 507,-283 678,-439 240,-196 627,-460 893,-618 512,-303 1170,-476 1635,-884 39,-32 371,-315 169,-76 53,-30 106,-60 159,-89 141,-54 282,-108 423,-163 81,-3 162,-7 243,-11 -7,3 207,-103 129,-118 -73,-14 -257,64 -257,64 -695,411 -1977,1074 -2777,926 -457,-152 -821,-90 -1266,-279 -109,82 -445,334 -573,282 -154,-124 -546,172 -696,243 -180,86 -430,218 -618,266 -126,31 -531,373 -699,467 -439,242 -825,546 -1296,742 -252,108 -518,227 -756,364 64,-85 130,-169 195,-254 1,0 -363,158 -503,261 -82,54 -186,122 -278,158 -51,-11 -100,-21 -150,-35 0,1 -324,107 -456,185 -148,52 -375,124 -506,206 -92,63 -163,126 -261,176 -90,35 -178,35 -261,-17 0,0 -215,20 -316,5 -6,0 -29,-3 -35,-3 -53,-1 -127,4 -179,13 -200,-17 -391,-64 -581,-128 -1,0 -181,-123 -269,-171 -55,-30 -200,-122 -244,-139 -475,-283 -920,-579 -1369,-903 -201,-140 -458,-291 -687,-384 -54,-44 -108,-87 -161,-131 -217,-139 -432,-284 -642,-434 0,0 -232,-128 -188,-209 17,-32 45,-67 17,-103 -6,-8 -18,-35 -23,-45 -5,-12 -45,-141 -47,-142 -2,1 -116,118 -145,126 -17,5 -24,11 -45,9 -44,-2 18,-72 18,-72 2,1 62,-77 67,-84 z"
       id="path259"
       inkscape:connector-curvature="0"
       style="fill:#ffff00;fill-opacity:1;fill-rule:nonzero" /></g></svg>