<?xml version="1.0" encoding="UTF-8" standalone="no"?>
<!-- Creator: CorelDRAW X8 -->

<svg
   xmlns:dc="http://purl.org/dc/elements/1.1/"
   xmlns:cc="http://creativecommons.org/ns#"
   xmlns:rdf="http://www.w3.org/1999/02/22-rdf-syntax-ns#"
   xmlns:svg="http://www.w3.org/2000/svg"
   xmlns="http://www.w3.org/2000/svg"
   xmlns:xlink="http://www.w3.org/1999/xlink"
   xmlns:sodipodi="http://sodipodi.sourceforge.net/DTD/sodipodi-0.dtd"
   xmlns:inkscape="http://www.inkscape.org/namespaces/inkscape"
   xml:space="preserve"
   width="42.175125mm"
   height="69.589119mm"
   version="1.1"
   style="clip-rule:evenodd;fill-rule:evenodd;image-rendering:optimizeQuality;shape-rendering:geometricPrecision;text-rendering:geometricPrecision"
   viewBox="0 0 701624.87 1157686.5"
   id="svg2"
   inkscape:version="0.91 r13725"
   sodipodi:docname="right_rear_door_open.svg"><metadata
     id="metadata949"><rdf:RDF><cc:Work
         rdf:about=""><dc:format>image/svg+xml</dc:format><dc:type
           rdf:resource="http://purl.org/dc/dcmitype/StillImage" /><dc:title></dc:title></cc:Work></rdf:RDF></metadata><sodipodi:namedview
     pagecolor="#ffffff"
     bordercolor="#666666"
     borderopacity="1"
     objecttolerance="10"
     gridtolerance="10"
     guidetolerance="10"
     inkscape:pageopacity="0"
     inkscape:pageshadow="2"
     inkscape:window-width="1280"
     inkscape:window-height="980"
     id="namedview947"
     showgrid="false"
     inkscape:zoom="1.9655172"
     inkscape:cx="-85.111739"
     inkscape:cy="92.254752"
     inkscape:window-x="-6"
     inkscape:window-y="0"
     inkscape:window-maximized="0"
     inkscape:current-layer="svg2"
     fit-margin-top="0"
     fit-margin-left="0"
     fit-margin-right="0"
     fit-margin-bottom="0" /><defs
     id="defs4"><style
       type="text/css"
       id="style6"><![CDATA[
    .fil23 {fill:none}
    .fil0 {fill:black}
    .fil22 {fill:black}
    .fil11 {fill:#00A0E3}
    .fil16 {fill:#00A0E3}
    .fil7 {fill:#9D9E9E}
    .fil9 {fill:#FEFEFE}
    .fil18 {fill:#FEFEFE;fill-rule:nonzero}
    .fil19 {fill:#9D9E9E;fill-rule:nonzero}
    .fil5 {fill:#FEFEFE;fill-rule:nonzero}
    .fil10 {fill:red;fill-rule:nonzero}
    .fil13 {fill:red;fill-rule:nonzero}
    .fil14 {fill:white;fill-rule:nonzero}
    .fil8 {fill:url(#id0)}
    .fil15 {fill:url(#id1)}
    .fil17 {fill:url(#id2)}
    .fil6 {fill:url(#id3)}
    .fil12 {fill:url(#id4)}
    .fil21 {fill:url(#id5)}
    .fil20 {fill:url(#id6)}
    .fil3 {fill:url(#id7)}
    .fil2 {fill:url(#id8)}
    .fil4 {fill:url(#id9)}
    .fil1 {fill:url(#id10)}
   ]]></style><linearGradient
       id="id0"
       gradientUnits="userSpaceOnUse"
       x1="1030640"
       y1="1094090"
       x2="821532"
       y2="736752"><stop
         offset="0"
         style="stop-opacity:1; stop-color:#1C1B17"
         id="stop9" /><stop
         offset="0.529412"
         style="stop-opacity:1; stop-color:#434242"
         id="stop11" /><stop
         offset="1"
         style="stop-opacity:1; stop-color:#1C1B17"
         id="stop13" /></linearGradient><linearGradient
       id="id1"
       gradientUnits="userSpaceOnUse"
       xlink:href="#id0"
       x1="3261210"
       y1="1094090"
       x2="3052100"
       y2="736752" /><linearGradient
       id="id2"
       gradientUnits="userSpaceOnUse"
       xlink:href="#id0"
       x1="3524330"
       y1="1592490"
       x2="2752340"
       y2="273220" /><linearGradient
       id="id3"
       gradientUnits="objectBoundingBox"
       x1="0.61107498"
       y1="0"
       x2="0.61107498"
       y2="0.94135904"><stop
         offset="0"
         style="stop-opacity:1; stop-color:#00A0E3"
         id="stop18" /><stop
         offset="1"
         style="stop-opacity:1; stop-color:black"
         id="stop20" /></linearGradient><linearGradient
       id="id4"
       gradientUnits="userSpaceOnUse"
       xlink:href="#id0"
       x1="1293760"
       y1="1592480"
       x2="521771"
       y2="273220" /><linearGradient
       id="id5"
       gradientUnits="userSpaceOnUse"
       x1="2090880"
       y1="645894"
       x2="2343020"
       y2="363752"><stop
         offset="0"
         style="stop-opacity:1; stop-color:#FFEE00"
         id="stop24" /><stop
         offset="1"
         style="stop-opacity:1; stop-color:black"
         id="stop26" /></linearGradient><linearGradient
       id="id6"
       gradientUnits="userSpaceOnUse"
       xlink:href="#id5"
       x1="2021190"
       y1="645896"
       x2="1769050"
       y2="363754" /><linearGradient
       id="id7"
       gradientUnits="userSpaceOnUse"
       x1="2090880"
       y1="1256390"
       x2="2343020"
       y2="1538530"><stop
         offset="0"
         style="stop-opacity:1; stop-color:red"
         id="stop30" /><stop
         offset="1"
         style="stop-opacity:1; stop-color:black"
         id="stop32" /></linearGradient><linearGradient
       id="id8"
       gradientUnits="userSpaceOnUse"
       xlink:href="#id7"
       x1="2021190"
       y1="1256390"
       x2="1769050"
       y2="1538530" /><radialGradient
       id="id9"
       gradientUnits="userSpaceOnUse"
       gradientTransform="matrix(1.13982,-0.0277996,0.0277996,1.13983,-155715,-101155)"
       cx="932935"
       cy="908924"
       r="633314"
       fx="932935"
       fy="908924"><stop
         offset="0"
         style="stop-opacity:1; stop-color:black"
         id="stop36" /><stop
         offset="0.670588"
         style="stop-opacity:1; stop-color:black"
         id="stop38" /><stop
         offset="1"
         style="stop-opacity:1; stop-color:#00A0E3"
         id="stop40" /></radialGradient><radialGradient
       id="id10"
       gradientUnits="userSpaceOnUse"
       gradientTransform="matrix(1.13982,-0.0277996,0.0277996,1.13983,-467602,-39147)"
       xlink:href="#id9"
       cx="3163500"
       cy="908926"
       r="633314"
       fx="3163500"
       fy="908926" /><linearGradient
       id="id0-5"
       gradientUnits="userSpaceOnUse"
       x1="79084.102"
       y1="115915"
       x2="67443.102"
       y2="-18480.199"
       gradientTransform="matrix(7.0495335,0,0,7.0495335,1995504.6,2276777.5)"><stop
         offset="0"
         style="stop-opacity:1; stop-color:#FFEE00"
         id="stop9-4" /><stop
         offset="1"
         style="stop-opacity:1; stop-color:black"
         id="stop11-0" /></linearGradient><linearGradient
       id="id0-1"
       gradientUnits="userSpaceOnUse"
       x1="188342"
       y1="271404"
       x2="161233"
       y2="-45430.301"
       gradientTransform="matrix(2.2018915,0,0,2.2018915,-70702.284,-60836.631)"><stop
         offset="0"
         style="stop-opacity:1; stop-color:#00A0E3"
         id="stop9-0" /><stop
         offset="1"
         style="stop-opacity:1; stop-color:black"
         id="stop11-9" /></linearGradient><linearGradient
       gradientTransform="matrix(2.1821573,0,0,2.1821573,-67498.784,-67956.061)"
       id="id0-4"
       gradientUnits="userSpaceOnUse"
       x1="188673"
       y1="276543"
       x2="160901"
       y2="-44088.699"><stop
         offset="0"
         style="stop-opacity:1; stop-color:#FFEE00"
         id="stop9-7" /><stop
         offset="1"
         style="stop-opacity:1; stop-color:black"
         id="stop11-8" /></linearGradient><linearGradient
       gradientTransform="matrix(3.6129096,0,0,3.6129096,1831067.8,1270976.8)"
       id="id0-8"
       gradientUnits="userSpaceOnUse"
       x1="83317.703"
       y1="182544"
       x2="83317.703"
       y2="249145"><stop
         offset="0"
         style="stop-opacity:1; stop-color:red"
         id="stop9-3" /><stop
         offset="1"
         style="stop-opacity:1; stop-color:black"
         id="stop11-3" /></linearGradient></defs><g
     transform="matrix(1.9940252,0,0,1.9940252,-27546.784,-16290.841)"
     id="g191"
     style="clip-rule:evenodd;fill:#ffff00;fill-opacity:1;fill-rule:evenodd;image-rendering:optimizeQuality;shape-rendering:geometricPrecision;text-rendering:geometricPrecision"><path
       class="fil3"
       d="m 284975,372529 -402,-223 c -3109,-1705 -6168,-3213 -9075,-5284 -468,-335 -922,-674 -1376,-1028 -429,-292 -758,-599 -1156,-942 138,64 276,127 416,188 -190,-249 -1009,-813 -1301,-1026 14,-17 29,-34 43,-52 -367,-442 -276,-347 -826,-771 -1203,-922 -390,-211 116,309 -295,-193 -589,-389 -881,-585 -674,-555 -1347,-1110 -2019,-1666 -1467,-1128 -2947,-2393 -4370,-3576 -1240,-1032 -2479,-2065 -3719,-3098 -1114,-905 -2226,-1809 -3338,-2715 l -1620,-1356 -1443,1306 c 5486,4496 11012,8958 16474,13471 780,692 1614,1324 2415,1988 748,619 1561,1209 2362,1758 4186,2761 9041,4730 12842,7600 l 593,477 c -1598,-1723 -2876,-3323 -3735,-4775 z"
       id="path193"
       inkscape:connector-curvature="0"
       style="fill:#ffff00;fill-opacity:1;fill-rule:nonzero" /><path
       class="fil3"
       d="m 309250,398244 c -208,-109 -424,-205 -635,-277 -224,-90 -404,-141 -647,-140 -142,1 -241,21 -373,74 -117,23 -242,167 -323,242 -160,261 -353,514 -524,770 -84,110 -130,210 -151,335 l 2653,-1004 z"
       id="path195"
       inkscape:connector-curvature="0"
       style="fill:#ffff00;fill-opacity:1;fill-rule:nonzero" /><path
       class="fil3"
       d="m 244881,368281 336,265 c 2692,2134 5919,4858 8727,6810 560,439 1122,878 1684,1317 1056,878 2113,1756 3169,2634 607,445 1121,786 1749,1281 327,259 647,532 984,778 1058,783 2108,1583 3159,2376 133,130 266,260 398,390 1604,1263 3287,2494 4920,3725 1715,1289 3413,2648 5147,3905 502,338 970,832 1485,1178 86,57 927,658 936,687 107,-54 218,-19 315,40 537,367 1050,756 1604,1099 346,213 734,549 1083,724 352,196 789,460 1121,687 236,160 437,396 677,560 366,248 706,528 1088,755 l -128,-31 c -273,-207 -569,-455 -941,-748 -182,-314 -427,-556 -494,-936 -69,-514 -361,-889 -489,-1418 0,0 -819,-524 -818,-640 -7,-237 -863,-782 -1065,-941 -392,-307 -821,-623 -1184,-958 -435,-378 -1295,-877 -1814,-1256 -1353,-1004 -2729,-1941 -4056,-2987 -976,-770 -2989,-2293 -2989,-2293 386,236 771,471 1157,706 -757,-601 -1541,-1196 -2325,-1761 -528,-384 -1062,-773 -1575,-1177 -220,-209 -439,-417 -659,-626 -1967,-1553 -4036,-3211 -6081,-4640 -504,-339 -1009,-664 -1506,-1013 -512,-363 -1552,-1268 -1552,-1268 -755,-583 -1513,-1164 -2262,-1756 -479,-380 -1476,-1105 -1476,-1105 -1155,-881 -2309,-1762 -3462,-2645 0,0 -952,-794 -1435,-1179 l -2599,-2067 -829,1528 z"
       id="path197"
       inkscape:connector-curvature="0"
       style="fill:#ffff00;fill-opacity:1;fill-rule:nonzero" /><path
       class="fil3"
       d="m 301072,400163 c 3,-31 6,-64 9,-96 -63,6 1010,-106 1017,-100 21,25 -2,17 24,29 74,33 81,1 131,-46 -12,-36 -25,-73 -37,-109 26,20 51,41 77,62 5,37 11,73 16,110 -14,19 -28,37 -41,56 12,21 70,32 92,23 11,-16 22,-32 32,-48 -4,-22 -8,-44 -13,-66 120,61 133,50 258,37 -19,-31 -39,-61 -59,-92 29,-2 61,-2 90,0 74,7 243,-4 304,-46 -22,46 86,-22 127,-49 70,-49 553,-448 553,-448 74,-20 221,-34 299,-37 88,-4 280,-71 350,-127 17,-13 34,-27 49,-41 245,-145 413,-285 590,-510 126,-101 379,-648 466,-829 44,-93 89,-234 78,-337 -14,-132 -65,-54 23,-179 35,22 69,45 103,68 57,0 12,-95 -1,-120 21,7 43,14 64,20 59,-3 108,33 83,-43 -2,-6 -11,-27 -11,-30 -6,-33 -44,-27 -66,-18 -19,6 -64,13 -85,17 -9,-8 -64,-56 -67,-60 -3,-3 -21,-20 -25,-24 9,-44 18,-87 26,-130 -22,-64 -7,-170 4,-234 10,-54 19,-107 27,-162 -10,-46 -22,-91 -34,-137 8,-46 15,-93 21,-139 27,-23 68,-97 68,-97 0,0 -80,-43 -78,-80 2,-39 -41,-79 -39,-129 1,-47 -56,-60 -80,-102 -22,-47 -26,-54 -59,-91 -3,-3 -7,-9 -9,-12 -62,-61 -246,-69 -329,-64 -186,27 -547,68 -721,22 -74,-30 -128,-57 -197,-90 -125,-42 -503,-65 -646,-71 -179,-6 281,-464 111,-424 -129,10 -162,-131 -139,-136 0,0 -64,17 -63,21 -25,46 6824,-2137 -68,31 -15,-10 24,-22 24,-21 0,0 -43,19 -49,20 -14,4 -28,8 -42,12 -3,1 -22,5 -22,7 3,12 138,-27 43,14 -6,3 -107,38 -60,36 33,-1 99,2 99,2 0,0 -21,41 12,55 25,10 -35,22 -53,33 -34,26 -4,24 7,38 58,44 121,89 138,162 21,88 -12,67 62,150 25,36 94,63 14,99 -41,21 -67,48 -48,95 1,5 9,44 6,47 2,68 -45,83 122,29 0,30 3,56 -31,70 -29,13 -1,63 -1,63 -6,16 -11,32 -18,47 0,0 51,25 64,45 15,19 40,58 40,58 55,154 97,315 109,479 1,3 4,32 -1,35 -34,16 -33,123 -38,158 -18,238 -58,412 -156,631 184,-37 -103,197 -137,219 1,7 -153,98 -168,106 -95,42 -192,78 -291,109 7,-23 14,-47 20,-71 -60,37 -138,92 -208,102 -33,4 -112,16 -136,33 -22,15 -121,-3 -136,16 -5,6 -11,6 -18,17 -31,41 -316,161 -371,165 -637,159 -1152,283 -1807,389 25,-27 48,-53 71,-80 1,1 -57,13 -85,12 -33,-1 -100,-18 -100,-18 -21,4 -42,8 -63,12 7,1 -93,-4 -70,12 26,18 83,48 82,48 1,0 -127,17 -188,14 -91,-5 -213,49 -305,43 -19,1 -50,52 -154,76 -68,30 -513,14 -595,9 -138,-7 -811,-45 -938,20 -61,-1 -122,-1 -183,-1 -114,-43 -229,-85 -342,-129 -57,12 -25,80 -194,63 -35,-3 -74,-22 -109,-10 -95,32 -371,64 -358,62 -15,-22 -30,-43 -44,-64 -26,-11 -511,58 -583,68 -187,26 -512,13 -670,53 -25,14 -167,-53 -216,-28 -67,29 -73,24 -144,24 0,0 -20,148 -49,160 -103,42 -169,37 -272,102 -43,29 -173,44 -210,80 -36,29 -220,121 -264,129 -83,16 -286,-122 -400,-8 -114,105 -25,-32 -37,-16 -12,-1 -24,-1 -36,-2 -29,-23 -58,-46 -86,-69 -13,-38 -26,-75 -39,-112 0,0 -44,-16 -33,36 8,31 18,59 47,75 317,-9 509,246 572,535 8,64 63,293 108,496 l 1171,285 c 64,-17 133,-26 212,-18 115,10 250,9 364,-15 l -61,64 1163,31 c 54,-42 94,-82 155,-115 66,-24 124,-5 170,45 0,0 170,-13 251,-6 44,4 163,-39 163,-39 127,-15 255,-32 382,-50 0,0 112,39 159,43 270,21 541,41 812,57 8,1 19,1 28,1 102,-7 192,-39 278,-94 27,2 57,2 85,3 123,-30 246,-62 369,-94 -1,0 167,-76 197,7 31,86 25,63 112,86 281,90 233,-8 443,-154 42,-30 185,-21 240,-21 z"
       id="path199"
       inkscape:connector-curvature="0"
       style="fill:#ffff00;fill-opacity:1;fill-rule:nonzero" /><path
       class="fil3"
       d="m 254176,353797 c -28,-16 -56,-31 -85,-47 1,0 80,-371 115,-365 16,3 15,9 29,7 52,-6 12,-37 -6,-64 -34,-14 -68,-30 -103,-45 24,3 49,6 73,9 32,18 65,35 98,53 12,13 24,27 36,41 12,4 47,1 43,-15 -11,-12 -21,-23 -31,-34 -20,-11 -40,-21 -60,-32 74,-3 70,0 102,-55 -31,-11 -62,-22 -93,-33 18,-31 93,-54 67,-113 37,31 -1,-47 -2,-51 -18,-38 -169,-346 -159,-361 34,-53 181,-71 177,-144 0,-8 -1,-15 -2,-23 -8,20 148,-380 238,-493 29,-35 42,-86 31,-130 -17,-66 -55,-62 13,-74 28,29 55,58 83,87 47,31 4,-44 -2,-56 17,16 34,30 51,44 21,14 87,81 65,27 -22,-56 -76,-73 -127,-103 -24,-30 -47,-59 -70,-89 7,-13 16,-26 23,-38 -11,-35 -2,-62 21,-89 13,-15 26,-30 40,-44 -2,-23 -3,-47 -5,-71 14,-11 28,-22 42,-33 18,8 70,14 69,14 1,0 -47,-68 -37,-78 10,-11 -10,-53 5,-68 5,-5 1,-18 -5,-33 l -1407,1274 -938,1728 c -11,60 -13,112 1,142 -8,33 -15,67 -23,100 -53,48 -107,97 -160,144 6,33 74,37 42,122 -7,18 -29,32 -21,54 17,44 32,212 31,200 -22,1 -44,2 -65,3 -14,12 24,264 30,298 10,60 9,268 26,305 12,14 -55,52 -32,78 24,30 21,26 20,60 0,0 142,46 154,60 42,51 36,71 96,119 25,20 42,65 76,85 18,11 116,90 125,103 13,19 -110,31 -4,71 79,29 15,9 -14,0 l -2,2 c -22,-4 -43,-7 -66,-13 -36,-8 -72,-18 -108,-27 520,111 -1295,-334 36,9 24,7 49,13 72,19 75,-31 437,38 509,53 210,49 627,105 802,171 4,2 -99,-69 12,-40 173,45 89,-12 94,-29 7,-22 10,-45 39,-49 23,-4 -93,-89 -103,-120 -23,-64 -123,-155 -97,-234 14,-52 14,-102 -3,-154 46,34 92,68 138,101 13,-44 3,-86 -19,-125 -13,-27 -29,-60 -24,-90 30,-3 60,-4 89,-7 37,-108 49,-234 -20,-332 -35,-40 -76,-76 -105,-120 -34,-58 59,-67 59,-67 0,0 2,-87 16,-122 13,-33 -18,-94 -18,-94 -1,-69 -2,-138 -2,-207 0,0 51,-43 61,-64 3,-8 38,-87 38,-87 0,-1 67,-150 74,-164 19,-42 -62,-133 -62,-133 4,-8 8,-16 12,-24 -18,-51 -34,-102 -50,-154 1,1 -51,-85 29,-58 59,20 45,26 90,2 117,-52 8,-97 -80,-206 -21,-26 6,-60 18,-84 z"
       id="path201"
       inkscape:connector-curvature="0"
       style="fill:#ffff00;fill-opacity:1;fill-rule:nonzero" /><path
       class="fil2"
       d="m 252092,356083 c 0,0 565,-2193 1781,-3937"
       id="path203"
       inkscape:connector-curvature="0"
       style="fill:#ffff00;fill-opacity:1" /><path
       class="fil3"
       d="m 298287,391879 c -32,15 -63,31 -93,46 -1025,-919 -2317,-2021 -3253,-2989 -37,-67 12,-13 -51,-90 -170,-208 -237,-242 -451,-385 6,58 12,116 18,174 -62,-92 -123,-183 -185,-274 17,-35 35,-69 53,-104 59,33 118,66 176,99 -23,-60 -205,-249 -261,-294 -48,-27 -97,-54 -146,-80 -7,24 -14,48 -21,72 -256,-328 -470,-540 -764,-828 30,74 61,149 90,224 -321,-315 -686,-766 -1040,-1024 74,27 -238,-220 -353,-307 -570,-426 -1344,-948 -1861,-1400 -501,-506 -948,-1137 -1475,-1601 -44,-38 -88,-76 -131,-114 -1151,-1142 -2319,-2301 -3426,-3484 -211,-231 -463,-499 -706,-692 -241,-190 -169,-77 -368,-357 50,-2 101,-5 151,-8 6,-72 -183,-183 -240,-215 16,-15 33,-30 50,-45 6,-108 83,-74 -69,-179 -170,-118 -109,-18 -94,141 -61,-14 -123,-28 -185,-42 -76,-82 -151,-165 -226,-247 -135,-93 -306,-287 -412,-409 -90,-104 -180,-209 -269,-314 -83,-73 -167,-145 -251,-217 -74,-92 -147,-185 -221,-276 -25,-79 -113,-231 -113,-231 -68,-13 -134,-41 -182,-93 -64,-79 -162,-129 -233,-217 -70,-87 -138,-80 -221,-145 -57,-50 -136,-124 -205,-153 -94,-27 -252,64 -320,123 -126,140 -386,412 -568,445 -108,1 -162,-9 -263,-22 -94,1 -545,156 -655,197 -180,73 -343,-1034 -469,-927 -137,114 -621,-745 -621,-745 0,0 -22,93 -79,0 -35,-57 -183,-183 -120,-53 27,57 155,193 154,193 0,0 72,137 39,158 -24,16 -26,1 -37,24 -12,25 -33,-10 -10,25 73,114 174,13 149,159 -7,43 -46,122 10,136 50,13 148,44 148,44 0,0 70,143 122,176 49,31 -4,35 -5,97 7,73 33,61 73,102 142,112 273,200 388,342 108,134 107,164 258,269 66,52 168,71 146,178 -10,81 30,145 88,198 214,238 258,444 247,108 51,65 145,172 161,251 15,73 169,209 169,209 41,58 82,117 124,175 -1,0 122,60 165,96 62,51 185,155 185,155 490,473 1187,1093 1617,1576 103,180 460,509 620,673 1961,1960 3973,3873 6006,5757 394,377 790,752 1187,1127 -54,-23 -108,-45 -162,-67 270,231 554,457 806,706 139,139 306,315 459,433 175,136 315,364 513,483 467,346 1127,931 1562,1333 2100,1891 4304,3752 6471,5567 -93,-48 -185,-96 -279,-145 0,0 196,160 289,245 109,100 319,311 319,311 71,58 142,116 212,174 72,66 275,248 235,194 -79,-96 -244,-283 -244,-283 0,0 422,354 625,538 321,291 688,542 1009,831 750,627 1506,1178 2312,1879 l 661,581 1802,-683 -257,-199 c 0,0 -287,-290 -437,-421 -768,-673 -1532,-1350 -2293,-2031 -276,-247 -985,-735 -985,-735 -86,-78 -172,-155 -258,-232 -396,-308 -790,-616 -1184,-925 15,8 -549,-369 -604,-553 -56,-188 -157,-241 -297,-384 -712,-747 -653,-613 -1459,-1128 -235,-154 -544,-477 -757,-677 z"
       id="path205"
       inkscape:connector-curvature="0"
       style="fill:#ffff00;fill-opacity:1;fill-rule:nonzero" /><path
       class="fil3"
       d="m 249102,364976 c -16,-41 -32,-83 -48,-124 1180,-2542 2360,-5085 3545,-7624 679,578 1357,1158 2038,1733 -223,-160 -447,-320 -670,-480 0,0 521,438 776,662 297,262 884,798 884,798 185,157 372,314 557,471 173,151 785,696 614,521 -233,-230 -708,-683 -708,-683 550,471 1101,941 1645,1418 842,741 1726,1440 2568,2181 1857,1583 3695,3086 5560,4719 1689,1478 4283,3930 6084,5231 358,309 716,619 1075,927 635,602 1269,1204 1902,1807 380,297 623,444 1040,809 185,163 362,341 557,491 584,462 1158,940 1738,1406 63,81 125,162 187,244 759,664 1612,1318 2402,1955 672,539 1338,1112 2021,1633 51,28 153,145 200,189 553,524 1155,1073 1733,1571 158,136 1744,1556 1765,1621 169,-10 371,149 490,252 819,756 1600,1553 2390,2341 446,445 821,966 1248,1407 348,381 780,944 1037,1388 209,385 354,835 550,1238 207,411 411,824 628,1230 49,95 582,1148 173,448 64,157 128,316 189,474 152,455 293,912 426,1372 48,264 95,528 141,793 8,29 242,878 236,647 -28,-326 -227,-986 -227,-985 -450,-1385 -950,-2662 -1517,-4003 -116,-376 -325,-1139 -265,-1521 79,-642 -179,-1297 -264,-1950 -209,-241 -914,-1027 -990,-1255 -23,-345 -1289,-1555 -1571,-1847 -692,-718 -1413,-1404 -2108,-2116 -821,-820 -1953,-1708 -2849,-2467 -44,-31 -94,-58 -140,-92 -535,-397 -1033,-699 -1547,-1154 -418,-370 -1338,-1115 -1338,-1115 196,103 394,206 592,306 0,0 -732,-627 -1111,-903 -271,-205 -545,-416 -801,-639 -103,-128 -207,-256 -311,-383 -1078,-945 -2268,-2008 -3420,-2840 -318,-217 -633,-418 -943,-643 -331,-256 -669,-561 -947,-875 -485,-409 -972,-820 -1448,-1238 -313,-276 -984,-797 -984,-797 -796,-664 -1593,-1330 -2388,-1996 0,0 -673,-631 -1016,-935 -1848,-1627 -3695,-3254 -5543,-4881 -768,-676 -2417,-1979 -2417,-1979 -225,-199 -450,-396 -675,-595 -1016,-844 -2031,-1688 -3046,-2532 -466,-376 -1298,-1031 -1659,-1460 -270,-368 -589,-616 -927,-925 -338,-312 -675,-626 -1017,-933 -196,-169 -380,-268 -629,-338 -145,-36 -273,-54 -402,-53 l -18,-15 -4492,8281 c -536,1161 -1075,2322 -1617,3480 l -190,-148 -888,1638 c 189,138 383,277 583,418 191,143 358,222 590,276 68,13 131,22 192,27 243,209 438,336 730,526 -40,-80 -80,-159 -120,-239 139,140 279,280 418,420 -6,43 -12,85 -19,128 -104,-62 -209,-123 -313,-184 91,119 414,378 544,473 86,50 172,100 259,150 -3,-31 -5,-62 -8,-93 533,496 1042,909 1609,1360 -89,-111 -178,-223 -267,-336 715,570 1445,1240 2197,1747 -90,-43 420,329 739,548 1276,873 2661,1754 3897,2661 1232,970 2409,2049 3676,2968 106,77 212,152 317,229 3185,2438 6384,4850 9579,7273 719,550 1461,1110 2212,1613 556,370 650,415 1195,862 -97,-23 -194,-47 -290,-71 88,135 607,443 771,538 -14,18 -28,36 -41,53 166,264 2,132 386,377 520,329 247,96 -4,-209 144,64 290,127 436,190 270,202 541,404 812,606 470,286 1031,723 1472,1053 355,268 709,534 1065,801 300,203 600,407 900,609 319,243 639,485 958,726 210,198 660,567 660,568 0,0 430,218 583,332 305,226 636,417 944,645 264,197 530,317 803,494 253,169 525,361 794,504 127,62 427,138 507,-32 1,0 35,-703 429,-580 240,75 431,154 660,246 184,58 915,55 1132,39 171,-22 1770,1422 1981,1598 -222,-153 -430,-232 -699,-265 13,4 154,32 122,53 0,0 497,38 471,-44 192,-225 4103,-356 4668,-381 -432,-36 238,-80 279,-82 163,-9 335,-18 496,-34 -262,16 -460,72 -692,194 -227,128 -384,264 -540,473 -152,217 -232,407 -283,667 -69,589 -155,1461 -39,-6 46,-271 126,-464 278,-693 10,-22 103,-132 125,-155 136,-147 255,-242 429,-341 242,-129 445,-188 719,-208 0,0 -1408,108 -1408,108 -148,5 -875,39 -957,1 5,-46 84,-22 -2,-44 -3,-1 76,-27 -91,-18 -438,30 -717,151 -1152,103 -183,-25 -366,-84 -549,-35 -160,44 -481,127 -481,127 0,0 -478,-3 -698,48 -142,33 -72,-15 -202,-43 -138,-23 -148,1 -269,23 -40,10 -98,31 -135,37 82,26 -48,30 -66,30 -2,-49 734,209 798,321 9,18 -708,-467 -910,-612 -410,-295 -759,-555 -1193,-822 -236,-150 -543,-286 -711,-513 -143,-193 -606,-512 -606,-512 -352,-251 -1636,-1376 -770,-412 -269,-200 -604,-426 -839,-659 -215,-215 -752,-559 -752,-559 -195,-150 -388,-301 -583,-452 1,0 -360,-198 -526,-308 -221,-146 -663,-439 -663,-439 -1870,-1307 -3876,-2661 -5686,-4028 -614,-539 -1409,-1066 -2075,-1558 -5324,-3893 -10614,-7833 -15879,-11804 -882,-675 -1763,-1352 -2643,-2029 98,49 197,98 295,147 -568,-414 -1148,-822 -1698,-1259 -313,-248 -639,-519 -965,-746 -359,-252 -680,-594 -1058,-823 -956,-653 -2010,-1455 -2937,-2176 68,-173 151,-364 179,-438 300,-762 716,-1561 1070,-2306 z"
       id="path207"
       inkscape:connector-curvature="0"
       style="fill:#ffff00;fill-opacity:1;fill-rule:nonzero" /><path
       class="fil3"
       d="m 289319,398916 70,-9 c 146,25 293,49 440,71 82,-33 8,-78 241,-96 49,-2 104,9 150,-9 151,-57 504,-126 498,-125 26,19 53,37 79,56 68,9 783,-151 917,-178 384,-76 840,-97 1208,-184 67,-28 327,24 436,-17 30,-10 76,-25 107,-31 72,-13 130,3 196,32 28,-42 69,-78 119,-90 11,-5 41,4 51,10 101,66 157,139 204,249 46,82 79,138 147,206 54,57 117,223 172,267 63,60 219,290 253,368 78,255 24,500 208,763 l 48,66 -98,-23 c -35,-326 -18,-755 257,-951 105,-74 633,-602 687,-599 0,0 -169,-196 -67,-244 163,-79 30,-200 3,-298 0,-2 -1,-3 -1,-5 -160,-528 -415,-883 -853,-1220 -349,-242 -651,-362 -1069,-427 -120,-19 -240,-21 -361,-12 -81,6 -325,137 -462,161 -335,62 -626,198 -980,218 -202,13 -419,37 -616,85 67,-58 134,-116 201,-174 0,0 -322,36 -447,84 -70,24 -202,64 -277,68 -43,-25 -87,-50 -130,-75 0,0 -720,25 -934,188 -69,54 -117,106 -189,152 -74,34 -142,27 -210,-16 0,0 -187,40 -280,45 -46,4 -166,63 -166,63 -122,33 -243,68 -365,105 0,0 -104,-23 -146,-20 -200,13 -401,27 -601,44 -75,12 -133,63 -171,126 -14,1 -31,4 -47,5 -16,12 -126,99 -130,101 -6,2 -15,22 -21,28 -23,39 -75,62 -95,0 -16,-80 -5,-59 -74,-88 -8,-3 -75,-32 -76,-33 -109,284 -209,537 -300,762 l 2474,601 z"
       id="path209"
       inkscape:connector-curvature="0"
       style="fill:#ffff00;fill-opacity:1;fill-rule:nonzero" /><path
       class="fil3"
       d="m 284556,371764 c -205,-75 -404,-91 -640,-54 -299,62 -507,182 -712,408 -196,236 -282,458 -301,763 -3,305 70,533 246,781 1839,2386 3626,4336 5596,6568 80,113 31,67 143,199 346,413 632,683 1025,1042 -49,-106 -98,-212 -146,-318 167,210 334,419 502,628 -8,46 -14,93 -22,140 -124,-106 -249,-212 -373,-318 131,201 472,552 652,727 103,86 207,171 310,257 -4,-36 -8,-72 -12,-109 626,727 1246,1366 1923,2044 -107,-153 -214,-306 -320,-459 833,840 1686,1780 2581,2544 -87,-62 454,436 847,772 1382,1173 2823,2289 4191,3454 1095,993 2170,2124 3317,3042 84,67 167,134 252,201 1024,872 2058,1733 3106,2577 702,577 1404,1163 2100,1753 l 2054,-777 c -976,-813 -1957,-1620 -2949,-2412 -2368,-1806 -4680,-3782 -6925,-5737 -937,-831 -1866,-1670 -2787,-2518 108,71 215,142 323,212 -638,-561 -1284,-1120 -1897,-1710 -363,-349 -731,-720 -1107,-1054 -424,-377 -795,-837 -1235,-1199 -1188,-1058 -2475,-2342 -3577,-3497 -2218,-2316 -4226,-4531 -6228,-7055 62,92 87,174 84,284 -8,108 -40,189 -110,272 -74,80 -148,119 -255,140 -106,16 -190,1 -285,-49 893,467 1741,921 2566,1416 -817,-1047 -1473,-2035 -1937,-2958 z"
       id="path211"
       inkscape:connector-curvature="0"
       style="fill:#ffff00;fill-opacity:1;fill-rule:nonzero" /><path
       class="fil3"
       d="m 252487,354261 c 663,573 1353,1119 2010,1699 1642,1404 3274,2726 4933,4182 1551,1364 3985,3669 5642,4861 346,300 693,599 1039,899 628,598 1256,1197 1884,1796 389,305 637,457 1062,831 193,170 377,355 580,513 626,497 1248,1015 1867,1523 71,90 141,178 212,267 907,798 1912,1581 2850,2354 983,803 1956,1685 2954,2457 279,191 550,557 849,762 55,37 548,412 553,439 76,-48 154,-58 234,-11 335,238 640,493 991,709 216,133 487,392 701,492 232,125 591,352 801,511 196,148 577,647 794,683 57,12 158,30 37,51 11,10 24,23 36,35 12,33 21,72 21,107 -18,33 -37,66 -59,97 5,6 -401,461 29,-24 14,-17 36,-39 40,-62 -250,-410 -619,-623 -657,-1260 28,-449 -138,-749 -129,-1208 -128,-77 -502,-305 -512,-453 46,-200 -479,-533 -617,-656 -223,-196 -495,-418 -687,-638 -179,-186 -816,-571 -1083,-781 -787,-632 -1590,-1189 -2354,-1864 -544,-482 -1712,-1447 -1712,-1447 236,137 472,273 708,409 0,0 -883,-765 -1343,-1110 -312,-241 -621,-485 -919,-744 -118,-141 -237,-282 -355,-423 -1128,-996 -2401,-2136 -3605,-3012 -318,-218 -634,-420 -945,-647 -345,-266 -640,-541 -932,-864 -468,-395 -939,-794 -1399,-1199 -297,-262 -936,-758 -936,-758 -743,-620 -1487,-1241 -2230,-1862 0,0 -614,-584 -929,-862 -1651,-1460 -3302,-2920 -4953,-4379 -666,-589 -2119,-1724 -2119,-1724 -195,-172 -391,-345 -586,-518 l -909,-751 -857,1580 z"
       id="path213"
       inkscape:connector-curvature="0"
       style="fill:#ffff00;fill-opacity:1;fill-rule:nonzero" /></g></svg>