<?xml version="1.0" encoding="UTF-8" standalone="no"?>
<!-- Creator: CorelDRAW X8 -->
<svg id="svg2" xml:space="preserve" height="69.589mm" clip-rule="evenodd" xmlns:cc="http://creativecommons.org/ns#" xmlns:dc="http://purl.org/dc/elements/1.1/" xmlns:rdf="http://www.w3.org/1999/02/22-rdf-syntax-ns#" style="image-rendering:optimizeQuality;text-rendering:geometricPrecision;shape-rendering:geometricPrecision" xmlns="http://www.w3.org/2000/svg" fill-rule="evenodd" viewBox="0 0 701624.87 1157686.5" width="42.175mm" version="1.1" xmlns:xlink="http://www.w3.org/1999/xlink"><metadata id="metadata949"><rdf:RDF><cc:Work rdf:about=""><dc:format>image/svg+xml</dc:format><dc:type rdf:resource="http://purl.org/dc/dcmitype/StillImage"/><dc:title/></cc:Work></rdf:RDF></metadata><defs id="defs4"><style id="style6" type="text/css"><![CDATA[
    .fil23 {fill:none}
    .fil0 {fill:black}
    .fil22 {fill:black}
    .fil11 {fill:#00A0E3}
    .fil16 {fill:#00A0E3}
    .fil7 {fill:#9D9E9E}
    .fil9 {fill:#FEFEFE}
    .fil18 {fill:#FEFEFE;fill-rule:nonzero}
    .fil19 {fill:#9D9E9E;fill-rule:nonzero}
    .fil5 {fill:#FEFEFE;fill-rule:nonzero}
    .fil10 {fill:red;fill-rule:nonzero}
    .fil13 {fill:red;fill-rule:nonzero}
    .fil14 {fill:white;fill-rule:nonzero}
    .fil8 {fill:url(#id0)}
    .fil15 {fill:url(#id1)}
    .fil17 {fill:url(#id2)}
    .fil6 {fill:url(#id3)}
    .fil12 {fill:url(#id4)}
    .fil21 {fill:url(#id5)}
    .fil20 {fill:url(#id6)}
    .fil3 {fill:url(#id7)}
    .fil2 {fill:url(#id8)}
    .fil4 {fill:url(#id9)}
    .fil1 {fill:url(#id10)}
   ]]></style><linearGradient id="id0" y2="7.3675e5" gradientUnits="userSpaceOnUse" x2="8.2153e5" y1="1.0941e6" x1="1.0306e6"><stop id="stop9" stop-color="#1C1B17" offset="0"/><stop id="stop11" stop-color="#434242" offset=".52941"/><stop id="stop13" stop-color="#1C1B17" offset="1"/></linearGradient><linearGradient id="id1" y2="7.3675e5" xlink:href="#id0" gradientUnits="userSpaceOnUse" x2="3.0521e6" y1="1.0941e6" x1="3.2612e6"/><linearGradient id="id2" y2="2.7322e5" xlink:href="#id0" gradientUnits="userSpaceOnUse" x2="2.7523e6" y1="1.5925e6" x1="3.5243e6"/><linearGradient id="id3" y2=".94136" x2=".61107" x1=".61107"><stop id="stop18" stop-color="#00A0E3" offset="0"/><stop id="stop20" offset="1"/></linearGradient><linearGradient id="id4" y2="2.7322e5" xlink:href="#id0" gradientUnits="userSpaceOnUse" x2="5.2177e5" y1="1.5925e6" x1="1.2938e6"/><linearGradient id="id5" y2="3.6375e5" gradientUnits="userSpaceOnUse" x2="2.343e6" y1="6.4589e5" x1="2.0909e6"><stop id="stop24" stop-color="#fe0" offset="0"/><stop id="stop26" offset="1"/></linearGradient><linearGradient id="id6" y2="3.6375e5" xlink:href="#id5" gradientUnits="userSpaceOnUse" x2="1.769e6" y1="6.459e5" x1="2.0212e6"/><linearGradient id="id7" y2="1.5385e6" gradientUnits="userSpaceOnUse" x2="2.343e6" y1="1.2564e6" x1="2.0909e6"><stop id="stop30" stop-color="red" offset="0"/><stop id="stop32" offset="1"/></linearGradient><linearGradient id="id8" y2="1.5385e6" xlink:href="#id7" gradientUnits="userSpaceOnUse" x2="1.769e6" y1="1.2564e6" x1="2.0212e6"/><radialGradient id="id9" gradientUnits="userSpaceOnUse" cy="9.0892e5" cx="9.3294e5" gradientTransform="matrix(1.1398 -0.0278 0.0278 1.1398 -1.5572e5 -1.0116e5)" r="6.3331e5"><stop id="stop36" offset="0"/><stop id="stop38" offset=".67059"/><stop id="stop40" stop-color="#00A0E3" offset="1"/></radialGradient><radialGradient id="id10" xlink:href="#id9" gradientUnits="userSpaceOnUse" cy="9.0893e5" cx="3.1635e6" gradientTransform="matrix(1.1398 -0.0278 0.0278 1.1398 -4.676e5 -39147)" r="6.3331e5"/></defs><g id="g4148" fill="#f00" transform="matrix(1326.2 0 0 1326.2 3.0727e5 6.7883e5)"><path id="path4-8" d="m35.498 52.75c7.92 0 15.202 1.418 21.255 3.868 0.169-1.643 0.22-3.227 0.128-4.743-1.077-17.861-3.129-23.542-8.871-27.594l-31.484 31.484c5.568-1.921 12.024-3.015 18.972-3.015z"/><path id="path6" d="m15.026 61.301c1.52 6.736 4.806 14.372 9.506 22.866 0.115 0.208 0.229 0.396 0.341 0.583h7.576c-7.257-12.673-8.362-18.284-6.979-20.581 0 0 7.683-0.543 10.249-0.543 2.565 0 10.248 0.543 10.248 0.543 1.383 2.297 0.279 7.908-6.979 20.581h7.137c0.111-0.186 0.225-0.376 0.339-0.583 4.7-8.494 7.985-16.13 9.506-22.865-5.737-2.523-12.853-4.052-20.472-4.052-7.62 0-14.734 1.527-20.472 4.051z"/><path id="path8-4" d="m60.118 12.173-3.182-3.182-12.922 12.923c1.502 0.78 2.824 1.541 3.996 2.367l12.108-12.108z"/><path id="path10" d="m56.753 56.618c-0.155 1.509-0.419 3.07-0.783 4.684 4.89 2.15 8.781 5.021 11.096 8.312l3.274-3.273c-2.994-3.991-7.711-7.343-13.587-9.723z"/><path id="path12" d="m14.115 51.875c0.001-0.023 0.003-0.044 0.004-0.066l-14.119 14.119 3.182 3.182 0.156-0.156 0.622 0.621c2.317-3.275 6.198-6.131 11.067-8.273-0.761-3.37-1.087-6.518-0.912-9.427z"/><path id="path14" d="m39.932 19.893v-4.13c2.455-1.49 4.101-4.181 4.101-7.263 0-4.694-3.806-8.5-8.5-8.5s-8.5 3.806-8.5 8.5c0 3.067 1.63 5.747 4.066 7.242v4.133c-12.185 5.905-15.498 7.472-16.979 31.934l29.894-29.895c-1.238-0.643-2.592-1.3-4.082-2.021z"/></g></svg>
